<svg width="55" height="55" viewBox="0 0 55 55" fill="none" xmlns="http://www.w3.org/2000/svg">
<g clip-path="url(#clip0_69_6811)">
<path d="M55 27.5C55 12.3122 42.6878 0 27.5 0C12.3122 0 0 12.3122 0 27.5C0 42.6878 12.3122 55 27.5 55C42.6878 55 55 42.6878 55 27.5Z" fill="#333749"/>
<path d="M27.4946 5.92188L14.2502 27.9002L27.4946 21.8804V5.92188Z" fill="white"/>
<path d="M27.4946 21.8801L14.2502 27.8999L27.4946 35.7307V21.8801Z" fill="#D4D9EF"/>
<path d="M40.7411 27.9L27.4944 5.92188V21.8803L40.7411 27.9Z" fill="#D4D9EF"/>
<path d="M27.4944 35.7307L40.7411 27.8999L27.4944 21.8801V35.7307Z" fill="#898EA2"/>
<path d="M14.2502 30.4128L27.4946 49.0781V38.2387L14.2502 30.4128Z" fill="white"/>
<path d="M27.4944 38.2387V49.0781L40.7485 30.4128L27.4944 38.2387Z" fill="#D4D9EF"/>
</g>
<defs>
<clipPath id="clip0_69_6811">
<rect width="55" height="55" fill="white"/>
</clipPath>
</defs>
</svg>
