<svg width="208" height="45" viewBox="0 0 208 45" fill="none" xmlns="http://www.w3.org/2000/svg">
<g clip-path="url(#clip0_69_6789)">
<path d="M42.33 27.684C39.4599 39.159 27.8001 46.1423 16.2868 43.2808C4.77821 40.4199 -2.22781 28.7971 0.643631 17.3228C3.5124 5.84644 15.1721 -1.13774 26.6821 1.72314C38.1947 4.58401 45.2 16.2083 42.33 27.684Z" fill="#F7931A"/>
<path fill-rule="evenodd" clip-rule="evenodd" d="M30.9565 19.4493C31.3843 16.5992 29.2071 15.067 26.2302 14.0449L27.196 10.184L24.8382 9.59826L23.8981 13.3574C23.2782 13.2035 22.6417 13.0582 22.0091 12.9143L22.956 9.13038L20.5996 8.54468L19.6332 12.4042C19.1202 12.2878 18.6166 12.1726 18.1277 12.0515L18.1304 12.0394L14.8788 11.2302L14.2516 13.7403C14.2516 13.7403 16.001 14.1399 15.964 14.1647C16.9189 14.4023 17.0915 15.0322 17.0626 15.5315L15.9627 19.9299C16.0285 19.9467 16.1138 19.9708 16.2078 20.0083L16.1279 19.9884C16.0732 19.9747 16.0165 19.9605 15.9587 19.9467L14.4168 26.1082C14.3 26.3973 14.0038 26.8311 13.3363 26.6664C13.3599 26.7006 11.6226 26.24 11.6226 26.24L10.4521 28.9303L13.5203 29.6926C13.863 29.7784 14.2016 29.8663 14.5366 29.9534C14.7596 30.0112 14.9811 30.0688 15.2012 30.1251L14.2254 34.0302L16.5805 34.6159L17.5468 30.7524C18.1901 30.9263 18.8147 31.087 19.4257 31.2382L18.4628 35.0839L20.8205 35.6695L21.7962 31.7716C25.8167 32.5301 28.8399 32.2243 30.1123 28.5996C31.1379 25.6811 30.0615 23.9977 27.946 22.8999C29.4865 22.5457 30.647 21.5357 30.9565 19.4493ZM25.5687 26.9796C24.8983 29.6591 20.7033 28.553 18.7773 28.0452C18.6022 27.9991 18.4454 27.9577 18.3122 27.9246L19.6069 22.7512C19.7675 22.791 19.9638 22.8349 20.1862 22.8846C22.1759 23.3296 26.2537 24.2418 25.5687 26.9796ZM20.5835 20.4835C22.1875 20.9102 25.6862 21.8409 26.2955 19.4073C26.9179 16.9182 23.5174 16.1678 21.8568 15.8014C21.67 15.7601 21.5052 15.7238 21.3706 15.6903L20.1967 20.3826C20.3076 20.4102 20.4378 20.4448 20.5835 20.4835Z" fill="white"/>
<path fill-rule="evenodd" clip-rule="evenodd" d="M67.484 14.9636C66.2188 14.3525 64.7133 14.0413 62.9706 14.0413C62.1379 14.0413 61.359 14.135 60.6331 14.315C59.9078 14.4978 59.1811 14.7488 58.4599 15.0728L61.8291 1.08765L53.4015 2.38957L43.9919 41.7991C45.0442 42.3065 46.1617 42.7063 47.3383 42.9914C48.5153 43.2819 49.6301 43.4988 50.6843 43.6453C51.732 43.7866 52.6673 43.8703 53.4813 43.8869C54.2952 43.9038 54.8712 43.913 55.1991 43.913C57.7333 43.913 60.0939 43.4338 62.2647 42.4753C64.4392 41.5174 66.3248 40.2208 67.9217 38.5763C69.5201 36.9297 70.7765 34.9992 71.7025 32.7735C72.6286 30.5512 73.0871 28.1936 73.0871 25.6984C73.0871 24.0737 72.8883 22.5562 72.4922 21.1446C72.0932 19.7369 71.4755 18.5086 70.6456 17.4577C69.8041 16.4122 68.755 15.5808 67.484 14.9636ZM59.4943 36.3265C58.3708 36.9376 57.1748 37.249 55.9058 37.249C55.6849 37.249 55.4878 37.2487 55.3119 37.2485C55.1706 37.2483 55.0433 37.2483 54.9287 37.2483C54.6714 37.2483 54.4586 37.2375 54.2726 37.2168C54.0967 37.1988 53.9201 37.1727 53.7603 37.1358C53.597 37.1016 53.4055 37.0656 53.1894 37.0274L56.7767 22.1754C57.4328 21.6004 58.1647 21.2182 58.9826 21.0341C59.7979 20.8608 60.4554 20.7637 60.9656 20.7637C62.5229 20.7637 63.5953 21.2537 64.1749 22.2276C64.7544 23.2056 65.0452 24.5583 65.0452 26.2926C65.0452 27.7045 64.8075 29.0612 64.3373 30.3617C63.8672 31.6624 63.2227 32.8264 62.4081 33.8598C61.5935 34.8887 60.6211 35.7147 59.4943 36.3265Z" fill="#4D4D4D"/>
<path fill-rule="evenodd" clip-rule="evenodd" d="M82.699 10.1708C83.6029 10.8388 84.6217 11.1722 85.7451 11.1722C86.5055 11.1722 87.2185 11.0336 87.892 10.7411C88.5595 10.4512 89.1538 10.0644 89.6582 9.57773C90.1672 9.08775 90.5734 8.51141 90.8802 7.84206C91.1893 7.17268 91.343 6.45914 91.343 5.69873C91.343 4.32855 90.8884 3.30642 89.9845 2.63504C89.0772 1.96701 88.0639 1.63367 86.9411 1.63367C86.1783 1.63367 85.4625 1.77758 84.7897 2.06541C84.1207 2.35793 83.532 2.74615 83.0235 3.23213C82.5146 3.72209 82.1083 4.29842 81.7972 4.9678C81.4911 5.6385 81.3366 6.34937 81.3366 7.1071C81.3366 8.48464 81.7879 9.50677 82.699 10.1708ZM73.7786 43.1593H81.8282L88.6811 14.6463H80.5765L73.7786 43.1593Z" fill="#4D4D4D"/>
<path d="M95.7363 7.54325L104.167 6.24133L102.097 14.6459H111.126L109.496 21.2579H100.521L98.1304 31.2316C97.9102 32.0629 97.7851 32.8394 97.7503 33.561C97.7107 34.2857 97.8025 34.9083 98.0203 35.4325C98.2364 35.9579 98.6253 36.3629 99.1894 36.6493C99.7507 36.9405 100.554 37.0872 101.609 37.0872C102.477 37.0872 103.323 37.0048 104.141 36.8415C104.954 36.6808 105.778 36.4572 106.612 36.1647L107.213 42.347C106.125 42.7446 104.947 43.0866 103.678 43.3746C102.407 43.6664 100.902 43.8068 99.1624 43.8068C96.6617 43.8068 94.723 43.4367 93.3416 42.6998C91.9625 41.9575 90.9874 40.9432 90.4038 39.6594C89.8282 38.3803 89.5712 36.9056 89.6428 35.2444C89.7174 33.579 89.9693 31.8285 90.4038 29.9851L95.7363 7.54325Z" fill="#4D4D4D"/>
<path d="M110.769 31.7729C110.769 29.317 111.168 27.0011 111.965 24.833C112.761 22.6629 113.907 20.7652 115.395 19.1367C116.877 17.5161 118.683 16.2323 120.808 15.2898C122.923 14.3527 125.292 13.8801 127.902 13.8801C129.536 13.8801 130.995 14.0341 132.279 14.3427C133.568 14.6539 134.735 15.0562 135.79 15.5609L133.014 21.853C132.288 21.5598 131.536 21.3014 130.757 21.0671C129.978 20.8281 129.027 20.713 127.903 20.713C125.216 20.713 123.092 21.6361 121.511 23.4763C119.936 25.3177 119.143 27.7963 119.143 30.9055C119.143 32.7483 119.542 34.2382 120.343 35.3781C121.139 36.5182 122.61 37.0852 124.746 37.0852C125.801 37.0852 126.818 36.9754 127.793 36.7612C128.774 36.5443 129.641 36.2711 130.405 35.9485L131.006 42.3985C129.988 42.7921 128.865 43.1476 127.633 43.4587C126.399 43.7593 124.93 43.9153 123.226 43.9153C120.977 43.9153 119.073 43.5874 117.516 42.9415C115.958 42.2854 114.671 41.4146 113.657 40.3114C112.638 39.2056 111.906 37.9145 111.453 36.4324C111 34.9517 110.769 33.3963 110.769 31.7729Z" fill="#4D4D4D"/>
<path fill-rule="evenodd" clip-rule="evenodd" d="M141.522 43.0459C142.937 43.6234 144.606 43.9153 146.527 43.9153C149.174 43.9153 151.506 43.3624 153.516 42.2606C155.53 41.1588 157.206 39.7404 158.546 38.0074C159.889 36.2704 160.907 34.3159 161.592 32.1545C162.277 29.9824 162.622 27.8109 162.622 25.6455C162.622 23.9125 162.389 22.3282 161.915 20.9038C161.445 19.474 160.746 18.2404 159.826 17.1895C158.896 16.1439 157.72 15.3266 156.291 14.7503C154.856 14.1726 153.196 13.8801 151.31 13.8801C148.739 13.8801 146.451 14.433 144.461 15.5321C142.469 16.6386 140.778 18.0576 139.406 19.7933C138.024 21.5263 136.98 23.4763 136.276 25.6462C135.569 27.8116 135.219 29.983 135.219 32.1552C135.219 33.8868 135.448 35.4672 135.923 36.8944C136.397 38.322 137.09 39.5611 138.016 40.6066C138.941 41.6576 140.11 42.4681 141.522 43.0459ZM147.406 21.7421C148.309 21.0601 149.364 20.7147 150.557 20.7147C152.08 20.7147 153.133 21.222 153.713 22.2308C154.294 23.2436 154.585 24.6559 154.585 26.4604C154.585 27.5796 154.43 28.7665 154.126 30.0109C153.815 31.2586 153.351 32.4079 152.734 33.4534C152.116 34.5017 151.354 35.3698 150.453 36.0547C149.544 36.7441 148.494 37.0867 147.297 37.0867C145.773 37.0867 144.725 36.5794 144.142 35.5707C143.566 34.5566 143.273 33.1474 143.273 31.3382C143.273 30.217 143.424 29.0369 143.733 27.7886C144.044 26.5428 144.504 25.3969 145.124 24.3459C145.738 23.2999 146.499 22.4323 147.406 21.7421Z" fill="#4D4D4D"/>
<path fill-rule="evenodd" clip-rule="evenodd" d="M172.272 10.1713C173.175 10.8393 174.193 11.1727 175.315 11.1727C176.08 11.1727 176.794 11.0341 177.468 10.7416C178.137 10.4517 178.724 10.0648 179.234 9.57821C179.741 9.08823 180.15 8.51192 180.455 7.84254C180.759 7.17316 180.921 6.45962 180.921 5.69923C180.921 4.32903 180.464 3.3069 179.558 2.63552C178.653 1.9675 177.636 1.63416 176.511 1.63416C175.751 1.63416 175.035 1.77807 174.366 2.0659C173.698 2.35841 173.104 2.74665 172.598 3.2326C172.089 3.72259 171.68 4.2989 171.374 4.96828C171.067 5.63898 170.91 6.34984 170.91 7.10758C170.91 8.48514 171.365 9.50727 172.272 10.1713ZM163.348 43.1599H171.404L178.254 14.6468H170.146L163.348 43.1599Z" fill="#4D4D4D"/>
<path d="M184.049 15.9433C184.66 15.7652 185.343 15.551 186.085 15.3181C186.829 15.0851 187.661 14.8683 188.591 14.6728C189.51 14.4713 190.548 14.308 191.688 14.1815C192.829 14.0523 194.129 13.9894 195.574 13.9894C199.819 13.9894 202.746 15.2217 204.362 17.6789C205.976 20.1362 206.255 23.4992 205.208 27.7616L201.505 43.1572H193.402L196.991 28.0856C197.21 27.1444 197.382 26.2347 197.509 25.346C197.637 24.4651 197.63 23.6886 197.48 23.0165C197.337 22.3524 197 21.8089 196.476 21.3879C195.945 20.9736 195.143 20.7654 194.054 20.7654C193.005 20.7654 191.937 20.8778 190.847 21.0947L185.571 43.1565H177.465L184.049 15.9433Z" fill="#4D4D4D"/>
</g>
<defs>
<clipPath id="clip0_69_6789">
<rect width="208" height="45" fill="white"/>
</clipPath>
</defs>
</svg>
