<svg width="56" height="56" viewBox="0 0 56 56" fill="none" xmlns="http://www.w3.org/2000/svg">
<g clip-path="url(#clip0_69_6802)">
<path d="M56 28C56 12.536 43.464 0 28 0C12.536 0 0 12.536 0 28C0 43.464 12.536 56 28 56C43.464 56 56 43.464 56 28Z" fill="#FFCA08"/>
<path fill-rule="evenodd" clip-rule="evenodd" d="M17.5249 30.5702V41.2676H27.8736C31.9928 41.2676 35.3666 40.004 37.9948 37.4768C40.6483 34.9496 41.9751 31.7907 41.9751 28C41.9751 24.184 40.6611 21.025 38.0327 18.5232C35.4044 15.996 32.0182 14.7324 27.8736 14.7324H17.5249V25.4296H11.0469V30.5702H17.5249ZM23.3627 30.5702V35.9984H27.8736C30.2743 35.9984 32.2077 35.2655 33.6733 33.7999C35.1391 32.3089 35.872 30.3755 35.872 28C35.872 25.6498 35.1265 23.7291 33.6355 22.2381C32.1697 20.7471 30.2491 20.0015 27.8736 20.0015H23.3627V25.4296H28V30.5702H23.3627Z" fill="white"/>
</g>
<defs>
<clipPath id="clip0_69_6802">
<rect width="56" height="56" fill="white"/>
</clipPath>
</defs>
</svg>
