<svg width="168" height="48" viewBox="0 0 168 48" fill="none" xmlns="http://www.w3.org/2000/svg">
<path d="M89.5155 29.256V24.5915C89.5155 22.8035 88.4271 21.6373 86.5613 21.6373C85.6284 21.6373 84.6177 21.9483 83.918 22.9589C83.3739 22.1038 82.5964 21.6373 81.4303 21.6373C80.6529 21.6373 79.8755 21.8706 79.2535 22.7257V21.7928H77.6208V29.256H79.2535V25.1357C79.2535 23.8141 79.9531 23.1922 81.0415 23.1922C82.1299 23.1922 82.6742 23.8918 82.6742 25.1357V29.256H84.3068V25.1357C84.3068 23.8141 85.0842 23.1922 86.0948 23.1922C87.1832 23.1922 87.7274 23.8918 87.7274 25.1357V29.256H89.5155ZM113.693 21.7928H111.05V19.5383H109.417V21.7928H107.94V23.2699H109.417V26.6906C109.417 28.4009 110.117 29.4115 111.983 29.4115C112.682 29.4115 113.46 29.1783 114.004 28.8673L113.538 27.468C113.071 27.7789 112.527 27.8567 112.138 27.8567C111.361 27.8567 111.05 27.3902 111.05 26.6128V23.2699H113.693V21.7928ZM127.531 21.6373C126.598 21.6373 125.976 22.1038 125.588 22.7257V21.7928H123.955V29.256H125.588V25.058C125.588 23.8141 126.132 23.1144 127.142 23.1144C127.453 23.1144 127.842 23.1922 128.153 23.2699L128.62 21.7151C128.309 21.6373 127.842 21.6373 127.531 21.6373ZM106.619 22.4147C105.841 21.8706 104.753 21.6373 103.587 21.6373C101.721 21.6373 100.477 22.5702 100.477 24.0473C100.477 25.2912 101.41 25.9909 103.042 26.2241L103.82 26.3018C104.675 26.4573 105.141 26.6906 105.141 27.0793C105.141 27.6235 104.52 28.0122 103.431 28.0122C102.343 28.0122 101.488 27.6235 100.943 27.2347L100.166 28.4786C101.021 29.1006 102.187 29.4115 103.353 29.4115C105.53 29.4115 106.774 28.4009 106.774 27.0015C106.774 25.6799 105.763 24.9802 104.209 24.747L103.431 24.6693C102.731 24.5915 102.187 24.436 102.187 23.9696C102.187 23.4254 102.731 23.1144 103.587 23.1144C104.52 23.1144 105.452 23.5031 105.919 23.7364L106.619 22.4147ZM149.999 21.6373C149.066 21.6373 148.444 22.1038 148.055 22.7257V21.7928H146.422V29.256H148.055V25.058C148.055 23.8141 148.599 23.1144 149.61 23.1144C149.921 23.1144 150.31 23.1922 150.621 23.2699L151.087 21.7151C150.776 21.6373 150.31 21.6373 149.999 21.6373ZM129.164 25.5244C129.164 27.7789 130.719 29.4115 133.129 29.4115C134.217 29.4115 134.994 29.1783 135.772 28.5564L134.994 27.2347C134.372 27.7012 133.751 27.9344 133.051 27.9344C131.729 27.9344 130.796 27.0015 130.796 25.5244C130.796 24.1251 131.729 23.1922 133.051 23.1144C133.751 23.1144 134.372 23.3477 134.994 23.8141L135.772 22.4925C134.994 21.8706 134.217 21.6373 133.129 21.6373C130.719 21.6373 129.164 23.2699 129.164 25.5244ZM144.246 25.5244V21.7928H142.613V22.7257C142.069 22.026 141.291 21.6373 140.281 21.6373C138.182 21.6373 136.549 23.2699 136.549 25.5244C136.549 27.7789 138.182 29.4115 140.281 29.4115C141.369 29.4115 142.147 29.0228 142.613 28.3231V29.256H144.246V25.5244ZM138.26 25.5244C138.26 24.2028 139.115 23.1144 140.514 23.1144C141.836 23.1144 142.769 24.1251 142.769 25.5244C142.769 26.846 141.836 27.9344 140.514 27.9344C139.115 27.8567 138.26 26.846 138.26 25.5244ZM118.746 21.6373C116.57 21.6373 115.015 23.1922 115.015 25.5244C115.015 27.8567 116.57 29.4115 118.824 29.4115C119.912 29.4115 121.001 29.1006 121.856 28.4009L121.079 27.2347C120.457 27.7012 119.679 28.0122 118.902 28.0122C117.891 28.0122 116.881 27.5457 116.647 26.2241H122.167V25.6022C122.245 23.1922 120.845 21.6373 118.746 21.6373ZM118.746 23.0367C119.757 23.0367 120.457 23.6586 120.612 24.8247H116.725C116.881 23.8141 117.58 23.0367 118.746 23.0367ZM159.25 25.5244V18.8386H157.617V22.7257C157.073 22.026 156.296 21.6373 155.285 21.6373C153.186 21.6373 151.553 23.2699 151.553 25.5244C151.553 27.7789 153.186 29.4115 155.285 29.4115C156.373 29.4115 157.151 29.0228 157.617 28.3231V29.256H159.25V25.5244ZM153.264 25.5244C153.264 24.2028 154.119 23.1144 155.518 23.1144C156.84 23.1144 157.773 24.1251 157.773 25.5244C157.773 26.846 156.84 27.9344 155.518 27.9344C154.119 27.8567 153.264 26.846 153.264 25.5244ZM98.689 25.5244V21.7928H97.0564V22.7257C96.5121 22.026 95.7348 21.6373 94.7242 21.6373C92.6251 21.6373 90.9926 23.2699 90.9926 25.5244C90.9926 27.7789 92.6251 29.4115 94.7242 29.4115C95.8126 29.4115 96.59 29.0228 97.0564 28.3231V29.256H98.689V25.5244ZM92.6251 25.5244C92.6251 24.2028 93.4803 23.1144 94.8797 23.1144C96.2013 23.1144 97.1342 24.1251 97.1342 25.5244C97.1342 26.846 96.2013 27.9344 94.8797 27.9344C93.4803 27.8567 92.6251 26.846 92.6251 25.5244Z" fill="black"/>
<path d="M45.9767 9.88831H30.1301V38.3619H45.9767V9.88831Z" fill="#FF5F00"/>
<path d="M31.1365 24.125C31.1365 18.3398 33.853 13.2085 38.0285 9.88826C34.9598 7.47354 31.0862 6.01465 26.8604 6.01465C16.8494 6.01465 8.75 14.114 8.75 24.125C8.75 34.1361 16.8494 42.2354 26.8604 42.2354C31.0862 42.2354 34.9598 40.7765 38.0285 38.3618C33.853 35.0919 31.1365 29.9103 31.1365 24.125Z" fill="#EB001B"/>
<path d="M67.3573 24.125C67.3573 34.1361 59.258 42.2354 49.2469 42.2354C45.0212 42.2354 41.1476 40.7765 38.0789 38.3618C42.3046 35.0416 44.9709 29.9103 44.9709 24.125C44.9709 18.3398 42.2543 13.2085 38.0789 9.88826C41.1476 7.47354 45.0212 6.01465 49.2469 6.01465C59.258 6.01465 67.3573 14.1643 67.3573 24.125Z" fill="#F79E1B"/>
</svg>
