<svg width="414" height="422" viewBox="0 0 414 422" fill="none" xmlns="http://www.w3.org/2000/svg">
<g clip-path="url(#clip0_69_3562)">
<path d="M155.478 263.654H105.269V12.749H50.2041V263.654H0L77.7367 409.341L155.478 263.654Z" fill="#F26055"/>
<g style="mix-blend-mode:multiply">
<path d="M105.269 263.654V12.749H77.7367V409.341L155.478 263.654H105.269Z" fill="#E6E6E6"/>
</g>
<path d="M414 164.915H363.791V415.819H308.726V164.915H258.522L336.259 19.2271L414 164.915Z" fill="#9FBF68"/>
<g style="mix-blend-mode:multiply">
<path d="M308.726 415.819V164.915H258.522L336.259 19.2271V415.819H308.726Z" fill="#E6E6E6"/>
</g>
<path d="M252.6 5.56238C254.505 5.56238 261.785 8.14284 263.686 15.194C265.586 22.2451 263.049 33.6452 269.513 41.1069C275.976 48.5686 288.19 46.6783 288.19 46.6783C292.211 44.7655 291.8 40.1414 289.142 37.376C282.105 38.3685 277.037 35.9595 274.541 31.6557C272.045 27.3519 270.334 13.2677 264.326 9.00901C258.319 4.75035 252.6 5.56238 252.6 5.56238Z" fill="#B09374"/>
<g style="mix-blend-mode:screen">
<path d="M266.254 13.1323C268.38 19.3038 268.294 39.8527 284.055 39.2527C285.83 38.8284 287.553 38.2144 289.196 37.4211C289.185 37.408 289.173 37.3959 289.16 37.3851C282.123 38.3775 277.055 35.9685 274.559 31.6647C272.063 27.361 270.352 13.2767 264.345 9.01805C258.337 4.75938 252.609 5.57141 252.609 5.57141C256.419 5.73382 264.128 6.96089 266.254 13.1323Z" fill="#333333"/>
</g>
<g style="mix-blend-mode:multiply">
<path d="M94.9152 422C124.208 422 147.954 419.974 147.954 417.475C147.954 414.976 124.208 412.95 94.9152 412.95C65.6228 412.95 41.8766 414.976 41.8766 417.475C41.8766 419.974 65.6228 422 94.9152 422Z" fill="#E6E6E6"/>
</g>
<g style="mix-blend-mode:multiply">
<path d="M315.176 422C344.468 422 368.215 419.974 368.215 417.475C368.215 414.976 344.468 412.95 315.176 412.95C285.884 412.95 262.137 414.976 262.137 417.475C262.137 419.974 285.884 422 315.176 422Z" fill="#E6E6E6"/>
</g>
<path d="M342.456 270.375C339.215 269.618 329.367 270.727 329.096 272.5C328.825 274.273 329.195 279.836 335.776 280.621C342.357 281.406 348.982 276.421 349.691 274.305C347.709 272.325 345.196 270.961 342.456 270.375Z" fill="#3B3129"/>
<path d="M332.012 254.55C329.886 260.721 326.749 264.421 330.797 271.07C334.846 277.72 334.643 279.741 335.049 279.741C337.681 279.439 339.703 277.111 339.301 275.189C338.899 273.267 336.263 265.476 337.577 264.565C338.186 264.362 341.68 270.538 341.68 270.538L349.673 274.327C350.124 271.142 345.521 270.141 340.714 254.027C335.907 237.912 332.012 254.55 332.012 254.55Z" fill="#4A3E35"/>
<path d="M349.479 127.615C352.796 131.996 356.845 131.861 358.465 156.817C360.086 181.774 358.736 223.995 341.458 252.998C340.38 256.372 329.583 256.508 329.583 256.508C327.421 253.269 324.587 247.332 324.587 247.332C324.587 247.332 323.761 230.893 323.77 230.879C323.779 230.865 336.859 192.835 336.859 192.835L349.479 127.615Z" fill="#B6C7C3"/>
<path d="M319.211 404.889C317.288 408.232 318.399 416.325 318.399 416.325H355.951C355.347 413.393 350.386 407.302 341.476 408.331C332.567 409.359 325.711 404.523 325.711 404.523L323.765 400.463L319.211 404.889Z" fill="#5F483A"/>
<path d="M340.619 412.833C334.444 413.695 324.018 409.747 322.298 404.641C321.635 402.669 322.601 401.6 324.041 401.031L325.711 404.532C325.711 404.532 332.571 409.35 341.476 408.34C342 408.281 342.506 408.25 343.002 408.241C345.096 410.104 345.67 412.129 340.619 412.833Z" fill="#8C6C54"/>
<path d="M340.335 410.005C340.335 410.005 341.093 408.2 342.266 407.803L342.009 407.036C340.483 407.546 339.621 409.608 339.585 409.698L340.335 410.005Z" fill="#4F3B31"/>
<path d="M335.902 409.54C335.902 409.54 336.66 407.735 337.829 407.338L337.572 406.571C336.051 407.081 335.189 409.143 335.153 409.228L335.902 409.54Z" fill="#4F3B31"/>
<path d="M330.942 408.52C330.942 408.52 331.7 406.716 332.869 406.323L332.616 405.556C331.091 406.062 330.229 408.123 330.193 408.214L330.942 408.52Z" fill="#4F3B31"/>
<path d="M327.25 236.139C329.877 252.529 334.354 303.52 331.669 310.598C328.983 317.676 322.89 383.23 325.932 403.878C323.066 406.711 318.408 405.295 318.408 405.295C319.482 398.821 314.467 358.756 311.24 347.627C308.013 336.497 310.338 328.607 314.824 316.67C319.31 304.733 311.064 263.049 311.064 263.049C308.911 263.658 303.36 264.466 303.36 264.466C301.744 268.526 295.655 332.252 294.044 347.627C292.432 363.001 287.413 405.651 287.413 405.651C285.802 406.914 279.709 406.513 279.709 406.513C280.246 403.68 281.857 328.016 281.681 314.243C281.505 300.47 278.973 256.106 285.084 236.811C299.956 233.505 327.25 236.139 327.25 236.139Z" fill="#5A7F96"/>
<g style="mix-blend-mode:multiply">
<path d="M295.064 235.485C294.644 244.011 292.324 259.07 284.209 259.607L281.631 259.778C282.205 250.851 283.256 242.672 285.107 236.811C288.39 236.131 291.717 235.687 295.064 235.485Z" fill="#E6E6E6"/>
</g>
<g style="mix-blend-mode:multiply">
<path d="M327.25 236.139C327.99 240.772 328.884 248.175 329.719 256.571C326.347 258.375 324.961 246.244 324.587 235.914C326.27 236.044 327.25 236.139 327.25 236.139Z" fill="#E6E6E6"/>
</g>
<g style="mix-blend-mode:multiply">
<path d="M285.545 406.314C286.547 399.141 294.698 340.35 295.023 323.757C291.363 326.185 288.113 324.159 288.307 323.757C288.501 323.356 293.484 323.555 295.023 320.861C296.562 318.168 299.956 267.217 301.27 263.608C301.866 263.067 315.713 260.775 318.945 258.344C317.928 260.379 316.212 261.98 314.111 262.855C314.111 262.855 318.408 301.3 321.937 313.643C325.467 325.986 318.778 318.903 317.514 316.07C316.25 313.237 311.064 332.261 314.467 348.448C317.871 364.634 320.024 399.236 320.561 405.565L320.042 405.606C319.489 405.554 318.942 405.453 318.408 405.304C319.482 398.83 314.467 358.765 311.24 347.636C308.013 336.506 310.338 328.616 314.824 316.679C319.31 304.742 311.064 263.058 311.064 263.058C308.911 263.667 303.36 264.475 303.36 264.475C301.744 268.535 295.655 332.261 294.044 347.636C292.432 363.01 287.413 405.66 287.413 405.66C286.848 406.016 286.209 406.24 285.545 406.314Z" fill="#E6E6E6"/>
</g>
<path d="M273.701 416.325H292.527C292.73 411.872 291.11 404.69 282.597 404.893C274.085 405.096 273.701 416.325 273.701 416.325Z" fill="#5F483A"/>
<path d="M276.441 120.294C275.024 123.028 253.665 133.548 253.665 133.548L269.052 213.678C270.858 222.781 284.795 237.768 284.795 237.768C297.551 241.611 324.005 240.926 327.647 238.796C338.886 227.365 354.277 181.368 353.604 155.739C352.932 130.11 349.019 127.007 349.019 127.007L339.991 115.634L276.441 120.294Z" fill="#CEE0DC"/>
<g style="mix-blend-mode:multiply">
<path d="M324.636 136.16L325.322 136.079L327.651 126.97L317.884 118.597L315 127.48L320.565 136.634L321.323 136.548C322.186 144.073 312.468 205.886 312.468 205.886C313.371 207.1 321.378 232.503 321.378 232.503C326.031 226.941 332.612 207.312 332.612 207.312C333.018 199.309 324.636 136.16 324.636 136.16Z" fill="#E6E6E6"/>
</g>
<path d="M316.219 127.476L321.784 136.634L326.546 136.074L328.87 126.97L319.103 118.593L316.219 127.476Z" fill="#CF5247"/>
<g style="mix-blend-mode:multiply">
<path d="M331.623 133.395C331.623 133.395 340.759 127.34 344.5 121.322L339.987 115.634L276.454 120.294C276.242 120.704 275.583 121.286 274.622 121.976C289.702 137.22 312.062 136.273 314.58 136.074C314.58 136.074 320.502 123.578 321.26 122.617C321.242 122.617 330.509 132.429 331.623 133.395Z" fill="#E6E6E6"/>
</g>
<path d="M333.176 103.701C339.806 106.133 345.475 116.5 345.475 116.5C344.058 123.379 331.149 131.928 331.149 131.928C330.039 130.967 320.768 121.155 320.768 121.155C320.006 122.116 314.088 134.612 314.088 134.612C311.556 134.815 288.984 135.776 273.918 120.294C274.022 118.679 275.637 118.489 276.549 117.059C277.461 115.629 277.763 112.909 277.763 112.909L281.613 103.701L286.786 102.497L333.176 103.701Z" fill="#F0FFFC"/>
<path d="M322.705 47.1115C324.772 50.6889 338.439 48.8664 341.729 45.3792C345.877 51.4468 342.334 64.6018 333.072 63.2845C323.81 61.9672 323.499 59.2875 323.499 59.2875L322.705 47.1115Z" fill="#786451"/>
<path d="M341.729 45.3792C338.439 48.8664 324.772 50.6889 322.705 47.1115L323.201 54.6363C328.956 55.507 341.639 51.8348 341.729 45.3792Z" fill="#4A3E35"/>
<path d="M284.944 104.919L282.426 111.492C282.588 114.506 300.543 127.48 321.396 119.585C333.849 114.325 336.29 110.482 336.29 110.482C335.478 107.549 333.456 104.716 333.357 96.3161C333.257 87.9161 331.551 72.1672 326.216 64.4619C320.881 56.7566 284.944 104.919 284.944 104.919Z" fill="#40352C"/>
<path d="M299.821 38.6483C295.032 38.716 293.479 37.6378 290.171 37.2949C286.863 36.9521 280.792 40.4528 278.567 44.8514C276.342 49.2499 270.537 54.4288 268.104 55.2273C265.672 56.0258 263.519 58.4619 264.042 61.092C264.566 63.7221 266.543 65.477 264.381 69.0499C262.219 72.6229 255.674 80.3282 250.208 80.7206C244.742 81.1131 243.46 82.1372 242.179 85.9131C240.897 89.6891 241.574 92.1839 244.408 96.0275C247.243 99.8711 246.214 107.306 249.536 108.037C252.375 108.673 253.074 105.082 259.118 106.746C259.217 107.834 257.448 110.513 257.547 111.375C257.646 112.237 258.815 114.005 266.407 115.119C273.999 116.234 278.251 115.268 279.045 114.217C279.84 113.166 279.686 107.775 285.761 105.885C291.837 103.994 295.948 103.796 305.463 105.077C314.977 106.358 325.002 99.8485 325.909 95.4996C326.816 91.1508 325.007 84.7763 321.053 77.5898C317.099 70.4033 325.833 70.6108 326.139 62.2514C326.446 53.892 323.549 45.1085 317.677 42.4243C311.804 39.7401 299.821 38.6483 299.821 38.6483Z" fill="#4A3E35"/>
<path d="M87.5582 404.889C89.4809 408.232 88.3706 416.325 88.3706 416.325H50.8179C51.4228 413.393 56.3831 407.302 65.2884 408.331C74.1936 409.359 81.0587 404.523 81.0587 404.523L83.004 400.463L87.5582 404.889Z" fill="#5F483A"/>
<path d="M66.1505 412.833C72.325 413.695 82.7512 409.747 84.4709 404.641C85.1344 402.669 84.1685 401.6 82.7287 401.031L81.0587 404.532C81.0587 404.532 74.1981 409.35 65.2884 408.34C64.7693 408.281 64.2638 408.25 63.7673 408.241C61.673 410.104 61.0998 412.129 66.1505 412.833Z" fill="#8C6C54"/>
<path d="M66.4348 410.005C66.4348 410.005 65.6765 408.2 64.503 407.803L64.7603 407.036C66.2859 407.546 67.1479 409.608 67.1841 409.698L66.4348 410.005Z" fill="#4F3B31"/>
<path d="M70.8671 409.54C70.8671 409.54 70.1088 407.735 68.9398 407.338L69.1926 406.571C70.7182 407.081 71.5802 409.143 71.6163 409.228L70.8671 409.54Z" fill="#4F3B31"/>
<path d="M75.8275 408.52C75.8275 408.52 75.0692 406.716 73.9002 406.323L74.153 405.556C75.6785 406.062 76.5406 408.123 76.5767 408.214L75.8275 408.52Z" fill="#4F3B31"/>
<path d="M78.6846 236.139C75.7146 252.529 70.655 303.52 73.6926 310.598C76.7302 317.676 83.6224 383.23 80.1695 403.878C83.4102 406.711 88.673 405.295 88.673 405.295C87.4589 398.821 93.1279 358.756 96.7703 347.627C100.413 336.497 97.7813 328.607 92.7081 316.67C87.6349 304.733 96.9599 263.049 96.9599 263.049C99.3882 263.658 105.667 264.466 105.667 264.466C107.472 268.526 114.369 332.252 116.192 347.627C118.016 363.001 123.685 405.651 123.685 405.651C125.49 406.914 132.387 406.513 132.387 406.513C131.782 403.68 129.958 328.016 130.162 314.243C130.365 300.47 133.195 256.106 126.316 236.811C109.526 233.505 78.6846 236.139 78.6846 236.139Z" fill="#5A7F96"/>
<g style="mix-blend-mode:multiply">
<path d="M115.077 235.485C115.529 244.011 118.169 259.07 127.341 259.607L130.252 259.778C129.606 250.851 128.419 242.672 126.329 236.811C122.611 236.13 118.852 235.687 115.077 235.485Z" fill="#E6E6E6"/>
</g>
<g style="mix-blend-mode:multiply">
<path d="M78.6845 236.139C77.845 240.772 76.8385 248.175 75.8952 256.571C79.7046 258.375 81.2708 246.244 81.6906 235.914C79.7904 236.044 78.6845 236.139 78.6845 236.139Z" fill="#E6E6E6"/>
</g>
<path d="M74.6359 106.638C64.3811 107.31 57.3626 111.357 57.3626 111.357C50.5923 126.465 50.5923 165.858 55.7422 178.534C60.8922 191.211 58.7121 205.11 58.7121 205.11C56.5501 214.282 78.6845 236.139 78.6845 236.139C84.6244 238.968 122.953 239.509 126.329 236.811C136.855 224.13 141.982 209.428 141.982 209.428L161.689 165.713L149.123 120.79C141.576 116.477 126.46 109.462 126.46 109.462L74.6359 106.638Z" fill="#E0F2EE"/>
<path d="M161.689 165.713L149.123 120.79C141.576 116.477 126.46 109.462 126.46 109.462L102.087 108.109C100.684 114.384 95.344 138.307 95.168 139.187C94.9649 140.197 90.9162 166.3 90.3114 166.706C89.7066 167.112 87.3054 179.049 87.3054 179.049L91.3225 211.02C91.0426 217.368 94.7934 230.798 97.0908 238.35C109.729 238.855 124.321 238.404 126.348 236.784C136.873 224.103 142.001 209.401 142.001 209.401L161.689 165.713Z" fill="#CEE0DC"/>
<g style="mix-blend-mode:multiply">
<path d="M111.715 119.012L107.801 102.014L94.0351 113.143L97.1404 126.059L97.831 126.208L80.2688 168.519L82.9679 192.935L100.643 170.676L102.132 127.119L103.347 127.376L111.715 119.012Z" fill="#E6E6E6"/>
</g>
<path d="M92.4509 112.232L95.5562 125.148L101.762 126.465L110.13 118.101L106.217 101.103L92.4509 112.232Z" fill="#90AB5C"/>
<g style="mix-blend-mode:multiply">
<path d="M74.6359 106.638C73.4714 106.715 72.352 106.836 71.2733 106.99L71.0567 107.31C71.3365 112.841 80.6254 121.882 80.6254 121.882C85.8476 120.979 98.4494 111.294 102.426 108.158L74.6359 106.638Z" fill="#E6E6E6"/>
</g>
<g style="mix-blend-mode:multiply">
<path d="M112.238 128.22C113.768 128.085 125.355 119.585 125.941 117.97C126.253 117.113 122.001 112.846 117.912 109.002L103.92 108.24C105.54 113.644 112.238 128.22 112.238 128.22Z" fill="#E6E6E6"/>
</g>
<path d="M76.9333 100.701C74.9067 100.769 72.343 104.883 72.343 104.883C72.6138 110.414 81.6545 119.45 81.6545 119.45C87.7297 118.372 103.653 107.175 103.653 107.175C104.461 111.357 112.423 125.793 112.423 125.793C113.913 125.658 125.188 117.158 125.756 115.539C126.325 113.919 110.943 100.029 110.943 100.029C110.943 100.029 88.1314 98.6755 87.5943 98.6755C87.0572 98.6755 76.9333 100.701 76.9333 100.701Z" fill="#F0FFFC"/>
<path d="M96.2467 125.297L78.6846 167.608L81.3837 192.023L99.0542 169.764L100.544 126.208L96.2467 125.297Z" fill="#9FBF68"/>
<path d="M57.3626 111.357C54.6545 112.033 36.4423 141.889 30.2317 158.662C24.0211 175.435 19.5707 185.955 20.1124 189.059C20.654 192.163 27.9388 205.516 67.3465 209.698C79.6459 207.064 92.4509 203.157 92.4509 203.157L88.2668 177.185C79.5376 175.322 68.8315 174.357 68.8315 174.357L52.998 165.862C51.3325 155.197 54.2573 116.351 57.3626 111.357Z" fill="#CEE0DC"/>
<path d="M53.1786 164.103C46.8596 165.298 35.3636 171.253 32.6645 189.867C42.1113 194.59 59.2312 188.008 70.33 174.501C70.7227 171.524 66.656 168.222 61.1404 167.734C55.6249 167.247 54.2889 163.909 53.1786 164.103Z" fill="#6E5442"/>
<g style="mix-blend-mode:multiply">
<path d="M50.7503 177.74C48.9448 182.18 38.1124 191.319 38.1124 191.319C42.987 189.867 51.9644 181.331 50.7503 177.74Z" fill="#E3E3E3"/>
</g>
<g style="mix-blend-mode:multiply">
<path d="M46.16 176.378C42.2467 178.183 34.1224 190.485 34.1224 190.485C33.3325 186.231 43.6595 173.834 46.16 176.378Z" fill="#E3E3E3"/>
</g>
<path d="M149.123 120.799C144.343 123.434 149.024 169.16 149.024 169.16C145.562 170.965 146.198 176.035 146.198 176.035C143.332 177.659 133.614 181.101 133.614 181.101L144.14 215.297C147.584 216.105 170.865 209.022 176.331 204.975C181.796 200.929 185.642 202.142 186.454 199.512C187.267 196.882 187.465 186.159 181.395 174.019C175.324 161.879 171.271 156.614 164.388 146.094C157.505 135.573 155.117 119.387 149.123 120.799Z" fill="#E0F2EE"/>
<path d="M88.2668 177.186C92.8842 177.542 146.198 176.035 146.198 176.035L94.2924 203.22L85.3511 189.091L88.2668 177.186Z" fill="#6E5442"/>
<path d="M80.2733 174.623C82.9814 178.065 83.6856 205.981 83.6856 205.981L95.3801 202.043C97.0727 195.975 93.6334 177.136 92.9248 176.035C92.2162 174.934 91.9769 176.432 89.6164 176.035C87.2558 175.638 88.4699 174.93 86.0416 174.623C83.6133 174.316 84.2994 175.498 82.4985 175.435C80.6976 175.372 80.2733 174.623 80.2733 174.623Z" fill="#F0FFFC"/>
<g style="mix-blend-mode:multiply">
<path d="M83.9157 175.025C83.5573 175.312 83.1062 175.458 82.6474 175.435C85.2653 180.722 85.4413 192.533 85.5361 192.028C85.8611 186.353 84.4799 178.088 83.9157 175.025Z" fill="#E6E6E6"/>
</g>
<g style="mix-blend-mode:multiply">
<path d="M89.6164 176.035C89.0544 175.988 88.5151 175.792 88.0547 175.467C89.6344 177.659 90.3114 185.653 90.3114 185.45C90.9162 182.049 90.5552 177.7 90.3837 176.098C90.1266 176.099 89.8699 176.077 89.6164 176.035Z" fill="#E6E6E6"/>
</g>
<path d="M67.3465 209.699C73.6926 212.802 111.751 220.49 133.614 216.308C131.457 210.375 128.965 183.258 128.965 183.258C118.769 184.065 113.371 201.47 67.3465 209.699Z" fill="#5F483A"/>
<path d="M124.452 179.076C122.425 187.71 128.907 221.031 132.82 223.323C136.733 225.614 136.192 221.568 138.083 222.109C139.974 222.65 143.346 221.838 144.158 219.547C144.97 217.255 150.928 221.162 153.334 219.276C142.402 205.246 138.083 180.186 137.275 177.74C136.467 175.295 134.436 177.948 130.793 180.447C127.151 182.946 124.452 179.076 124.452 179.076Z" fill="#F0FFFC"/>
<g style="mix-blend-mode:multiply">
<path d="M130.365 180.709C129.735 181.09 129.015 181.294 128.279 181.3C127.467 188.022 130.468 201.465 133.614 207.402C129.417 195.01 129.787 185.329 130.365 180.709Z" fill="#E6E6E6"/>
</g>
<g style="mix-blend-mode:multiply">
<path d="M137.663 200.392C137.663 200.392 139.712 212.861 144.185 219.47C144.501 218.753 145.386 218.712 146.51 218.906C142.989 213.024 140.028 206.825 137.663 200.392Z" fill="#E6E6E6"/>
</g>
<g style="mix-blend-mode:multiply">
<path d="M139.757 222.253C138.033 219.826 134.892 215.283 132.373 210.975C132.373 210.975 132.603 215.554 137.577 222.077C137.741 222.047 137.91 222.056 138.069 222.104C138.619 222.249 139.19 222.299 139.757 222.253Z" fill="#E6E6E6"/>
</g>
<g style="mix-blend-mode:multiply">
<path d="M100.48 220.81C100.48 221.256 100.303 221.685 99.9876 222.001C99.672 222.318 99.2438 222.496 98.7969 222.497C98.3492 222.497 97.9198 222.319 97.6033 222.003C97.2867 221.686 97.1088 221.257 97.1088 220.81C97.1088 220.362 97.2867 219.933 97.6033 219.617C97.9198 219.3 98.3492 219.123 98.7969 219.123C99.2438 219.124 99.672 219.302 99.9876 219.618C100.303 219.935 100.48 220.363 100.48 220.81Z" fill="#E6E6E6"/>
</g>
<g style="mix-blend-mode:multiply">
<path d="M101.884 230.929C101.884 231.375 101.707 231.803 101.391 232.119C101.075 232.434 100.647 232.611 100.201 232.611C99.9791 232.612 99.7597 232.569 99.555 232.485C99.3502 232.4 99.1641 232.276 99.0072 232.12C98.8504 231.964 98.726 231.778 98.6411 231.574C98.5562 231.369 98.5126 231.15 98.5126 230.929C98.512 230.707 98.5552 230.487 98.6398 230.282C98.7245 230.077 98.8488 229.891 99.0056 229.734C99.1625 229.578 99.3488 229.453 99.5539 229.369C99.759 229.284 99.9788 229.241 100.201 229.241C100.422 229.241 100.641 229.285 100.846 229.37C101.05 229.455 101.236 229.579 101.393 229.736C101.549 229.893 101.673 230.079 101.757 230.283C101.842 230.488 101.885 230.707 101.884 230.929Z" fill="#E6E6E6"/>
</g>
<path d="M118.431 416.325H137.261C137.46 411.872 135.844 404.69 127.332 404.893C118.819 405.096 118.431 416.325 118.431 416.325Z" fill="#5F483A"/>
<g style="mix-blend-mode:multiply">
<path d="M125.806 406.314C124.673 399.141 115.461 340.35 115.073 323.757C119.207 326.185 122.881 324.159 122.66 323.757C122.439 323.356 116.792 323.555 115.073 320.861C113.353 318.168 109.526 267.217 108.041 263.608C107.364 263.067 91.7106 260.775 88.0637 258.344C88.7407 259.76 90.8305 261.921 93.5296 262.855C93.5296 262.855 88.673 301.3 84.6831 313.643C80.6931 325.986 88.2668 318.903 89.684 316.07C91.1013 313.237 96.9734 332.261 93.1279 348.448C89.2823 364.634 86.8495 399.236 86.2447 405.565L86.827 405.606C87.4494 405.554 88.0667 405.453 88.673 405.304C87.4589 398.83 93.1279 358.765 96.7703 347.636C100.413 336.506 97.7813 328.616 92.7081 316.679C87.6349 304.742 96.9599 263.058 96.9599 263.058C99.3882 263.667 105.667 264.475 105.667 264.475C107.472 268.535 114.369 332.261 116.192 347.636C118.016 363.01 123.685 405.66 123.685 405.66C124.339 406.023 125.061 406.246 125.806 406.314Z" fill="#E6E6E6"/>
</g>
<path d="M298.607 0C300.331 0.812033 305.797 6.2752 304.474 13.4572C303.152 20.6392 295.971 29.8467 298.607 39.3565C301.243 48.8663 313.082 52.4077 313.082 52.4077C317.537 52.4077 319.157 48.0588 317.943 44.4182C311.173 42.2934 307.616 37.94 307.214 32.9821C306.812 28.0242 311.312 14.5715 307.72 8.16995C304.127 1.76842 298.607 0 298.607 0Z" fill="#B09374"/>
<path d="M277.754 55.2408C277.926 57.4017 279.442 60.6543 280.963 61.0739C282.484 61.4934 292.365 57.334 293.412 57.2979C294.459 57.2618 299.248 59.2874 299.248 59.2874C298.101 58.5791 294.558 54.6002 293.75 54.2302C292.942 53.8603 286.529 56.4543 283.288 56.3866C281.387 56.3591 279.509 55.9702 277.754 55.2408Z" fill="#2B231E"/>
<path d="M285.906 65.0302C285.059 64.3716 284.417 63.486 284.055 62.4768C284.89 62.9821 285.576 63.0317 287.801 62.8061C290.027 62.5806 294.991 66.4513 294.991 66.4513L285.906 65.0302Z" fill="#2B231E"/>
<path d="M285.703 63.6409C285.251 65.8965 285.373 68.7747 287.449 70.4439C291.85 70.7958 296.86 68.8514 296.86 68.8514C296.914 67.2544 292.157 63.6409 285.703 63.6409Z" fill="white"/>
<g style="mix-blend-mode:screen">
<path d="M291.976 67.94C292.62 67.94 293.141 67.5825 293.141 67.1415C293.141 66.7005 292.62 66.343 291.976 66.343C291.333 66.343 290.812 66.7005 290.812 67.1415C290.812 67.5825 291.333 67.94 291.976 67.94Z" fill="#8A8A8A"/>
</g>
<g style="mix-blend-mode:multiply">
<path d="M285.703 63.6409C285.575 64.2677 285.505 64.905 285.495 65.5446C287.246 63.6273 295.876 67.5025 296.86 68.8514C296.914 67.2544 292.157 63.6409 285.703 63.6409Z" fill="#BDBDBD"/>
</g>
<path d="M281.74 80.2109C279.239 78.1312 272.627 81.3432 265.338 82.3538C258.048 83.3643 256.229 79.0515 256.405 77.9102C254.383 79.4575 252.235 80.5899 250.226 80.7387C244.76 81.1403 243.478 82.1553 242.197 85.9313C240.915 89.7072 241.592 92.2019 244.426 96.0456C247.261 99.8892 246.232 107.324 249.554 108.055C252.393 108.691 253.092 105.1 259.136 106.764L261.6 107.779L265.473 110.08L269.057 111.434L272.586 111.614L275.38 111.005L277.881 109.652L280.462 107.324L282.051 105.303L283.744 101.635C283.744 101.635 280.796 97.0606 280.864 92.8606C280.932 88.6606 284.231 82.2906 281.74 80.2109Z" fill="#786451"/>
<path d="M271.562 111.867C269.69 111.856 267.842 111.44 266.145 110.648C265.078 110.128 264.037 109.555 263.027 108.93C261.645 108.113 260.409 107.125 259.113 106.764C260.577 107.147 261.978 107.737 263.275 108.515C264.241 109.092 265.238 109.683 266.353 110.211C268.095 111.032 274.193 113.292 279.618 107.829C282.114 105.312 282.728 103.597 283.27 102.082C283.811 100.566 284.24 99.3747 286.307 97.9401C290.401 95.1251 293.628 95.1115 296.237 95.4679C297.375 95.6258 298.602 94.9807 299.397 93.8348C299.747 93.3732 299.962 92.8227 300.016 92.2455C300.071 91.6684 299.962 91.0875 299.704 90.5687L300.123 90.3296C300.755 91.4168 300.629 92.8649 299.798 94.1055C299.424 94.7148 298.889 95.2093 298.252 95.5348C297.615 95.8603 296.901 96.0041 296.188 95.9506C293.664 95.6033 290.55 95.6168 286.592 98.3371C284.655 99.6905 284.249 100.805 283.735 102.248C283.22 103.692 282.548 105.578 279.97 108.172C277.127 111.041 274.094 111.867 271.562 111.867Z" fill="#241E19"/>
<path d="M301.775 93.0275C301.69 91.0741 299.582 89.9598 298.282 90.6997C297.979 87.9207 302.534 90.6862 301.775 93.0275Z" fill="#241E19"/>
<g style="mix-blend-mode:multiply">
<path d="M274.18 87.7176C272.528 87.65 269.666 88.9312 268.14 91.3944C266.615 93.8575 262.273 93.65 262.273 93.65C262.002 94.629 263.221 97.4936 266.457 96.8079C269.693 96.1222 269.594 94.1462 270.068 91.7192C270.542 89.2921 272.695 87.7176 274.18 87.7176Z" fill="#9E9E9E"/>
</g>
<g style="mix-blend-mode:multiply">
<path d="M244.295 84.2573C245.198 84.5506 246.263 86.143 246.281 88.3716C246.299 90.6002 248.624 91.3491 248.624 91.3491C248.461 92.1656 246.936 94.1371 245.464 92.937C243.993 91.737 244.666 90.2303 245.18 88.2318C245.695 86.2333 245.067 84.5686 244.295 84.2573Z" fill="#9E9E9E"/>
</g>
<path d="M322.547 136.548C323.409 144.073 313.691 205.886 313.691 205.886C314.594 207.1 322.601 232.503 322.601 232.503C327.254 226.941 333.835 207.312 333.835 207.312C334.237 199.318 325.86 136.169 325.86 136.169L322.547 136.548Z" fill="#F26055"/>
<path d="M290.41 289.959C292.839 290.861 300.837 312.2 303.468 320.455C306.099 328.711 297.293 334.679 297.293 334.679C297.293 334.679 287.07 326.446 286.966 325.707C286.863 324.967 283.121 298.129 283.121 298.129L290.41 289.959Z" fill="#543F33"/>
<path d="M236.658 314.545L232.208 326.482C238.18 338.117 276.138 343.278 297.293 334.679C292.328 321.222 289.083 303.231 288.939 298.769C288.794 294.308 236.658 314.545 236.658 314.545Z" fill="#694E3F"/>
<path d="M290.41 289.959C292.536 285.511 286.086 272.248 280.336 271.255C274.586 270.263 264.936 273.556 264.764 273.637C264.718 273.659 264.678 273.692 264.648 273.734C264.619 273.776 264.601 273.825 264.597 273.876V273.723C262.219 273.822 256.802 278.428 255.286 288.899C253.11 289.201 249.314 286.675 247.996 287.482C246.679 288.29 237.57 300.939 234.84 315.204C239.353 320.667 273.809 329.013 291.927 322.941C287.273 312.52 288.79 291.984 290.41 289.959ZM286.529 289.959C281.704 293.536 263.315 293.839 259.501 289.959C259.975 283.589 262.909 278.681 265.035 278.121C265.035 278.121 281.568 277.616 283.121 278.631C284.674 279.646 287.169 286.165 286.529 289.959Z" fill="#8C6A55"/>
<path d="M249.064 315.595L246.663 315.2C246.154 315.117 245.673 315.461 245.59 315.97L244.234 324.21C244.15 324.719 244.495 325.199 245.004 325.283L247.404 325.678C247.914 325.761 248.394 325.417 248.478 324.908L249.834 316.668C249.918 316.159 249.573 315.679 249.064 315.595Z" fill="#CF9B7E"/>
<path d="M272.501 319.057L270.1 318.663C269.591 318.579 269.111 318.924 269.027 319.432L267.671 327.672C267.587 328.181 267.932 328.661 268.441 328.745L270.842 329.14C271.351 329.223 271.832 328.879 271.915 328.37L273.271 320.13C273.355 319.621 273.01 319.141 272.501 319.057Z" fill="#CF9B7E"/>
<g style="mix-blend-mode:multiply">
<path d="M164.388 146.094C157.505 135.574 155.117 119.387 149.123 120.799C141.576 116.486 126.46 109.471 126.46 109.471C129.66 111.677 148.292 121.882 148.292 121.882C149.989 120.718 156.868 131.572 158.484 139.927C160.1 148.282 182.645 183.551 183.588 190.268C184.532 196.986 182.51 201.096 179.946 200.392C177.382 199.688 159.369 212.378 148.468 211.629C148.532 213.479 145.48 215.92 144.172 214.787C142.863 213.655 141.581 214.526 142.086 215.604C142.592 216.682 138.34 220.214 137.816 219.448C137.293 218.681 136.228 218.545 136.503 220.58C136.778 222.614 132.63 223.521 132.03 222.497C131.43 221.473 131.66 225.84 131.66 225.84L133.781 226.223C134.242 225.466 134.683 224.714 135.104 223.968C136.598 223.747 136.684 221.676 138.069 222.073C139.96 222.61 143.332 221.802 144.144 219.511C144.957 217.219 150.915 221.126 153.32 219.24C152.154 217.725 151.079 216.142 150.102 214.499C158.389 212.622 172.273 207.944 176.331 204.939C181.796 200.879 185.642 202.106 186.454 199.476C187.267 196.846 187.465 186.123 181.395 173.983C175.324 161.843 171.271 156.614 164.388 146.094Z" fill="#E6E6E6"/>
</g>
<path d="M127.038 33.3882C123.098 33.0679 121.852 35.4137 116.657 34.3987C111.462 33.3837 98.2959 29.6438 90.4017 35.8152C82.5075 41.9867 77.2447 56.6258 76.1299 65.292C75.015 73.9582 67.5271 89.4365 63.176 91.7643C68.4388 99.1493 77.4478 98.644 77.4478 98.644C74.8164 99.8576 72.5868 99.253 74.9157 100.769C77.2447 102.285 83.8255 104.716 87.671 104.409C88.2758 105.93 89.5938 106.534 93.6424 105.727C97.6911 104.919 108.623 101.175 115.759 107.951C122.895 114.727 123.4 118.679 123.504 117.262C123.608 115.846 122.488 112.2 122.999 112.809C124.614 115.643 127.652 123.434 127.061 125.152C128.478 117.262 128.275 111.898 132.829 106.029C137.383 100.16 141.901 94.2997 141.901 94.2997L144.158 63.1988C141.833 60.6003 140.033 59.8243 139.771 52.7236C139.509 45.6228 139.486 34.3987 127.038 33.3882Z" fill="#5F483A"/>
<path d="M139.897 52.7279C139.766 49.2091 139.699 44.6753 138.146 40.8722C135.916 40.0873 133.42 39.2617 129.439 41.7745C128.364 42.4582 127.132 42.8581 125.86 42.937C124.587 43.0159 123.316 42.7712 122.163 42.2256C113.163 37.8858 103.816 38.0978 94.8927 43.3941C84.6695 49.4663 87.7071 62.4498 88.7182 66.3295C89.7292 70.2092 80.0115 85.0784 77.8857 85.4844C84.0602 88.719 90.5236 86.1927 90.5236 86.1927C86.4614 91.8589 89.3049 98.1973 89.7111 96.492C90.1174 94.7867 92.0401 90.9476 92.2432 93.5777C92.4463 96.2078 96.1881 99.9522 98.2146 99.3431C100.241 98.7341 96.4092 95.3642 99.2257 96.492C102.042 97.6198 112.283 101.973 116.332 100.76C120.381 99.5461 123.418 109.561 125.847 109.462C128.275 109.363 128.045 100.678 132.73 100.439C134.44 100.358 136.137 100.173 137.604 99.9882C140.145 96.7085 142.01 94.2905 142.01 94.2905L144.266 63.1896C141.96 60.6001 140.163 59.8287 139.897 52.7279Z" fill="#7D5D4C"/>
<path d="M130.915 53.7566C129.972 52.6108 125.991 51.6679 123.761 55.3085C121.532 58.9491 125.923 63.4694 123.427 66.7762C120.931 70.083 118.634 72.6409 111.412 73.1823C104.191 73.7236 102.913 82.5567 103.383 84.4605C102.029 84.1898 102.029 87.0906 103.653 89.45C105.278 91.8094 112.631 94.444 113.98 94.5117C119.645 92.8244 125.517 91.0019 126.664 92.2154C127.81 93.429 127.679 95.3192 128.352 95.7252C129.024 96.1312 138.281 98.1523 142.727 93.5643C147.173 88.9763 144.885 88.7778 147.178 88.9808C149.47 89.1838 149.678 83.9868 148.983 82.6379C151.344 82.3041 152.955 82.3673 152.621 77.7161C152.401 74.9163 151.096 72.3131 148.983 70.4619L144.122 63.2168C142.023 63.1401 128.893 62.5266 130.915 53.7566Z" fill="#A67D64"/>
<g style="mix-blend-mode:multiply">
<path d="M132.125 48.0633C130.441 49.9129 130.509 56.0528 130.911 57.0859C131.312 58.1189 133.276 59.0573 135.772 58.4392C138.268 57.8212 140.145 56.0979 139.748 52.737C139.351 49.3761 138.773 45.8076 138.773 45.8076L132.125 48.0633Z" fill="#E6E6E6"/>
</g>
<g style="mix-blend-mode:multiply">
<path d="M108.379 48.2573C106.082 48.8348 102.403 51.8032 102.083 52.1055C100.954 54.2979 101.934 60.8574 104.971 61.9717C108.009 63.0859 116.206 63.325 118.837 62.1205C121.468 60.916 118.837 49.7551 118.837 49.7551L108.379 48.2573Z" fill="#E6E6E6"/>
</g>
<path d="M120.864 47.1475C120.101 48.5008 117.37 51.749 115.799 51.8031C114.229 51.8573 110.081 48.8663 107.449 49.4753C104.818 50.0843 102.083 52.1054 102.083 52.1054C102.083 50.9415 103.807 48.4648 106.691 47.143C109.575 45.8211 112.107 45.7896 115.294 46.6918C117.096 47.2402 118.996 47.3955 120.864 47.1475Z" fill="#544033"/>
<g style="mix-blend-mode:multiply">
<path d="M121.771 46.0738C122.479 46.9444 121.875 49.4753 121.437 50.1339C123.933 48.4963 123.053 45.5414 121.771 46.0738Z" fill="#BDBDBD"/>
</g>
<path d="M116.386 55.4482C116.964 55.4167 117.74 54.4287 117.74 54.4287C116.449 54.2031 114.098 53.346 111.34 54.1039C108.582 54.8618 106.213 58.7956 106.213 58.7956L116.386 55.4482Z" fill="#544033"/>
<path d="M105.441 60.2349C106.389 57.3657 111.76 53.0845 116.17 54.8214C116.946 56.6259 117.072 60.5913 115.632 61.7372C111.146 63.0996 107.603 62.3597 105.441 60.2349Z" fill="white"/>
<path d="M137.564 53.0168C138.023 52.8893 138.441 52.6453 138.778 52.3085C137.798 52.1732 136.787 50.3867 135.618 50.116C134.449 49.8454 132.044 49.8138 130.929 53.7566C130.983 54.3657 137.564 53.0168 137.564 53.0168Z" fill="#544033"/>
<path d="M130.915 53.7565C131.367 52.6107 132.757 50.4362 134.427 50.7385C136.097 51.0407 138.697 53.928 138.584 55.0377C138.471 56.1475 133.935 58.1686 130.911 57.0814C130.771 56.3821 130.464 54.6543 130.915 53.7565Z" fill="white"/>
<g style="mix-blend-mode:screen">
<path d="M112.392 58.6964C112.364 59.0225 112.209 59.3245 111.959 59.5366C111.71 59.7487 111.387 59.8537 111.06 59.8287C110.897 59.8442 110.732 59.8271 110.575 59.7784C110.418 59.7298 110.273 59.6505 110.147 59.5451C110.021 59.4398 109.917 59.3106 109.841 59.1649C109.766 59.0192 109.72 58.8599 109.706 58.6964C109.72 58.5332 109.767 58.3745 109.842 58.2293C109.918 58.0841 110.022 57.9554 110.148 57.8505C110.274 57.7457 110.419 57.6668 110.576 57.6184C110.732 57.57 110.897 57.5531 111.06 57.5686C111.386 57.5435 111.708 57.6479 111.958 57.8591C112.207 58.0702 112.363 58.3711 112.392 58.6964Z" fill="#8A8A8A"/>
</g>
<g style="mix-blend-mode:multiply">
<path d="M135.438 89.7432C136.142 89.3192 142.438 88.841 145.539 89.9237C145.873 89.2741 145.9 89.0214 146.198 88.9402C146.198 88.9402 138.069 88.1733 135.438 89.7432Z" fill="#BDBDBD"/>
</g>
<g style="mix-blend-mode:multiply">
<path d="M149.123 82.6108C148.87 82.471 148.617 82.092 148.347 81.898C147.878 81.5413 147.376 81.2301 146.848 80.9687C149.281 80.2198 149.687 76.1371 147.976 72.8484C148.387 74.7296 148.757 79.7101 146.622 80.8559C145.052 80.1883 142.614 79.9176 138.011 81.3071C135.162 82.1732 132.45 83.5627 129.827 84.9161C125.418 87.1717 121.252 89.3236 117.826 87.9838C114.4 86.6439 114.721 83.5176 114.739 83.3868H114.694C115.049 83.3433 115.41 83.3509 115.763 83.4093C115.041 81.9928 113.105 83.1567 112.437 84.28C112.744 83.865 113.488 83.5808 114.242 83.4454C114.202 84.068 114.184 87.0905 117.645 88.4394C118.438 88.7464 119.282 88.8995 120.132 88.8906C123.165 88.8906 126.528 87.1627 130.062 85.3537C132.666 84.0003 135.357 82.6469 138.187 81.7717C144.663 79.7913 146.654 81.2304 148.116 82.277C148.315 82.4213 148.807 82.7281 149.173 82.9176C149.142 82.8137 149.103 82.7126 149.055 82.6153L149.123 82.6108Z" fill="#9E9E9E"/>
</g>
<path d="M83.5456 44.0845C81.3746 48.1807 75.3129 52.8138 71.5306 50.8514C67.7482 48.889 64.1103 48.4198 62.7608 55.6379C61.4112 62.856 72.0858 65.8109 76.8385 61.2951C81.5913 56.7793 83.5456 44.0845 83.5456 44.0845Z" fill="#7D5D4C"/>
<path d="M71.5306 50.8559C67.7527 48.9025 64.1103 48.4288 62.7608 55.6469C62.4587 57.0768 62.7103 58.568 63.4649 59.8199C62.6479 56.9552 64.9363 51.3973 65.7984 52.3582C66.6605 53.3191 71.7247 60.6951 79.7904 51.8755C80.88 50.6797 81.8745 49.4006 82.7648 48.0499C83.3109 45.7356 83.5682 44.0845 83.5682 44.0845C81.3746 48.1807 75.3129 52.8138 71.5306 50.8559Z" fill="#5F483A"/>
<path d="M139.062 44.5626C137.194 43.9085 133.578 43.5295 131.674 44.5626C130.675 45.1481 129.568 45.5227 128.419 45.6634C129.837 47.6889 130.712 48.7085 133.28 48.0634C135.849 47.4183 138.57 45.8619 139.365 46.5386C139.383 45.8671 139.28 45.1979 139.062 44.5626Z" fill="#544033"/>
<g style="mix-blend-mode:multiply">
<path d="M138.516 54.5821L138.489 54.5009C138.011 53.1926 135.871 51.0001 134.427 50.7385C132.757 50.4362 131.389 52.6107 130.915 53.7565C130.723 54.2328 130.645 54.747 130.685 55.2588C131.38 53.4994 135.239 49.8452 138.521 54.5956L138.516 54.5821Z" fill="#BDBDBD"/>
</g>
<g style="mix-blend-mode:multiply">
<path d="M131.674 76.4032C132.15 76.4032 132.536 76.0175 132.536 75.5416C132.536 75.0657 132.15 74.6799 131.674 74.6799C131.197 74.6799 130.811 75.0657 130.811 75.5416C130.811 76.0175 131.197 76.4032 131.674 76.4032Z" fill="#BDBDBD"/>
</g>
<g style="mix-blend-mode:multiply">
<path d="M129.566 78.7491C129.566 78.9278 129.495 79.0992 129.369 79.226C129.243 79.3528 129.072 79.4246 128.893 79.4258C128.714 79.4258 128.541 79.3545 128.414 79.2276C128.287 79.1007 128.216 78.9286 128.216 78.7491C128.217 78.5704 128.289 78.3994 128.416 78.2735C128.543 78.1476 128.714 78.0769 128.893 78.0769C129.072 78.0769 129.243 78.1477 129.369 78.2738C129.495 78.3998 129.566 78.5708 129.566 78.7491Z" fill="#BDBDBD"/>
</g>
<g style="mix-blend-mode:multiply">
<path d="M125.756 77.2919C125.756 77.4981 125.675 77.696 125.529 77.8422C125.384 77.9884 125.186 78.0712 124.98 78.0724C124.773 78.0724 124.574 77.9901 124.428 77.8438C124.281 77.6974 124.199 77.4989 124.199 77.2919C124.199 77.0849 124.281 76.8864 124.428 76.7401C124.574 76.5937 124.773 76.5115 124.98 76.5115C125.186 76.5127 125.384 76.5954 125.529 76.7416C125.675 76.8879 125.756 77.0857 125.756 77.2919Z" fill="#BDBDBD"/>
</g>
<g style="mix-blend-mode:multiply">
<path d="M116.648 56.8063C116.58 56.1303 116.419 55.4669 116.17 54.8349C111.751 53.0845 106.389 57.3657 105.441 60.2485C107.928 57.6454 115.019 54.465 116.648 56.8063Z" fill="#BDBDBD"/>
</g>
<g style="mix-blend-mode:screen">
<path d="M133.005 55.5567C133.74 55.5567 134.337 55.0517 134.337 54.4288C134.337 53.806 133.74 53.301 133.005 53.301C132.27 53.301 131.674 53.806 131.674 54.4288C131.674 55.0517 132.27 55.5567 133.005 55.5567Z" fill="#8A8A8A"/>
</g>
<path d="M145.025 64.5205L144.122 63.2032C142.005 63.14 128.875 62.5265 130.897 53.7565C130.152 52.8543 127.526 52.0874 125.355 53.5761C124.56 57.0723 130.491 67.7912 138.57 67.1641C142.678 66.8483 144.361 65.6393 145.025 64.5205Z" fill="#B0856A"/>
<path d="M150.924 63.1851C149.155 62.3911 147.886 64.2949 146.573 63.8392C145.259 63.3836 142.019 62.3595 139.992 63.934C137.965 65.5084 138.272 69.3024 139.992 69.4558C141.712 69.6092 143.151 67.2317 143.991 67.7866C144.831 68.3415 143.436 69.3566 143.485 70.1641C143.535 70.9716 145.408 71.5175 146.722 71.5175C148.035 71.5175 147.688 73.5927 148.076 73.4889C148.464 73.3851 148.468 71.6032 149.141 71.3145C150.671 70.6693 156.155 65.5265 150.924 63.1851Z" fill="#362822"/>
<path d="M141.342 64.0424C140.109 64.4439 139.184 66.1672 140.164 67.2815C141.143 68.3958 143.504 66.5056 144.515 67.2815C145.526 68.0574 147.417 71.0935 148.225 70.8229C149.033 70.5522 151.736 68.9011 152.513 66.7086C153.289 64.5161 150.418 62.9642 148.766 63.907C147.114 64.8499 144.244 63.0995 141.342 64.0424Z" fill="#3B2B26"/>
<g style="mix-blend-mode:screen">
<path d="M151.226 65.486C151.226 66.0635 150.414 66.8394 148.699 66.8394C146.983 66.8394 145.02 66.0499 145.02 65.486C145.02 64.9221 146.78 64.9537 148.495 64.9537C150.211 64.9537 151.226 64.9086 151.226 65.486Z" fill="#2E2E2E"/>
</g>
<g style="mix-blend-mode:multiply">
<path d="M276.31 57.6499C275.836 58.9311 277.389 62.0394 279.343 62.477C274.148 63.1131 276.31 57.6499 276.31 57.6499Z" fill="#BDBDBD"/>
</g>
<g style="mix-blend-mode:screen">
<path d="M268.682 83.8515C265.392 85.0695 260.233 86.4319 257.344 83.8515C254.455 81.271 251.427 80.6665 249.906 82.3357C248.385 84.0049 250.614 89.4184 253.968 90.632C257.321 91.8455 261.054 92.6034 265.459 90.0726C269.865 87.5417 275.326 86.9147 274.771 85.0154C274.216 83.1161 271.142 82.9402 268.682 83.8515Z" fill="#1C1C1C"/>
</g>
<g style="mix-blend-mode:multiply">
<path d="M266.096 198.289L269.052 213.677C270.858 222.781 284.795 237.768 284.795 237.768C286.346 238.22 287.919 238.592 289.508 238.882C283.189 235.169 270.302 201.109 270.492 185.126C270.492 185.112 268.384 191.365 266.096 198.289Z" fill="#E6E6E6"/>
</g>
<path d="M265.509 264.213C262.625 267.957 263.704 281.613 264.606 282.709C265.509 283.805 277.109 287.766 283.112 278.613C280.634 269.708 274.816 261.632 274.536 261.321C274.256 261.01 265.509 264.213 265.509 264.213Z" fill="#4A3E35"/>
<path d="M258.053 131.346C254.699 130.782 246.805 133.602 242.824 142.521C238.843 151.44 238.098 186.091 240.933 211.047C243.767 236.004 251.192 257.18 264.552 265.408C270.627 266.893 275.213 260.554 275.213 260.554C272.92 252.863 268.601 242.478 268.601 228.718C268.601 214.959 275.89 181.101 275.89 181.101C277.082 169.774 271.101 133.399 258.053 131.346Z" fill="#E0F2EE"/>
<g style="mix-blend-mode:multiply">
<path d="M259.637 131.784C259.637 131.784 272.649 124.295 274.604 121.981C270.993 124.593 263.027 128.793 258.03 131.346C254.677 130.782 246.782 133.602 242.801 142.521C238.82 151.44 238.076 186.091 240.91 211.047C243.745 236.004 251.17 257.18 264.53 265.409C265.151 265.559 265.79 265.63 266.43 265.621C241.353 251.184 240.342 187.341 244.241 159.429C248.141 131.518 255.39 132.582 259.637 131.784Z" fill="#E6E6E6"/>
</g>
<g style="mix-blend-mode:screen">
<path d="M307.553 9.49168C310.69 16.7729 302.29 30.2436 306.438 36.1985C310.586 42.1535 314.391 42.9655 314.391 42.9655C309.918 40.6061 307.539 36.997 307.214 32.991C306.808 28.0286 311.312 14.5804 307.72 8.17889C304.127 1.77736 298.607 0.0314941 298.607 0.0314941C298.607 0.0314941 304.416 2.20594 307.553 9.49168Z" fill="#333333"/>
</g>
</g>
<defs>
<clipPath id="clip0_69_3562">
<rect width="414" height="422" fill="white"/>
</clipPath>
</defs>
</svg>
