<svg width="269" height="48" viewBox="0 0 269 48" fill="none" xmlns="http://www.w3.org/2000/svg">
<path opacity="0.7" d="M116.874 32.0544V22.0622C116.874 18.292 114.509 15.7539 110.704 15.7205C109.62 15.6493 108.537 15.875 107.568 16.3742C106.599 16.8732 105.78 17.6276 105.195 18.5584C104.662 17.6551 103.9 16.9148 102.988 16.4155C102.076 15.916 101.048 15.676 100.014 15.7205C99.1125 15.6764 98.2157 15.8718 97.4117 16.2877C96.6076 16.7036 95.9239 17.3255 95.4284 18.092V16.0936H92.0156V32.0544H95.4611V23.2147C95.4611 20.4434 96.9677 18.978 99.2997 18.978C101.632 18.978 102.712 20.4769 102.712 23.1814V32.0544H106.138V23.2147C106.138 20.4434 107.71 18.978 109.977 18.978C112.243 18.978 113.422 20.4769 113.422 23.1814V32.0544H116.874ZM167.856 16.1069H162.282V11.2708H158.836V16.1069H155.653V19.2777H158.836V26.5453C158.836 30.2491 160.243 32.454 164.28 32.454C165.786 32.459 167.263 32.0319 168.543 31.2216L167.56 28.2507C166.645 28.8053 165.606 29.1147 164.542 29.15C162.837 29.15 162.275 28.0842 162.275 26.4854V19.2777H167.849L167.856 16.1069ZM196.958 15.7073C196.126 15.6826 195.303 15.8868 194.576 16.2983C193.849 16.7098 193.243 17.3134 192.825 18.0455V16.1069H189.445V32.0544H192.858V23.1148C192.858 20.4502 193.971 19.0112 196.204 19.0112C196.936 19.0005 197.662 19.1363 198.34 19.411L199.388 16.1403C198.609 15.8565 197.786 15.7101 196.958 15.7073ZM152.96 17.3727C151.027 16.2053 148.806 15.6272 146.561 15.7073C142.59 15.7073 140.01 17.6457 140.01 20.81C140.01 23.4145 141.91 25.0132 145.421 25.5129L147.026 25.746C148.891 26.0124 149.783 26.5121 149.783 27.4114C149.783 28.6438 148.539 29.3498 146.207 29.3498C144.324 29.4106 142.479 28.8238 140.966 27.6844L139.414 30.3824C141.401 31.7955 143.782 32.5216 146.207 32.454C150.733 32.454 153.359 30.2823 153.359 27.2515C153.359 24.4471 151.289 22.9815 147.884 22.4819L146.279 22.2487C144.805 22.0489 143.619 21.7492 143.619 20.6834C143.619 19.5176 144.732 18.8182 146.606 18.8182C148.322 18.844 150.005 19.314 151.492 20.1837L152.96 17.3727ZM244.35 15.7073C243.518 15.6826 242.695 15.8868 241.968 16.2983C241.239 16.7098 240.635 17.3134 240.217 18.0455V16.1069H236.837V32.0544H240.25V23.1148C240.25 20.4502 241.363 19.0112 243.596 19.0112C244.327 19.0005 245.054 19.1363 245.732 19.411L246.78 16.1403C246.001 15.8565 245.178 15.7101 244.35 15.7073ZM200.404 24.0807C200.404 28.9168 203.718 32.454 208.769 32.454C210.817 32.5571 212.828 31.8774 214.408 30.5488L212.771 27.7443C211.591 28.658 210.154 29.1602 208.671 29.1765C205.946 29.1765 203.948 27.1382 203.948 24.074C203.948 21.0098 205.953 19.0047 208.671 18.9713C210.154 18.9877 211.591 19.4899 212.771 20.4035L214.408 17.5992C212.828 16.2704 210.817 15.5909 208.769 15.694C203.718 15.694 200.404 19.2312 200.404 24.0673V24.0807ZM232.357 24.0807V16.0869H228.944V18.0255C228.361 17.2619 227.609 16.6512 226.747 16.2444C225.886 15.8376 224.941 15.6465 223.992 15.6873C219.597 15.6873 216.131 19.1912 216.131 24.0607C216.131 28.9302 219.576 32.434 223.992 32.434C224.941 32.4748 225.886 32.2837 226.747 31.8769C227.609 31.4702 228.361 30.8594 228.944 30.096V32.0277H232.357V24.0807ZM219.662 24.0807C219.662 21.2762 221.464 18.978 224.417 18.978C227.241 18.978 229.14 21.1829 229.14 24.0807C229.14 26.9784 227.241 29.1833 224.417 29.1833C221.464 29.1833 219.662 26.8785 219.662 24.0807ZM178.486 15.7073C173.902 15.7073 170.678 19.1113 170.678 24.0807C170.678 29.15 174.026 32.454 178.716 32.454C181.058 32.5374 183.348 31.7406 185.148 30.2158L183.477 27.6444C182.175 28.7046 180.561 29.2907 178.892 29.3098C176.691 29.3098 174.695 28.2772 174.203 25.4063H185.848C185.882 24.9733 185.914 24.5403 185.914 24.074C185.914 19.1046 182.861 15.7006 178.467 15.7006L178.486 15.7073ZM178.42 18.8114C180.621 18.8114 182.03 20.2104 182.391 22.6818H174.261C174.622 20.377 175.997 18.8114 178.427 18.8114H178.42ZM264.002 24.0807V9.69873H260.588V18.0388C260.007 17.2751 259.253 16.6645 258.392 16.2577C257.531 15.8508 256.585 15.6599 255.637 15.7006C251.241 15.7006 247.776 19.2045 247.776 24.074C247.776 28.9435 251.221 32.4474 255.637 32.4474C256.585 32.4881 257.531 32.297 258.392 31.8903C259.253 31.4835 260.007 30.8727 260.588 30.1092V32.0409H264.002V24.0807ZM267.991 30.5822C268.125 30.5817 268.26 30.6087 268.384 30.6621C268.503 30.714 268.612 30.7887 268.704 30.8819C268.795 30.9734 268.869 31.082 268.921 31.2016C268.973 31.3258 269 31.4595 269 31.5947C269 31.7298 268.973 31.8636 268.921 31.9877C268.869 32.1073 268.795 32.2159 268.704 32.3074C268.612 32.4004 268.503 32.475 268.384 32.5274C268.26 32.5811 268.125 32.6083 267.991 32.6073C267.791 32.6098 267.595 32.5524 267.427 32.4422C267.259 32.3319 267.126 32.1739 267.047 31.9877C266.995 31.8635 266.968 31.7298 266.968 31.5947C266.968 31.4597 266.995 31.3258 267.047 31.2016C267.15 30.9571 267.343 30.7632 267.585 30.6621C267.717 30.6059 267.86 30.5787 268.003 30.5822H267.991ZM267.991 32.3808C268.093 32.3824 268.196 32.362 268.291 32.3208C268.382 32.281 268.464 32.2246 268.533 32.1543C268.679 32.0057 268.762 31.8045 268.762 31.5947C268.762 31.3849 268.679 31.1838 268.533 31.0352C268.464 30.9645 268.382 30.9079 268.291 30.8686C268.196 30.8278 268.093 30.8074 267.991 30.8087C267.885 30.8072 267.779 30.8277 267.682 30.8686C267.566 30.9194 267.462 30.9983 267.383 31.0987C267.303 31.1991 267.249 31.3178 267.224 31.4445C267.198 31.5713 267.205 31.7021 267.242 31.8259C267.279 31.9496 267.344 32.0623 267.433 32.1543C267.506 32.2255 267.59 32.282 267.682 32.3208C267.784 32.3638 267.894 32.3841 268.003 32.3808H267.991ZM268.05 31.1151C268.147 31.1081 268.244 31.1364 268.323 31.195C268.357 31.2212 268.382 31.2548 268.399 31.2929C268.416 31.3312 268.424 31.3728 268.422 31.4148C268.424 31.4509 268.417 31.4867 268.404 31.5201C268.391 31.5534 268.37 31.5834 268.344 31.6081C268.283 31.6623 268.208 31.6951 268.127 31.7013L268.429 32.0544H268.192L267.912 31.7013H267.82V32.0544H267.623V31.1217L268.05 31.1151ZM267.82 31.2882V31.5414H268.05C268.09 31.5533 268.134 31.5533 268.174 31.5414C268.189 31.5312 268.201 31.5172 268.209 31.5008C268.216 31.4845 268.221 31.4664 268.219 31.4481C268.221 31.4299 268.216 31.4118 268.209 31.3954C268.201 31.3791 268.189 31.3651 268.174 31.3549C268.134 31.3428 268.09 31.3428 268.05 31.3549L267.82 31.2882ZM251.32 24.0807C251.32 21.2762 253.122 18.978 256.075 18.978C258.899 18.978 260.798 21.1829 260.798 24.0807C260.798 26.9784 258.899 29.1833 256.075 29.1833C253.122 29.1833 251.32 26.8785 251.32 24.0807ZM136.099 24.0807V16.0869H132.687V18.0255C132.105 17.2684 131.354 16.6631 130.496 16.26C129.638 15.8569 128.698 15.6675 127.754 15.7073C123.359 15.7073 119.894 19.2112 119.894 24.0807C119.894 28.9502 123.339 32.454 127.754 32.454C128.703 32.4948 129.648 32.3037 130.51 31.8969C131.371 31.4902 132.124 30.8794 132.706 30.1159V32.0476H136.119L136.099 24.0807ZM123.405 24.0807C123.405 21.2762 125.206 18.978 128.16 18.978C130.983 18.978 132.883 21.1829 132.883 24.0807C132.883 26.9784 130.983 29.1833 128.16 29.1833C125.206 29.1833 123.405 26.8852 123.405 24.0807Z" fill="white"/>
<g opacity="0.7">
<path d="M29.1454 23.985C29.1427 20.3538 29.9522 16.7696 31.5125 13.5036C33.073 10.2375 35.3433 7.37514 38.1522 5.13332C34.6734 2.35286 30.4955 0.623969 26.0963 0.144105C21.697 -0.335759 17.2536 0.452713 13.2742 2.41935C9.29454 4.38598 5.93953 7.4517 3.59209 11.2658C1.24482 15.08 0 19.4888 0 23.9884C0 28.4878 1.24482 32.8967 3.59209 36.7108C5.93953 40.525 9.29454 43.5906 13.2742 45.5572C17.2536 47.524 21.697 48.3125 26.0963 47.8324C30.4955 47.3526 34.6734 45.6237 38.1522 42.8434C35.3425 40.6007 33.0715 37.7373 31.5112 34.4701C29.9507 31.2028 29.1417 27.6172 29.1454 23.985Z" fill="white"/>
<path d="M76.3079 23.9871C76.3079 28.4871 75.0627 32.8962 72.715 36.7104C70.3672 40.5246 67.0117 43.5902 63.0315 45.5566C59.0516 47.5231 54.6077 48.3111 50.2082 47.8304C45.8087 47.3498 41.6308 45.6201 38.1523 42.8388C40.96 40.595 43.2299 37.7319 44.7907 34.4655C46.3515 31.1993 47.1625 27.6153 47.1625 23.9838C47.1625 20.3524 46.3515 16.7682 44.7907 13.502C43.2299 10.2358 40.96 7.37273 38.1523 5.12872C41.6313 2.34726 45.8097 0.617367 50.2099 0.136999C54.6101 -0.343368 59.0543 0.445257 63.0346 2.4124C67.0148 4.3797 70.3704 7.44626 72.7176 11.2615C75.0649 15.0767 76.3091 19.4867 76.3079 23.9871Z" fill="white"/>
<path d="M74.0414 38.8354V38.0627H74.3493V37.9094H73.583V38.0692H73.8908V38.8421L74.0414 38.8354ZM75.5545 38.8354V37.9028H75.3515L75.0763 38.5689L74.8013 37.9028H74.5589V38.8354H74.6965V38.1359L74.9519 38.7422H75.1289L75.3843 38.1359V38.8421L75.5545 38.8354Z" fill="white"/>
</g>
</svg>
