<svg width="331" height="376" viewBox="0 0 331 376" fill="none" xmlns="http://www.w3.org/2000/svg">
<path d="M140.91 0H16.0896C7.20355 0 0 7.23174 0 16.1525V239.848C0 248.768 7.20355 256 16.0896 256H140.91C149.796 256 157 248.768 157 239.848V16.1525C157 7.23174 149.796 0 140.91 0Z" fill="#575756"/>
<path d="M143.055 15H16.9451C15.8709 15 15 15.8598 15 16.9203V232.08C15 233.14 15.8709 234 16.9451 234H143.055C144.129 234 145 233.14 145 232.08V16.9203C145 15.8598 144.129 15 143.055 15Z" fill="#D5ECF5"/>
<path d="M97 244C97 245.326 96.5116 246.598 95.6422 247.536C94.7729 248.473 93.5937 249 92.3642 249H66.6358C65.4063 249 64.2272 248.473 63.3578 247.536C62.4884 246.598 62 245.326 62 244C62 242.674 62.4884 241.402 63.3578 240.465C64.2272 239.527 65.4063 239 66.6358 239H92.3642C93.5937 239 94.7729 239.527 95.6422 240.465C96.5116 241.402 97 242.674 97 244Z" fill="white"/>
<path d="M84.2231 92L59 67.5624V33C65.9571 33.2347 72.6973 35.4008 78.4158 39.2397C84.1343 43.0786 88.5894 48.428 91.249 54.6492C93.9086 60.8704 94.6603 67.7004 93.4145 74.3235C92.1686 80.9467 88.9779 87.0831 84.2231 92Z" fill="#FFBB00"/>
<path d="M57 33V68H22C22.3195 58.8191 26.1095 50.1011 32.6053 43.6053C39.1012 37.1095 47.8191 33.3195 57 33Z" fill="#634E42"/>
<path d="M55 70L38.5706 85.4798L31.6504 92C25.7005 86.0346 22.2686 78.2266 22 70.0443L55 70Z" fill="#E94E1B"/>
<path d="M58.9769 70L83 95.0744C76.4962 101.451 67.9152 105 59 105C50.0848 105 41.5038 101.451 35 95.0744L58.9769 70Z" fill="#00A19A"/>
<path d="M42 114H24V219H42V114Z" fill="#00A19A"/>
<path d="M65 132H48V219H65V132Z" fill="#00A19A"/>
<path d="M87 160H70V219H87V160Z" fill="#00A19A"/>
<path d="M110 145H92V219H110V145Z" fill="#00A19A"/>
<path d="M132 127H114V219H132V127Z" fill="#00A19A"/>
<path d="M140 60.6917L121.5 28L103 60.6917H111.552V105H131.808V60.6917H140Z" fill="#E94E1B"/>
<path d="M165.954 212.986H165.679C162.135 214.391 158.18 214.334 154.678 212.826C151.177 211.318 148.414 208.482 146.995 204.939L104.026 96.7408C103.325 94.9838 102.977 93.1055 103.001 91.2135C103.026 89.3215 103.422 87.4529 104.168 85.7146C104.915 83.9763 105.996 82.4025 107.35 81.0832C108.704 79.7638 110.304 78.7248 112.06 78.0257H112.335C114.086 77.3243 115.958 76.9762 117.843 77.0013C119.729 77.0263 121.591 77.4241 123.323 78.1718C125.054 78.9194 126.622 80.0022 127.934 81.3581C129.247 82.7139 130.28 84.3161 130.973 86.0727L173.988 194.271C175.391 197.821 175.333 201.782 173.828 205.29C172.322 208.797 169.491 211.564 165.954 212.986Z" fill="#FFD2A1"/>
<path d="M192.722 200.996H192.44C190.647 201.683 188.73 202.023 186.799 201.999C184.868 201.974 182.961 201.585 181.188 200.853C179.415 200.121 177.81 199.061 176.465 197.733C175.121 196.406 174.063 194.837 173.353 193.117L153.044 144.316C152.328 142.593 151.973 140.751 152.002 138.897C152.03 137.042 152.44 135.211 153.209 133.509C153.977 131.807 155.089 130.267 156.481 128.977C157.873 127.687 159.517 126.673 161.318 125.993H161.553C165.182 124.617 169.233 124.673 172.819 126.15C176.404 127.626 179.234 130.402 180.687 133.871L200.949 182.673C201.667 184.393 202.024 186.232 201.999 188.084C201.974 189.937 201.568 191.766 200.803 193.468C200.039 195.17 198.932 196.711 197.545 198.003C196.159 199.294 194.52 200.311 192.722 200.996Z" fill="#FFD2A1"/>
<path d="M198.322 272.737C196.684 274.023 194.793 274.961 192.768 275.494C190.744 276.026 188.629 276.14 186.558 275.829C184.486 275.519 182.503 274.789 180.731 273.688C178.959 272.586 177.439 271.136 176.264 269.428C155.461 242.815 131.791 218.498 105.668 196.903C102.523 194.26 100.527 190.531 100.091 186.484C99.6537 182.437 100.809 178.379 103.319 175.145V174.873C104.569 173.244 106.148 171.887 107.956 170.889C109.765 169.89 111.764 169.271 113.828 169.071C115.892 168.871 117.975 169.094 119.947 169.726C121.919 170.358 123.737 171.385 125.285 172.742C152.776 195.22 177.768 220.503 199.842 248.169C202.775 251.701 204.248 256.192 203.966 260.746C203.684 265.299 201.669 269.581 198.322 272.737Z" fill="#F0BC88"/>
<path d="M220.467 190.981H220.177C218.332 191.677 216.358 192.023 214.371 191.999C212.383 191.975 210.421 191.58 208.595 190.839C206.768 190.098 205.115 189.024 203.729 187.678C202.343 186.333 201.252 184.743 200.517 182.999L183.08 141.583C182.342 139.84 181.976 137.977 182.001 136.101C182.027 134.224 182.444 132.37 183.23 130.646C184.015 128.922 185.152 127.361 186.577 126.052C188.002 124.743 189.686 123.713 191.533 123.019H191.823C193.668 122.323 195.642 121.977 197.629 122.001C199.617 122.026 201.579 122.42 203.405 123.161C205.232 123.902 206.885 124.976 208.271 126.322C209.657 127.667 210.748 129.257 211.483 131.001L228.92 172.417C229.658 174.16 230.024 176.023 229.999 177.899C229.973 179.776 229.556 181.63 228.77 183.354C227.985 185.078 226.848 186.639 225.423 187.948C223.998 189.257 222.314 190.287 220.467 190.981Z" fill="#FFD2A1"/>
<path d="M245.651 181.102C242.393 182.342 238.754 182.296 235.532 180.974C232.31 179.652 229.769 177.162 228.466 174.05L212.948 137.336C212.3 135.792 211.978 134.141 212.001 132.478C212.024 130.815 212.392 129.172 213.082 127.646C213.772 126.119 214.772 124.738 216.023 123.582C217.275 122.426 218.753 121.519 220.374 120.912H220.612C222.224 120.292 223.949 119.982 225.687 120.001C227.424 120.02 229.141 120.367 230.738 121.022C232.335 121.678 233.781 122.628 234.992 123.819C236.204 125.011 237.157 126.419 237.796 127.964L253.029 164.633C253.686 166.176 254.016 167.829 253.999 169.495C253.983 171.161 253.622 172.807 252.936 174.339C252.249 175.87 251.252 177.257 250.002 178.417C248.751 179.578 247.273 180.491 245.651 181.102Z" fill="#FFD2A1"/>
<path d="M249.29 270.326L222.96 280.925C217.784 283.023 212.249 284.067 206.673 283.997C201.097 283.926 195.59 282.743 190.467 280.514C185.344 278.286 180.707 275.056 176.821 271.01C172.934 266.964 169.876 262.182 167.82 256.938L155 224.396L260.18 182L272.954 214.541C275.03 219.775 276.064 225.372 275.997 231.011C275.93 236.65 274.764 242.22 272.566 247.402C270.368 252.585 267.18 257.277 263.186 261.211C259.192 265.144 254.47 268.242 249.29 270.326Z" fill="#F2C799"/>
<path d="M261.466 227.342L182.91 258.603L211.461 330.348L290.017 299.087L261.466 227.342Z" fill="#F2C799"/>
<path d="M262 187.783L252.699 163.235C251.417 160.01 248.925 157.43 245.77 156.061C242.615 154.692 239.053 154.646 235.864 155.932H235.631C232.45 157.221 229.905 159.737 228.553 162.926C227.202 166.115 227.155 169.717 228.423 172.941L226.655 168.512C225.953 166.707 224.905 165.059 223.573 163.664C222.24 162.27 220.649 161.155 218.891 160.385C217.132 159.614 215.241 159.203 213.325 159.175C211.41 159.147 209.507 159.502 207.727 160.22H207.448C203.868 161.667 201.001 164.494 199.475 168.08C197.95 171.666 197.89 175.719 199.31 179.349L197.682 175.25C196.98 173.45 195.934 171.809 194.604 170.419C193.274 169.03 191.686 167.921 189.932 167.154C188.177 166.388 186.291 165.981 184.381 165.955C182.471 165.929 180.574 166.286 178.801 167.005H178.521C176.743 167.721 175.122 168.786 173.75 170.138C172.378 171.489 171.283 173.102 170.527 174.883C169.771 176.664 169.37 178.579 169.345 180.518C169.32 182.456 169.673 184.381 170.383 186.181C169.68 184.375 168.633 182.728 167.3 181.333C165.968 179.938 164.377 178.824 162.618 178.054C160.86 177.283 158.969 176.872 157.053 176.844C155.137 176.815 153.235 177.171 151.455 177.889H151.176C149.399 178.6 147.779 179.66 146.408 181.008C145.036 182.355 143.941 183.964 143.185 185.741C142.429 187.518 142.027 189.429 142.001 191.365C141.976 193.3 142.328 195.221 143.037 197.018L156.059 230L262 187.783Z" fill="#F2C799"/>
<path d="M300 306.508L210.806 341L195 297.942L282.947 265L300 306.508Z" fill="#EDEDED"/>
<path d="M331 376L298.254 294L199 330.189L217.29 376H331Z" fill="#634E42"/>
<path d="M301.957 345.176C302.789 344.539 303.809 344.14 304.89 344.031C305.971 343.921 307.063 344.105 308.029 344.56C308.994 345.014 309.79 345.719 310.316 346.584C310.841 347.45 311.072 348.438 310.98 349.423C310.888 350.408 310.477 351.346 309.799 352.119C309.121 352.891 308.206 353.464 307.17 353.764C306.134 354.064 305.023 354.078 303.978 353.805C302.933 353.531 302.001 352.982 301.299 352.227C300.832 351.725 300.479 351.144 300.26 350.518C300.04 349.892 299.959 349.232 300.02 348.577C300.081 347.922 300.283 347.285 300.616 346.701C300.948 346.117 301.404 345.599 301.957 345.176Z" fill="#EDEDED"/>
<path d="M295.748 327.336C296.497 326.624 297.421 326.173 298.404 326.041C299.386 325.908 300.382 326.101 301.265 326.594C302.147 327.087 302.877 327.857 303.361 328.808C303.846 329.759 304.063 330.848 303.984 331.935C303.906 333.022 303.537 334.059 302.922 334.914C302.308 335.769 301.477 336.403 300.535 336.737C299.593 337.07 298.582 337.087 297.631 336.786C296.679 336.485 295.831 335.879 295.193 335.046C294.768 334.5 294.446 333.868 294.244 333.184C294.041 332.501 293.964 331.78 294.015 331.064C294.067 330.347 294.247 329.649 294.544 329.01C294.841 328.37 295.25 327.801 295.748 327.336Z" fill="#EDEDED"/>
<path d="M288.806 312.282C289.561 311.585 290.488 311.15 291.468 311.032C292.448 310.915 293.437 311.119 294.312 311.62C295.186 312.122 295.906 312.897 296.382 313.848C296.857 314.8 297.066 315.885 296.982 316.968C296.898 318.05 296.525 319.081 295.911 319.93C295.296 320.779 294.467 321.409 293.528 321.739C292.589 322.07 291.582 322.086 290.635 321.787C289.687 321.488 288.841 320.887 288.203 320.058C287.772 319.508 287.445 318.868 287.241 318.176C287.038 317.485 286.962 316.755 287.018 316.03C287.074 315.306 287.261 314.601 287.568 313.957C287.875 313.314 288.296 312.744 288.806 312.282Z" fill="#EDEDED"/>
</svg>
