<svg width="424" height="320" viewBox="0 0 424 320" fill="none" xmlns="http://www.w3.org/2000/svg">
<path d="M270.398 98C275.401 78.9137 277.202 69.6432 271.298 46.5909C252.485 -26.6311 164.574 -1.39749 153.917 39.6505C148.913 58.7863 165.625 77.5256 174.281 86.5482C182.937 95.5708 266.845 85.061 270.398 98Z" fill="#3C3C3B"/>
<path d="M213 118.033L259.675 75L280.148 124.721L293 156.148L215.092 180L213 118.033Z" fill="#F2C799"/>
<path d="M209.378 154.501C225.911 178.653 254.932 167.022 302.905 140L336.17 146.186C345.597 147.948 354.464 151.956 362.022 157.873C369.581 163.791 375.61 171.444 379.602 180.187L418 264.619L376.591 320H135L154.495 181.82L209.378 154.501Z" fill="#D5ECF5"/>
<path d="M241.328 198.997L225.731 198C219.729 239.286 219.974 277.032 233.898 307L280 299.221C257.837 270.295 244.406 235.487 241.328 198.997Z" fill="#CF4518"/>
<path d="M215.082 271.425C219.997 273.258 225.094 274.571 230.288 275.343C238.742 276.625 247.274 277.343 255.825 277.493C257.515 277.493 246.508 287.718 242.743 288.196C237.973 289.161 233.066 289.258 228.261 288.482C222.226 287.527 212.572 287.24 208.951 282.414C206.441 279.07 206.344 273.479 208.71 271.807C210.708 270.884 212.986 270.747 215.082 271.425Z" fill="#F2C799"/>
<path d="M257.407 276L215.783 287.804L175 312.781L249.646 310.855C261.856 316.986 275.945 314.351 290.627 314.858C292.888 314.952 295.133 314.432 297.136 313.351C299.138 312.271 300.826 310.668 302.03 308.704C303.234 306.74 303.911 304.486 303.992 302.168C304.073 299.85 303.555 297.552 302.492 295.505C294.533 280.56 276.094 280.002 257.407 276Z" fill="#FFD2A1"/>
<path d="M309.15 280L285 283.892C289.719 295.39 291.902 307.677 291.416 320H320L309.15 280Z" fill="#DEF6FF"/>
<path d="M117.95 148.969C117.95 139.269 110.631 134.419 103.562 129.569L102.158 128.599V106.192C103.957 106.545 105.552 107.538 106.629 108.976C107.706 110.413 108.186 112.189 107.974 113.952V115.165H118V114.583C118 103.573 110.079 100.033 102.359 99.596V93H95.9419V99.6446C88.3219 100.324 80.5514 103.67 80.5514 114.583C80.5514 124.283 87.8708 129.133 94.9394 133.983L95.9419 134.662V157.214C94.1333 156.905 92.5146 155.94 91.4156 154.516C90.3165 153.093 89.8197 151.317 90.0264 149.551V146.35H80V148.921C80 159.93 88.0211 163.471 95.7916 163.907V169H102.008V163.956C109.979 163.325 117.95 160.076 117.95 148.969ZM91.1293 113.952C90.9646 112.342 91.3712 110.725 92.2823 109.367C93.1933 108.01 94.5547 106.993 96.1425 106.483V123.652C94.6441 122.471 93.4222 120.996 92.5579 119.324C91.6937 117.651 91.2067 115.82 91.1293 113.952ZM102.158 157.069V139.512C103.68 140.758 104.912 142.301 105.776 144.039C106.64 145.777 107.116 147.672 107.172 149.6C107.346 151.212 106.943 152.833 106.031 154.192C105.118 155.552 103.751 156.567 102.158 157.069Z" fill="#00A19A"/>
<path d="M194.705 301.37L170.651 191.63C170 188.949 168.489 186.556 166.347 184.817C164.206 183.079 161.553 182.091 158.797 182.006H12.8339C11.6415 181.959 10.455 182.196 9.372 182.698C8.28904 183.199 7.34051 183.95 6.60452 184.89C5.86852 185.83 5.36603 186.931 5.1384 188.102C4.91077 189.274 4.96455 190.483 5.2952 191.63L29.3495 301.37C29.9927 304.027 31.4824 306.403 33.5937 308.139C35.7051 309.875 38.3237 310.877 41.0544 310.994H187.166C188.359 311.041 189.545 310.804 190.628 310.302C191.711 309.801 192.66 309.05 193.396 308.11C194.132 307.17 194.634 306.069 194.862 304.898C195.089 303.726 195.035 302.517 194.705 301.37Z" fill="#3C3C3B"/>
<path d="M181.162 310.992H35.8951C33.1802 310.875 30.5767 309.873 28.4776 308.137C26.3784 306.401 24.8974 304.025 24.258 301.368L0.293447 191.63C-0.0352977 190.483 -0.0886878 189.274 0.137624 188.102C0.363935 186.931 0.863448 185.83 1.59519 184.89C2.32692 183.95 3.26997 183.199 4.34666 182.698C5.42336 182.196 6.60301 181.959 7.78855 182.006H153.154C155.869 182.123 158.472 183.125 160.571 184.861C162.67 186.597 164.151 188.973 164.791 191.63L188.706 301.368C189.036 302.519 189.089 303.733 188.86 304.908C188.631 306.084 188.128 307.188 187.39 308.129C186.653 309.07 185.703 309.82 184.62 310.318C183.537 310.816 182.351 311.047 181.162 310.992Z" fill="#575756"/>
<path d="M101.673 246C102.024 247.185 102.094 248.439 101.875 249.656C101.657 250.874 101.157 252.021 100.417 253C99.6772 253.978 98.7193 254.761 97.6236 255.282C96.5278 255.803 95.3263 256.046 94.1197 255.993C91.3653 255.856 88.7278 254.809 86.6022 253.008C84.4765 251.207 82.9768 248.748 82.3274 246C81.9757 244.815 81.9061 243.561 82.1246 242.344C82.3431 241.126 82.8431 239.979 83.583 239C84.3228 238.022 85.2807 237.239 86.3764 236.718C87.4722 236.197 88.6738 235.954 89.8804 236.007C92.6372 236.136 95.2784 237.18 97.4056 238.982C99.5328 240.785 101.03 243.248 101.673 246Z" fill="#DEF6FF"/>
<path d="M285 320H245.576H45V311H285V320Z" fill="#575756"/>
<path d="M195 311H45V320H195V311Z" fill="#3C3C3B"/>
<path d="M417.755 264.769L355.215 262L309 279.85L319.259 320H414.006C426.731 313.028 426.534 293.2 417.755 264.769Z" fill="#D5ECF5"/>
<path d="M240.67 200L224.521 198.974L218 167H245L240.67 200Z" fill="#E94E1B"/>
<path d="M229 168.097L207.568 195L198 159.871L213.404 144C212.808 149.227 214.042 154.5 216.891 158.903C219.74 163.305 224.025 166.559 229 168.097Z" fill="#DEF6FF"/>
<path d="M229 167.794L260.655 195L302 140.343L279.042 124C277.302 139.316 249.673 167.843 229 167.794Z" fill="#DEF6FF"/>
<path d="M179.562 104.505C185.386 117.047 200.27 148.052 211.42 150.242C219.78 152.081 228.529 150.543 235.76 145.962C243.402 140.919 249.473 133.832 253.282 125.507C257.314 117.694 261.495 114.11 261.993 105.6C262.094 97.3339 261.14 89.0887 259.155 81.0639L253.282 52.9447C252.366 45.8597 249.902 39.0631 246.064 33.0373C241.426 27.2564 234.778 23.4358 227.448 22.337C220.18 21.0928 186.282 22.337 168.064 42.9412C157.76 54.8857 159.95 62.3012 179.562 104.505Z" fill="#FFD2A1"/>
<path d="M254.765 42.7482C252.467 34.6753 247.053 27.7929 239.667 23.5553C234.119 21.1276 228.096 19.9158 222.02 20.0045C205.598 20.6619 189.23 22.2641 173 24.8028V48.4581C203.196 45.8191 235.402 30.9445 247.069 76C250.255 74.4166 254.814 71.8255 258 70.1941C258.005 60.954 256.919 51.7443 254.765 42.7482Z" fill="#3C3C3B"/>
<path d="M268.778 64.0364C269.8 74.7461 267.219 83.4655 262.541 84.8872C257.864 86.3088 252.541 73.9879 251.304 65.2685C250.068 56.5491 252.649 51.6681 258.133 51.0521C263.617 50.436 267.972 55.317 268.778 64.0364Z" fill="#FFD2A1"/>
<path d="M235.301 44.471C223.524 39.6079 214.542 32.0699 201.867 31C201.169 31 171.926 36.7872 171.427 37.2249C162.395 42.5258 161.447 43.2066 160 53.3707C178.663 79.2915 214.891 65.5773 222.377 63.7293L215.989 61.8326C233.654 54.0029 237.896 48.5075 235.301 44.471Z" fill="#3C3C3B"/>
<path opacity="0.1" d="M327.815 250.426C322.206 234.917 316.631 219.442 311.09 204L330.369 239.816C332.815 245.271 336.38 250.157 340.835 254.162C350.249 261.484 375.888 260.588 384 273.091C373.584 265.121 357.009 264.523 346.844 266.017C336.678 267.512 324.81 273.888 315.045 277.126C305.281 280.364 294.164 280.912 285 284C290.558 281.061 325.061 270.351 328.416 259.791C329.232 256.686 329.021 253.402 327.815 250.426Z" fill="#1D1D1B"/>
<path d="M41.4141 92.5612C44.537 92.5935 47.5217 93.8881 49.7207 96.1642L50.1657 96.5701L50.6601 96.2149L54.9617 93.2716L56 92.5612L55.4561 91.9015C53.7497 89.7672 51.6079 88.0431 49.1817 86.8507C46.7555 85.6582 44.104 85.0265 41.4141 85C36.7157 85.3568 32.2677 87.3126 28.7748 90.5574C25.2818 93.8022 22.9438 98.1506 22.1311 102.913H16V108.343H21.241C21.241 109.003 21.241 109.663 21.241 110.373C21.241 111.084 21.241 111.743 21.241 112.403H16V118.036H22.1311C22.95 122.801 25.2885 127.151 28.7791 130.403C32.2696 133.655 36.7143 135.623 41.4141 136C45.9474 135.946 50.2929 134.133 53.5773 130.925L54.1706 130.367L53.5773 129.758C51.9951 128.287 50.5612 127.018 49.1768 125.902L48.7318 125.496L48.2868 125.851C46.3022 127.384 43.8975 128.236 41.4141 128.287C38.5854 128.09 35.8823 127.014 33.665 125.201C31.4477 123.387 29.8217 120.923 29.0037 118.137H46.0124V112.403H27.7182C27.6689 111.727 27.6689 111.049 27.7182 110.373C27.6676 109.698 27.6676 109.019 27.7182 108.343H46.0124V102.66H29.0037C29.8239 99.8794 31.4518 97.4226 33.6696 95.6179C35.8875 93.8131 38.5895 92.7467 41.4141 92.5612Z" fill="#00A19A"/>
<path d="M101.797 48.9659C100.306 47.6327 98.4463 46.9379 96.5466 47.0044C94.6267 46.946 92.7451 47.6181 91.2031 48.9129C90.534 49.4361 89.9851 50.1323 89.6019 50.9438C89.2188 51.7552 89.0124 52.6584 89 53.5783V68.5286C89.0195 69.4321 89.2296 70.3173 89.6128 71.1103C89.996 71.9034 90.5413 72.5814 91.2031 73.0879C92.7451 74.3828 94.6267 75.0548 96.5466 74.9965C98.4367 75.0475 100.287 74.3749 101.797 73.0879C102.479 72.6057 103.04 71.933 103.426 71.1344C103.812 70.3359 104.009 69.4385 104 68.5286V53.5783C103.984 52.6666 103.775 51.7724 103.392 50.9702C103.009 50.1679 102.462 49.4808 101.797 48.9659ZM99.1248 68.4226C99.1194 68.7563 99.0444 69.0839 98.9059 69.3787C98.7674 69.6735 98.5693 69.9272 98.3278 70.1191C97.7785 70.5967 97.0983 70.8406 96.406 70.8083C95.6984 70.8487 95.0011 70.6045 94.4374 70.1191C94.1959 69.9272 93.9978 69.6735 93.8593 69.3787C93.7209 69.0839 93.6459 68.7563 93.6405 68.4226V53.4722C93.6495 53.1393 93.726 52.8132 93.8642 52.519C94.0023 52.2249 94.1985 51.9706 94.4374 51.7758C95.0111 51.3128 95.7013 51.0712 96.406 51.0865C97.0952 51.0788 97.7685 51.3203 98.3278 51.7758C98.5667 51.9706 98.7629 52.2249 98.901 52.519C99.0392 52.8132 99.1157 53.1393 99.1248 53.4722V68.4226Z" fill="#00A19A"/>
<path d="M73.6501 47.1562C74.3599 46.6597 74.9434 45.9971 75.3521 45.2235C75.7609 44.4499 75.983 43.5877 76 42.7085V28.3432C75.9957 27.4616 75.7791 26.5946 75.3692 25.8189C74.9593 25.0431 74.3689 24.3826 73.6501 23.8956C72.0404 22.6102 70.0416 21.941 68 22.0041C65.9674 21.9474 63.9759 22.5961 62.35 23.8445C61.6241 24.3363 61.0293 25.0049 60.6191 25.7903C60.2089 26.5756 59.9961 27.4529 60.0001 28.3432V42.7085C60.0044 43.5902 60.2211 44.4572 60.6309 45.2329C61.0408 46.0086 61.6312 46.6692 62.35 47.1562C63.9759 48.4046 65.9674 49.0533 68 48.9966C70.0315 49.0453 72.0205 48.3974 73.6501 47.1562ZM65.8 44.2933C65.533 44.1181 65.3146 43.8756 65.1658 43.5891C65.0169 43.3026 64.9426 42.9818 64.95 42.6574V28.241C64.9426 27.9167 65.0169 27.5958 65.1658 27.3094C65.3146 27.0229 65.533 26.7803 65.8 26.6051C66.3995 26.1715 67.1157 25.9387 67.85 25.9387C68.5843 25.9387 69.3006 26.1715 69.9001 26.6051C70.167 26.7803 70.3854 27.0229 70.5343 27.3094C70.6831 27.5958 70.7575 27.9167 70.75 28.241V42.6574C70.7575 42.9818 70.6831 43.3026 70.5343 43.5891C70.3854 43.8756 70.167 44.1181 69.9001 44.2933C69.3006 44.7269 68.5843 44.9597 67.85 44.9597C67.1157 44.9597 66.3995 44.7269 65.8 44.2933Z" fill="#00A19A"/>
<path d="M96.4438 24L64 75H69.6553L102 24H96.4438Z" fill="#00A19A"/>
</svg>
