<svg width="425" height="436" viewBox="0 0 425 436" fill="none" xmlns="http://www.w3.org/2000/svg">
<path d="M38.3956 61.089L44.1405 86.3271C44.3468 87.0428 44.6754 87.6991 45.1051 88.2545C45.5348 88.8099 46.0563 89.2521 46.6366 89.553C47.2126 89.8479 47.8326 90 48.4591 90C49.0855 90 49.7056 89.8479 50.2817 89.553C52.7777 88.4619 54.6794 89.126 53.7681 86.1373C50.6239 76.6875 48.4681 66.8082 47.3497 56.7245C47.3653 56.5352 47.3653 56.3446 47.3497 56.1553C46.8193 54.896 45.9202 53.9146 44.8241 53.3984C43.728 52.8821 42.5115 52.8671 41.4067 53.3563C40.7606 53.5849 40.1624 53.9755 39.6519 54.5019C39.1414 55.0284 38.7301 55.6788 38.4453 56.4099C38.1606 57.1411 38.009 57.9364 38.0004 58.7431C37.9918 59.5497 38.1266 60.3494 38.3956 61.089Z" fill="#FFCF9F"/>
<path d="M48.9978 47.7369L39.5946 55.6934C39.0972 56.1795 38.6999 56.7649 38.4269 57.4143C38.1538 58.0636 38.0107 58.7635 38.006 59.4717C37.9723 60.1758 38.0809 60.8795 38.3249 61.5378C38.5689 62.196 38.9428 62.7943 39.4229 63.2944C39.8879 63.8131 40.448 64.2308 41.0706 64.5233C41.6931 64.8157 42.3657 64.977 43.049 64.9977C43.7324 65.0184 44.4128 64.8981 45.0508 64.6438C45.6888 64.3895 46.2716 64.0063 46.7651 63.5166L56.2971 55.4267L56.6835 54.9822C57.5315 53.997 58 52.7236 58 51.404C58 50.0845 57.5315 48.8109 56.6835 47.8258C56.2063 47.2599 55.619 46.8048 54.96 46.4902C54.3011 46.1757 53.5854 46.0087 52.8599 46.0003C52.1343 45.9919 51.4152 46.1423 50.7497 46.4415C50.0842 46.7408 49.4871 47.1823 48.9978 47.7369Z" fill="#FFCF9F"/>
<path d="M49.5835 55.7068L57.9016 64.6146C58.3998 65.0794 58.9928 65.4418 59.6439 65.6793C60.2949 65.9168 60.9903 66.0244 61.6868 65.9954C63.0938 65.981 64.4379 65.4366 65.4253 64.481C65.9241 64.0127 66.3201 63.4546 66.5904 62.8391C66.8608 62.2235 67 61.5629 67 60.8956C67 60.2284 66.8608 59.5678 66.5904 58.9522C66.3201 58.3367 65.9241 57.7785 65.4253 57.3102L57.0137 48.4024L56.5465 48.0462C55.5112 47.2906 54.2211 46.9231 52.9206 47.0134C51.6201 47.1037 50.3996 47.6455 49.4901 48.5361C48.5178 49.5052 47.9829 50.7989 48.0004 52.1397C48.0179 53.4804 48.5863 54.7611 49.5835 55.7068Z" fill="#FFCF9F"/>
<path d="M18.3916 32.6188C17.7176 32.8953 17.1066 33.2978 16.5936 33.8031C16.0807 34.3085 15.6759 34.9069 15.4025 35.5638C15.1291 36.2208 14.9924 36.9235 15.0003 37.6316C15.0083 38.3398 15.1606 39.0395 15.4487 39.6906L33.3361 79.7195C33.6219 80.3715 34.0379 80.9625 34.5604 81.4587C35.0829 81.9548 35.7015 82.3463 36.3808 82.6107C37.06 82.8752 37.7865 83.0074 38.5187 82.9997C39.2508 82.992 39.9742 82.8446 40.6473 82.566C42.0005 81.9992 43.0656 80.936 43.6088 79.6101C44.152 78.2841 44.1287 76.8037 43.5441 75.4943L25.7029 35.2429C25.1169 33.9341 24.0176 32.9038 22.6467 32.3784C21.2758 31.853 19.7454 31.8755 18.3916 32.4409V32.6188Z" fill="#FFCF9F"/>
<path d="M30.024 85.4516C31.2746 84.8318 32.2365 83.7249 32.6994 82.3732C33.1622 81.0215 33.0883 79.5353 32.4935 78.24L15.9867 42.0919C15.6943 41.4477 15.281 40.8698 14.7709 40.3919C14.2608 39.914 13.6641 39.5457 13.0152 39.3082C12.3664 39.0706 11.6783 38.9687 10.991 39.0083C10.3037 39.0479 9.63082 39.2282 9.01146 39.5387C8.38844 39.8416 7.82922 40.2685 7.36576 40.7948C6.90229 41.3212 6.54361 41.9368 6.31027 42.6065C6.07693 43.2762 5.97347 43.9868 6.00578 44.6978C6.03809 45.4088 6.20564 46.1063 6.49868 46.7504L23.0054 82.8536C23.2936 83.5075 23.7056 84.095 24.2172 84.5814C24.7288 85.0678 25.3295 85.4433 25.9838 85.6855C26.6382 85.9277 27.3329 86.0318 28.0269 85.9916C28.7208 85.9515 29.3999 85.7678 30.024 85.4516Z" fill="#FFCF9F"/>
<path d="M21.6047 90.4411C22.1514 90.1313 22.6305 89.7176 23.0143 89.224C23.398 88.7303 23.6789 88.1664 23.8405 87.5649C24.0022 86.9635 24.0414 86.3363 23.956 85.7198C23.8706 85.1032 23.6623 84.5096 23.343 83.973L8.94697 59.3328C8.29673 58.2604 7.24814 57.4809 6.02441 57.1604C4.80067 56.8399 3.49848 57.0036 2.39524 57.6168C1.84854 57.9265 1.36947 58.3402 0.985711 58.8339C0.601956 59.3276 0.321191 59.8914 0.159552 60.4929C-0.00208711 61.0944 -0.0414602 61.7215 0.0439388 62.338C0.129338 62.9546 0.337827 63.5483 0.657097 64.0849L15.1422 88.637C15.7769 89.7014 16.803 90.483 18.0068 90.819C19.2107 91.1551 20.4995 91.0197 21.6047 90.4411Z" fill="#FFCF9F"/>
<path d="M29.5353 115.574L35.7848 138L61 131.541L54.6637 112.435C59.481 109.654 56.2261 82.7878 56.2261 82.7878C52.6577 78.2879 50.4669 72.7917 49.9331 67C36.5305 68.7845 23.805 74.1315 13 82.5186C13 82.5186 15.6474 93.0588 16.6456 96.5123C20.3779 108.981 25.3689 113.197 29.5353 115.574Z" fill="#F5C08C"/>
<path d="M67.7355 61C64.6478 61 62.9276 63.2935 62.4424 66.4415C61.78 70.906 61.4702 75.4175 61.516 79.9326C61.516 79.9326 38.2259 87.3977 39.0198 102.418L44.4013 137L62.0453 131.604L56.1346 111.187C61.5601 109.343 65.5301 103.137 68.1767 96.9763C69.7491 94.5276 70.801 91.7701 71.2644 88.8817C71.6173 84.3846 71.6173 78.1787 72.8523 68.7799C73.6904 61.9893 70.8233 61.1799 67.7355 61Z" fill="#FFCF9F"/>
<path d="M386.585 60.9207L379.737 86.2275C379.215 87.6582 378.152 88.8222 376.78 89.4643C375.407 90.1064 373.838 90.174 372.416 89.6524C369.44 88.5583 367.221 89.2243 368.26 86.2275C372.028 76.7586 374.599 66.8498 375.911 56.7346C375.969 56.5364 376.049 56.345 376.147 56.1638C376.78 54.9011 377.851 53.9171 379.158 53.3995C380.465 52.8818 381.915 52.8668 383.232 53.3572C383.954 53.6206 384.615 54.0277 385.177 54.5542C385.739 55.0807 386.19 55.7159 386.503 56.4218C386.816 57.1277 386.985 57.8899 386.999 58.6629C387.013 59.4358 386.872 60.2037 386.585 60.9207Z" fill="#FFCF9F"/>
<path d="M375.903 47.6052L385.357 55.6224C385.863 56.11 386.269 56.6984 386.551 57.3526C386.832 58.0067 386.984 58.7131 386.997 59.4295C387.021 60.1378 386.907 60.8439 386.662 61.5056C386.417 62.1673 386.047 62.7712 385.572 63.2813C385.105 63.8041 384.542 64.225 383.916 64.5196C383.29 64.8143 382.614 64.9769 381.927 64.9977C381.24 65.0185 380.556 64.8973 379.914 64.6411C379.273 64.3849 378.687 63.9987 378.191 63.5052L368.608 55.3537L368.219 54.9057C367.396 53.8858 366.963 52.5873 367.003 51.2575C367.042 49.9278 367.552 48.6596 368.435 47.6947C368.912 47.1673 369.488 46.7454 370.126 46.4542C370.765 46.1631 371.453 46.0087 372.151 46.0004C372.848 45.992 373.54 46.1298 374.185 46.4056C374.829 46.6813 375.414 47.0894 375.903 47.6052Z" fill="#FFCF9F"/>
<path d="M375.397 55.7146L367.032 64.6149C366.536 65.0815 365.943 65.445 365.291 65.6825C364.64 65.9199 363.944 66.0262 363.247 65.9945C362.557 65.9864 361.876 65.8485 361.242 65.5889C360.609 65.3292 360.036 64.9528 359.555 64.4814C358.559 63.5304 358 62.2422 358 60.8991C358 59.556 358.559 58.2676 359.555 57.3166L368.014 48.4163L368.434 48.0603C369.466 47.2959 370.758 46.9229 372.061 47.0133C373.365 47.1037 374.587 47.6512 375.491 48.5498C376.475 49.5126 377.017 50.8075 377 52.1506C376.982 53.4937 376.406 54.7754 375.397 55.7146Z" fill="#FFCF9F"/>
<path d="M406.628 32.6329C407.303 32.9087 407.914 33.3114 408.427 33.8175C408.939 34.3237 409.342 34.9233 409.612 35.5812C409.882 36.2392 410.013 36.9424 409.999 37.6499C409.985 38.3575 409.825 39.0553 409.529 39.7027L391.664 79.7204C391.378 80.3722 390.961 80.9631 390.438 81.4591C389.915 81.9551 389.295 82.3465 388.615 82.6109C387.935 82.8752 387.208 83.0074 386.474 82.9997C385.741 82.992 385.017 82.8447 384.343 82.5661C382.996 81.9903 381.938 80.9266 381.395 79.6043C380.852 78.2819 380.869 76.8067 381.442 75.4964L399.353 35.2562C399.639 34.6045 400.056 34.0141 400.58 33.5195C401.104 33.0249 401.725 32.6359 402.406 32.3752C403.088 32.1145 403.816 31.9873 404.549 32.001C405.281 32.0147 406.004 32.1691 406.674 32.455L406.628 32.6329Z" fill="#FFCF9F"/>
<path d="M394.136 85.4691C393.486 85.1706 392.902 84.7461 392.419 84.2201C391.935 83.6942 391.561 83.0773 391.319 82.4056C391.076 81.7338 390.97 81.0206 391.007 80.3076C391.044 79.5945 391.222 78.8958 391.532 78.2523L408.636 42.0791C409.258 40.7852 410.367 39.7899 411.722 39.311C413.077 38.8321 414.566 38.9087 415.864 39.524C416.514 39.8225 417.098 40.2471 417.581 40.773C418.065 41.299 418.439 41.9159 418.681 42.5876C418.924 43.2593 419.03 43.9725 418.993 44.6855C418.956 45.3986 418.778 46.0973 418.468 46.7408L401.364 82.8692C401.065 83.5179 400.639 84.1006 400.113 84.5835C399.586 85.0663 398.968 85.4396 398.295 85.6816C397.622 85.9236 396.908 86.0295 396.194 85.993C395.48 85.9565 394.78 85.7784 394.136 85.4691Z" fill="#FFCF9F"/>
<path d="M403.386 90.3826C402.842 90.0726 402.364 89.6586 401.982 89.1645C401.6 88.6704 401.32 88.106 401.159 87.504C400.998 86.902 400.959 86.2743 401.044 85.6572C401.129 85.0401 401.336 84.4459 401.655 83.9089L416.086 59.3349C416.734 58.2615 417.779 57.4813 418.998 57.1605C420.217 56.8397 421.514 57.0037 422.614 57.6174C423.158 57.9274 423.636 58.3414 424.018 58.8355C424.4 59.3296 424.68 59.894 424.841 60.496C425.002 61.098 425.041 61.7257 424.956 62.3428C424.871 62.9599 424.664 63.5542 424.345 64.0912L409.914 88.6651C409.266 89.7385 408.221 90.5187 407.002 90.8395C405.783 91.1603 404.486 90.9964 403.386 90.3826Z" fill="#FFCF9F"/>
<path d="M395.508 115.574L389.259 138L364 131.541L370.38 112.435C365.519 109.654 368.774 82.7878 368.774 82.7878C372.342 78.2879 374.533 72.7917 375.067 67C388.47 68.7845 401.195 74.1315 412 82.5186C412 82.5186 409.396 93.0588 408.354 96.5123C404.622 108.981 399.631 113.197 395.508 115.574Z" fill="#F5C08C"/>
<path d="M357.276 61C360.407 61 362.082 63.2935 362.567 66.4415C363.246 70.9046 363.57 75.4163 363.538 79.9326C363.538 79.9326 386.774 87.3977 385.98 102.418L380.601 137L362.964 131.604L368.917 111.187C363.493 109.343 359.481 103.137 356.836 96.9763C355.283 94.5176 354.233 91.7643 353.749 88.8817C353.396 84.3846 353.44 78.1787 352.162 68.7799C351.28 61.9893 354.146 61.1799 357.276 61Z" fill="#FFCF9F"/>
<path d="M314 288.055L313.286 288.552C299.675 298.761 294.811 312.901 294.9 330.157C294.9 367.064 302.977 388.251 293.383 436H130.68C127.199 403.746 135.142 367.606 128.404 336.617C124.7 319.812 125.503 298.852 111.893 288.642C111.893 288.642 111.892 288.642 111.669 288.642L111 288.145C112.517 285.073 114.035 281.911 115.463 278.704L116.132 277.349C123.45 261.989 130.769 245.998 138.132 231C147.195 235.91 157.484 238.015 167.719 237.053C173.281 236.657 178.793 235.735 184.185 234.298L185.167 234.027H185.837C194.376 237.283 203.305 239.379 212.388 240.261C221.547 239.395 230.551 237.299 239.163 234.027L240.458 234.388C245.954 235.851 251.57 236.804 257.237 237.234C267.431 238.134 277.663 236.015 286.689 231.136C294.008 246.133 301.371 262.125 308.69 277.484C310.028 280.24 311.322 282.995 312.617 285.706C313.241 286.338 313.598 287.197 314 288.055Z" fill="#D5ECF5"/>
<path d="M183 214V222.711V232.003V236.158L183.555 266L202.065 265.643H211.968H212.801H222.056L240.889 265.285L241.722 236.515V232.852L242 223.605V215.966L183 214Z" fill="#F2C799"/>
<path d="M212.039 113C237.145 113 257.221 129.605 255.34 159.759C255.133 163.236 254.709 166.697 254.071 170.12C259.626 166.932 264.525 172.511 262.557 181.101C261.201 187.123 258.183 195.271 254.99 196.466C251.01 197.927 249.785 195.448 249.566 195.359C247.817 204.215 247.073 211.831 244.012 216.48C240.381 221.927 237.582 226.045 235.002 229.144C229.097 236.185 224.155 238 212.914 238C201.63 238 196.687 236.362 190.695 229.454C187.428 225.42 184.363 221.223 181.51 216.879C178.361 212.451 177.574 204.525 175.693 195.846C175.062 196.632 174.183 197.175 173.204 197.385C172.225 197.594 171.205 197.458 170.313 196.997C166.989 195.846 163.971 187.743 162.484 181.721C160.428 173.175 165.24 167.508 170.882 170.651C170.201 167.246 169.734 163.8 169.482 160.334C167.077 130.003 186.934 113.221 212.039 113Z" fill="#FFD2A1"/>
<path d="M250.08 120.194C260.186 131.819 263.387 144.756 259.226 168.685C255.293 170.901 253.189 173.796 251.68 185.693C248.845 186.507 247.61 186.688 245.004 187.593C260.689 124.265 235.858 123.044 229.045 121.732C217.799 120.721 206.481 120.797 195.251 121.958C188.483 123.36 163.653 124.762 180.161 188C177.554 187.141 176.32 186.96 173.439 186.191C171.747 174.339 169.643 171.444 165.665 169.318C161.412 145.435 165.665 133.402 174.353 120.691C186.563 103.05 232.063 99.4313 250.08 120.194Z" fill="#634E42"/>
<path d="M197.159 113.093C193.994 113.278 190.925 114.229 188.224 115.861C184.292 118.014 174.15 132.426 176.294 135.809C184.828 149.562 211.322 153.385 229.908 154C227.117 152.105 224.932 149.469 223.608 146.399C233.807 150.805 245.219 151.703 256 148.947C252.649 140.159 249.075 130.624 241.971 124.078C235.98 118.922 228.618 115.554 220.749 114.367C212.943 113.22 205.046 112.793 197.159 113.093Z" fill="#634E42"/>
<path d="M218.923 283H206.109L202 266.449L221 266L218.923 283Z" fill="#008A84"/>
<path d="M231.734 26.9281C230.115 25.6581 228.118 24.98 226.069 25.0044C224.037 24.9406 222.042 25.5697 220.405 26.7907C219.654 27.2864 219.04 27.9666 218.62 28.7676C218.2 29.5687 217.988 30.4644 218.004 31.3708V45.6608C217.97 46.5602 218.164 47.4534 218.569 48.2552C218.973 49.057 219.574 49.7407 220.315 50.2409C221.978 51.387 223.944 52 225.956 52C227.969 52 229.935 51.387 231.598 50.2409C232.349 49.7452 232.963 49.0649 233.383 48.2639C233.803 47.4629 234.015 46.5672 233.999 45.6608V31.4166C234.007 30.5393 233.805 29.6732 233.41 28.8918C233.016 28.1103 232.441 27.4367 231.734 26.9281ZM228.652 45.4776C228.647 45.7952 228.566 46.1068 228.416 46.386C228.267 46.6651 228.052 46.9034 227.791 47.0806C227.199 47.5477 226.456 47.7762 225.707 47.7218C224.963 47.7353 224.233 47.5109 223.623 47.0806C223.369 46.8887 223.164 46.6397 223.022 46.3535C222.881 46.0673 222.807 45.7518 222.807 45.4318V31.1418C222.819 30.8257 222.903 30.5168 223.052 30.2388C223.202 29.9608 223.412 29.7212 223.668 29.5387C224.278 29.1051 225.006 28.8724 225.752 28.8724C226.498 28.8724 227.226 29.1051 227.837 29.5387C228.09 29.7307 228.295 29.9796 228.437 30.2658C228.579 30.552 228.652 30.8676 228.652 31.1876V45.4776Z" fill="#00A19A"/>
<path d="M204.691 1.8469C203.048 0.646434 201.072 0 199.044 0C197.016 0 195.04 0.646434 193.398 1.8469C192.649 2.34007 192.037 3.01668 191.618 3.81351C191.2 4.61035 190.988 5.50135 191.004 6.40304V20.6182C190.97 21.5129 191.164 22.4014 191.567 23.199C191.97 23.9966 192.57 24.6767 193.308 25.1743C194.955 26.3617 196.929 27 198.954 27C200.979 27 202.953 26.3617 204.6 25.1743C205.352 24.6843 205.966 24.0083 206.386 23.2108C206.805 22.4132 207.014 21.5206 206.994 20.6182V6.44857C207.036 5.54631 206.846 4.64851 206.442 3.84223C206.039 3.03594 205.435 2.34859 204.691 1.8469ZM201.619 20.0715C201.614 20.3874 201.533 20.6973 201.384 20.975C201.235 21.2527 201.021 21.4898 200.761 21.6661C200.152 22.0974 199.427 22.3289 198.683 22.3289C197.939 22.3289 197.213 22.0974 196.605 21.6661C196.351 21.4875 196.144 21.2488 196.002 20.9708C195.86 20.6928 195.788 20.384 195.792 20.0715V5.85625C195.804 5.54185 195.888 5.2345 196.037 4.95797C196.185 4.68144 196.395 4.4432 196.65 4.26165C197.259 3.83363 197.986 3.6104 198.728 3.62379C199.477 3.60673 200.21 3.84775 200.806 4.30718C201.058 4.49816 201.263 4.74579 201.404 5.03048C201.545 5.31517 201.619 5.6291 201.619 5.9474V20.0715Z" fill="#00A19A"/>
<path d="M225.653 0L194 51.9095L199.39 52L231 0.0452319L225.653 0Z" fill="#00A19A"/>
<path d="M138 232.339C132.562 248.558 125.712 264.263 117.529 279.27C117.529 279.676 117.125 280.082 116.901 280.442C115.154 283.688 113.363 286.889 111.571 290C111.571 290 111.571 290 111.347 290C98.6203 281.425 86.6327 271.788 75.5106 261.192C74.1668 259.975 72.7781 258.712 71.4791 257.405C65.1952 251.643 59.7779 244.991 55.3976 237.658C52.7689 232.788 50.6233 227.669 48.9919 222.375C48.0512 219.625 47.2449 216.83 46.4386 214.08C41.426 194.191 37.5079 174.038 34.7022 153.714C33.6452 148.9 33.0749 143.991 33 139.062L37.838 137.664L38.6442 137.439L45.0051 135.635L61.4002 131.127L62.9232 130.721L65.4317 130C71.6134 140.234 75.1075 153.623 80.1245 165.661C84.4117 176.494 89.3945 187.036 95.0414 197.219C105.568 214.937 119.276 222.15 138 232.339Z" fill="#D5ECF5"/>
<path d="M392 138.99C391.917 143.854 391.361 148.698 390.342 153.455C387.542 173.524 383.607 193.42 378.556 213.05C377.794 215.765 376.942 218.525 376.046 221.239C374.418 226.474 372.255 231.529 369.593 236.327C364.155 245.125 357.331 252.999 349.382 259.649C341.987 266.281 334.772 272.689 326.974 278.609C322.896 281.769 318.684 284.795 314.247 287.51L313.53 288L312.051 285.419C310.528 282.793 309.004 280.122 307.57 277.407C299.375 262.739 292.492 247.384 287 231.521C305.732 221.684 319.446 214.563 329.977 196.36C335.63 186.316 340.601 175.908 344.855 165.205C349.919 153.322 353.415 140.103 359.599 130L361.974 130.668L363.498 131.113L379.945 135.563L386.398 137.388H386.936H387.205L389.356 138.011L392 138.99Z" fill="#D5ECF5"/>
<path d="M60.494 112.76L28.0979 121.994L32.9975 139.183L65.3936 129.949L60.494 112.76Z" fill="#DEF6FF"/>
<path d="M364.64 112.97L359.741 130.159L392.137 139.394L397.036 122.205L364.64 112.97Z" fill="#DEF6FF"/>
<path d="M33.0458 129.109C33.119 129.592 33.2786 130.053 33.5142 130.459C33.7498 130.866 34.0562 131.211 34.4134 131.47C34.7706 131.73 35.1706 131.899 35.5875 131.967C36.0043 132.034 36.4288 131.999 36.8331 131.862C37.2374 131.726 37.6126 131.492 37.9343 131.175C38.256 130.859 38.517 130.467 38.7004 130.025C38.8837 129.583 38.9853 129.101 38.9985 128.61C39.0117 128.119 38.9362 127.631 38.777 127.176C38.4969 126.376 37.9733 125.726 37.3069 125.35C36.6404 124.973 35.8782 124.898 35.1669 125.138C34.4556 125.378 33.8455 125.916 33.4539 126.649C33.0623 127.382 32.9169 128.258 33.0458 129.109Z" fill="white"/>
<path d="M391.891 129.436C391.731 130.107 391.404 130.707 390.951 131.159C390.497 131.612 389.939 131.896 389.346 131.977C388.753 132.057 388.154 131.929 387.624 131.61C387.093 131.291 386.657 130.794 386.37 130.184C386.083 129.574 385.958 128.877 386.012 128.184C386.066 127.491 386.296 126.832 386.672 126.292C387.048 125.752 387.554 125.355 388.125 125.152C388.696 124.949 389.305 124.949 389.876 125.152C390.624 125.419 391.254 126.016 391.63 126.816C392.006 127.616 392.1 128.556 391.891 129.436Z" fill="white"/>
<path d="M184.505 282C175.239 268.695 169.532 252.927 168 236.396L183.819 230C186.735 244.68 196.467 255.724 211 264.237L184.505 282Z" fill="#DEF6FF"/>
<path d="M239.333 282C250.273 267.097 257.642 252.056 256.956 236.834L239.883 231C239.883 245.903 229.538 256.751 211 264.408L239.333 282Z" fill="#DEF6FF"/>
<path d="M219.879 283H206.274L196 387.306L216.642 405L234 387.578L219.879 283Z" fill="#00A19A"/>
<path d="M114.731 110L109 96.5098L180.443 66.4232L249.576 72.9464L302.003 24L312 34.6945L254.774 88.1672L182.754 81.3777L114.731 110Z" fill="#E94E1B"/>
<path d="M315.272 46L326 11L290 19.2614L315.272 46Z" fill="#E94E1B"/>
<path opacity="0.05" d="M224 436H130.712C127.232 403.928 135.173 367.993 128.437 337.179C124.734 320.47 125.537 299.628 111.93 289.476C111.93 289.476 111.93 289.476 111.706 289.476C99.0315 280.932 87.0924 271.331 76.0152 260.773C74.6768 259.56 73.2938 258.303 72 257C85.1799 266.808 99.8562 274.394 115.454 279.459L117.105 279.953C122.614 281.739 128.232 283.164 133.924 284.221L134.995 307.533C136.021 329.678 137.181 352.452 145.747 372.755C154.001 392.339 170.642 409.768 191.298 413.181L145.524 406.758C166.314 425.848 197.232 426.926 224 436Z" fill="#1D1D1B"/>
<path opacity="0.05" d="M328 280C323.837 283.187 319.538 286.24 315.009 288.978L314.277 289.472C300.326 299.618 295.34 313.669 295.431 330.818C295.431 367.495 303.711 388.549 293.876 436H263C274.024 427.785 284.316 418.402 288.982 405.788C293.144 394.52 292.229 382.219 291.315 370.278C289.82 351.573 288.296 332.823 286.74 314.028L270.502 317.799C282.83 305.393 297.06 294.956 312.676 286.868L313.774 286.285C318.402 283.95 323.15 281.852 328 280Z" fill="#1D1D1B"/>
</svg>
