<svg width="69" height="70" viewBox="0 0 69 70" fill="none" xmlns="http://www.w3.org/2000/svg">
<path d="M59.697 7.36332C59.697 3.57898 56.618 0.5 52.8336 0.5C49.9499 0.5 47.4176 2.3164 46.4209 4.91576C43.2885 2.33857 39.2802 0.789013 34.9166 0.789013C30.6581 0.789013 26.5571 2.27963 23.3007 4.99876L16.1547 2.85752C15.5811 2.68544 14.9596 3.02961 14.7995 3.60574C13.0917 9.75463 12.6276 15.3554 13.4208 20.2528C13.5164 20.8435 14.0713 21.2468 14.6639 21.1492C15.2548 21.0534 15.656 20.4969 15.5603 19.906C14.8632 15.6009 15.2141 10.6767 16.6027 5.25425L23.2482 7.24544C23.6094 7.35345 24.0005 7.26626 24.2814 7.01523C27.2096 4.39803 30.9867 2.95634 34.9166 2.95634C43.7206 2.95634 50.883 10.1188 50.883 18.9228C50.883 22.2177 49.8692 26.7389 48.1377 29.9855V16.6109C48.1377 16.0123 47.6526 15.5272 47.0539 15.5272H22.7793C22.1807 15.5272 21.6955 16.0122 21.6955 16.6109V31.7066C19.497 29.733 17.8283 27.2568 16.722 24.3206C16.5109 23.7605 15.8858 23.4775 15.3258 23.6886C14.7657 23.8998 14.4828 24.5248 14.6938 25.0849C16.227 29.1537 18.7377 32.4346 22.1562 34.8369C22.8621 35.3327 23.863 34.8083 23.863 33.9501V32.6659C25.6593 34.3629 27.8035 35.6117 30.1345 36.3342H21.9124C18.9245 36.3342 16.494 38.7649 16.494 41.7528V46.7378H4.13996C2.34735 46.7378 0.888901 48.1962 0.888901 49.9888V68.6283C0.888901 69.2268 1.37392 69.712 1.97263 69.712H6.59643C7.19501 69.712 7.68017 69.227 7.68017 68.6283C7.68017 68.0297 7.19514 67.5445 6.59643 67.5445H3.05609V56.9966H12.4481V59.3808C12.4481 59.9794 12.9331 60.4645 13.5318 60.4645H18.1556C18.7542 60.4645 19.2393 59.9795 19.2393 59.3808V56.9966H28.6313V67.5445H12.3759C11.7773 67.5445 11.2922 68.0295 11.2922 68.6283C11.2922 69.2268 11.7772 69.712 12.3759 69.712H52.2558C52.8543 69.712 53.3395 69.227 53.3395 68.6283V61.6926C53.3395 61.0941 52.8545 60.6089 52.2558 60.6089C51.6572 60.6089 51.172 61.0939 51.172 61.6926V67.5445H30.7986V49.9885C30.7986 48.1959 29.3402 46.7375 27.5476 46.7375H18.6613V41.7525C18.6613 39.9599 20.1198 38.5014 21.9124 38.5014H24.505L34.0095 53.0379C34.43 53.6806 35.403 53.6806 35.8237 53.0379L45.3284 38.5014H47.9208C49.7134 38.5014 51.1719 39.9599 51.1719 41.7525V55.9128C51.1719 56.5113 51.6569 56.9965 52.2556 56.9965C52.8542 56.9965 53.3394 56.5115 53.3394 55.9128V41.7525C53.3394 38.7646 50.9087 36.334 47.921 36.334H39.7101C42.0397 35.6125 44.177 34.3663 45.9703 32.6687V33.3718C45.9703 34.3193 47.1582 34.809 47.8255 34.133C51.0961 30.8176 53.0505 23.7958 53.0505 18.9226C53.0505 17.2944 52.8335 15.7159 52.4292 14.2137C52.5637 14.2215 52.6985 14.2266 52.8338 14.2266C56.618 14.2268 59.697 11.1478 59.697 7.36332ZM17.0719 58.2968H14.6154V56.9964H17.0717V58.2968H17.0719ZM27.5474 48.9048C28.1451 48.9048 28.6312 49.3909 28.6312 49.9885V54.829H3.05609V49.9885C3.05609 49.3909 3.5422 48.9048 4.13982 48.9048H27.5474ZM23.863 22.3183H30.9431V23.8354C30.9431 25.7293 29.3632 27.52 27.6921 27.52H23.863V22.3183ZM34.9166 50.4646L32.3536 46.5449H37.4795L34.9166 50.4646ZM42.7387 38.5014L38.8967 44.3775H30.9367L27.0946 38.5014H42.7387ZM34.9165 34.8892C30.74 34.8892 26.8182 33.0395 24.1569 29.8145C24.1184 29.7678 24.0758 29.726 24.0314 29.6873H27.692C29.9523 29.6873 31.9948 28.0104 32.7748 25.7861H37.0582C37.8382 28.0106 39.8809 29.6873 42.141 29.6873H45.7781C43.1143 32.9953 39.1679 34.8892 34.9165 34.8892ZM45.9702 27.52H42.1411C40.47 27.52 38.8901 25.7293 38.8901 23.8354V22.3183H45.9702V27.52ZM45.9702 20.151H37.8063C37.2078 20.151 36.7226 20.636 36.7226 21.2347V23.6189H33.1103V21.2347C33.1103 20.6362 32.6253 20.151 32.0266 20.151H23.863V17.6947H45.9702V20.151ZM51.6358 11.902C50.8053 9.93172 49.6357 8.13843 48.2015 6.59388C48.5717 4.34652 50.5398 2.66733 52.8338 2.66733C55.4233 2.66733 57.5298 4.77382 57.5298 7.36332C57.5298 9.95281 55.4233 12.0593 52.8338 12.0593C52.4265 12.0593 52.025 12.0044 51.6358 11.902Z" fill="#FF5151"/>
<path d="M64.3208 46.1721V32.793C64.3208 32.1944 63.8358 31.7093 63.2371 31.7093C62.6385 31.7093 62.1534 32.1943 62.1534 32.793V35.1772H59.7694C59.1708 35.1772 58.6856 35.6622 58.6856 36.2609C58.6856 36.8595 59.1707 37.3446 59.7694 37.3446H62.1535V39.8046C62.1296 39.803 62.1057 39.801 62.0813 39.801H58.6136C58.015 39.801 57.5298 40.286 57.5298 40.8847C57.5298 41.4833 58.0149 41.9684 58.6136 41.9684H62.0813C62.1058 41.9684 62.1296 41.9664 62.1535 41.9648V45.5826C62.1293 45.5822 62.1055 45.5807 62.0813 45.5807C59.5716 45.5807 57.5298 47.6226 57.5298 50.1322C57.5298 52.6419 59.5717 54.6837 62.0813 54.6837C64.5911 54.6837 66.6328 52.6418 66.6328 50.1322C66.6327 48.4361 65.6997 46.9551 64.3208 46.1721ZM62.0812 52.5162C60.7666 52.5162 59.697 51.4467 59.697 50.132C59.697 48.8174 60.7666 47.7479 62.0812 47.7479C63.3958 47.7479 64.4653 48.8174 64.4653 50.132C64.4653 51.4467 63.3958 52.5162 62.0812 52.5162Z" fill="#FF5151"/>
<path d="M65.6933 54.8294H58.1798C56.3872 54.8294 54.9287 56.2879 54.9287 58.0805V66.172C54.9287 67.9646 56.3872 69.4231 58.1798 69.4231H65.6933C67.4859 69.4231 68.9444 67.9646 68.9444 66.172V58.0805C68.9444 56.2879 67.4859 54.8294 65.6933 54.8294ZM66.7771 66.172C66.7771 66.7696 66.291 67.2558 65.6933 67.2558H58.1798C57.6066 67.2558 57.1372 66.8082 57.0997 66.2443H59.4802C60.0788 66.2443 60.5639 65.7593 60.5639 65.1606C60.5639 64.562 60.0789 64.0769 59.4802 64.0769H57.0961V63.3545H59.4802C60.0788 63.3545 60.5639 62.8695 60.5639 62.2708C60.5639 61.6722 60.0789 61.187 59.4802 61.187H57.0961V60.4646H59.4802C60.0788 60.4646 60.5639 59.9796 60.5639 59.3809C60.5639 58.7823 60.0789 58.2972 59.4802 58.2972H57.0961C57.0961 58.0099 57.1082 57.7408 57.2709 57.4907C57.4694 57.1857 57.8156 56.9966 58.1797 56.9966H65.6932C66.2908 56.9966 66.7769 57.4827 66.7769 58.0803V66.172H66.7771Z" fill="#FF5151"/>
</svg>
