<svg width="56" height="56" viewBox="0 0 56 56" fill="none" xmlns="http://www.w3.org/2000/svg">
<path d="M23.3409 16.5265C21.3379 16.5265 19.7091 14.8797 19.7091 12.8544C19.7091 10.8292 21.3379 9.18231 23.3409 9.18231C25.3439 9.18231 26.9727 10.8292 26.9727 12.8544C26.9727 14.8797 25.3437 16.5265 23.3409 16.5265Z" fill="#F9BA48"/>
<path d="M33.3283 12.852C31.3253 12.852 29.6965 11.2052 29.6965 9.17992C29.6965 7.15468 31.3253 5.50781 33.3283 5.50781C35.3313 5.50781 36.9601 7.15468 36.9601 9.17992C36.9601 11.2052 35.3313 12.852 33.3283 12.852Z" fill="#F9BA48"/>
<path d="M22.4329 3.67188H20.6169V8.26211H22.4329V3.67188Z" fill="#FF5151"/>
<path d="M26.0647 2.75519H24.2487V8.26336H26.0647V2.75519Z" fill="#FF5151"/>
<path d="M32.4205 0.916687H30.6046V4.5888H32.4205V0.916687Z" fill="#FF5151"/>
<path d="M36.0523 0H34.2364V4.59024H36.0523V0Z" fill="#FF5151"/>
<path d="M56 17.2185L54.9205 12.8516H50.5796V14.6876H52.4282L46.7727 22.5504L42.3409 18.9655L37.8337 23.5226C37.6638 22.1685 36.5299 21.1137 35.1444 21.1137H34.893L38.5248 14.6874H18.0938L21.5196 20.382L18.4725 22.9498H0.641913V24.7858H19.1297L24.4612 20.2939L30.0769 21.9161L31.9874 24.3295C32.2397 24.6489 32.3515 25.0492 32.3006 25.455C32.2488 25.8608 32.0428 26.2198 31.7185 26.4658C31.133 26.911 30.2993 26.8495 29.7809 26.3264L27.9488 24.4738L22.7743 28.6591L23.3064 29.331C23.1348 31.6545 22.097 33.9148 20.3219 35.7601C20.3092 35.7738 20.2983 35.7885 20.2855 35.8014H19.9241L18.1082 34.8833H0.641913V36.7193H17.6787L19.0143 37.394C17.9238 39.0162 17.2538 40.8742 17.0558 42.837L13.3531 39.0941L0 52.596L1.28383 53.894L13.3533 41.6907L17.0669 45.4454C17.7423 51.1308 22.5599 55.755 28.3009 55.989C28.4661 55.9954 28.6306 55.9992 28.7939 55.9992C31.8582 55.9992 34.7437 54.8286 36.9636 52.6721C39.3035 50.4009 40.5918 47.344 40.5918 44.0647C40.5918 41.0967 39.515 38.3051 37.5684 36.1138C37.7535 35.742 37.868 35.3288 37.868 34.8844C37.868 34.1766 37.5947 33.5368 37.1598 33.0484C37.5957 32.5599 37.868 31.9201 37.868 31.2123C37.868 30.5045 37.5947 29.8647 37.1598 29.3763C37.5957 28.8878 37.868 28.248 37.868 27.5402C37.868 27.116 37.7653 26.7194 37.5947 26.3606L42.4749 21.4263L47.1227 25.1855L53.8015 15.8997L54.2383 17.6651L56 17.2185ZM36.0523 23.8679C36.0523 24.3738 35.6446 24.7858 35.1442 24.7858H34.0793C33.9966 24.2065 33.7769 23.6538 33.4046 23.183L33.2195 22.9498H35.1442C35.6446 22.9498 36.0523 23.362 36.0523 23.8679ZM24.0363 18.2614L22.9305 19.1933L21.3243 16.5237H35.3958L32.8018 21.1141H31.7677L31.133 20.3117L24.0363 18.2614ZM32.8071 27.9348C33.2638 27.5888 33.6016 27.1334 33.8267 26.6221H35.1442C35.6446 26.6221 36.0523 27.0343 36.0523 27.5402C36.0523 28.0461 35.6446 28.4583 35.1442 28.4583H31.7712C32.1371 28.3487 32.4884 28.1763 32.8071 27.9348ZM36.0523 31.2123C36.0523 31.7182 35.6446 32.1304 35.1442 32.1304H31.5124C31.0121 32.1304 30.6044 31.7182 30.6044 31.2123C30.6044 30.7064 31.0121 30.2942 31.5124 30.2942H35.1442C35.6446 30.294 36.0523 30.7063 36.0523 31.2123ZM36.0523 34.8844C36.0523 35.3903 35.6446 35.8026 35.1442 35.8026H31.5124C31.0121 35.8026 30.6044 35.3903 30.6044 34.8844C30.6044 34.3786 31.0121 33.9663 31.5124 33.9663H35.1442C35.6446 33.9661 36.0523 34.3784 36.0523 34.8844ZM35.7063 51.3482C33.7279 53.2697 31.1374 54.2603 28.3745 54.1547C23.191 53.9436 18.8963 49.5002 18.8028 44.2502C18.7547 41.543 19.7561 38.9825 21.6228 37.0409C23.7891 34.7891 25.0158 31.9843 25.134 29.1017L27.8134 26.9343L28.4962 27.6246C28.5988 27.7284 28.7123 27.8138 28.8239 27.9C28.8983 28.4646 29.1371 28.9722 29.4966 29.3753C29.0608 29.8637 28.7884 30.5036 28.7884 31.2113C28.7884 31.9191 29.0618 32.559 29.4966 33.0474C29.0608 33.5358 28.7884 34.1757 28.7884 34.8835C28.7884 35.5912 29.0618 36.2311 29.4966 36.7195H27.8804V38.5556H27.4264C25.674 38.5556 24.2486 39.9968 24.2486 41.7686C24.2486 43.5404 25.674 44.9817 27.4264 44.9817H30.1503C30.9013 44.9817 31.5122 45.5996 31.5122 46.3587C31.5122 47.1178 30.9011 47.7366 30.1503 47.7366H27.4264C26.6754 47.7366 26.0645 47.1187 26.0645 46.3596V45.9006H24.2486V46.3596C24.2486 48.1315 25.674 49.5727 27.4264 49.5727H27.8804V51.4087H29.6963V49.5727H30.1503C31.9027 49.5727 33.3281 48.1315 33.3281 46.3596C33.3281 44.5878 31.9027 43.1466 30.1503 43.1466H27.4264C26.6754 43.1466 26.0645 42.5287 26.0645 41.7696C26.0645 41.0103 26.6756 40.3926 27.4264 40.3926H30.1503C30.9013 40.3926 31.5122 41.0105 31.5122 41.7696V42.2287H33.3281V41.7696C33.3281 39.9978 31.9027 38.5565 30.1503 38.5565H29.6963V36.9224C30.1794 37.3631 30.8122 37.6384 31.5122 37.6384H35.144C35.5436 37.6384 35.9212 37.5458 36.2636 37.3887C37.8825 39.234 38.7759 41.5767 38.7759 44.0645C38.7761 46.8387 37.6855 49.426 35.7063 51.3482Z" fill="#FF5151"/>
</svg>
