<svg width="57" height="57" viewBox="0 0 57 57" fill="none" xmlns="http://www.w3.org/2000/svg">
<path d="M29.6938 43.8773L37.31 30.743L45.1659 35.9421L56.9302 36.1106V33.3293H46.0001L36.6147 27.1206L30.5429 37.5954L24.2031 11.5359L20.8949 39.9874L16.4942 24.7094L12.3504 33.324H5.20443V9.94744H4.064V50.684H0.069458V52.0729H4.06436V56.9306H5.20479V52.0803H56.9306V50.6914H21.9534L24.9928 24.5713L29.6938 43.8773ZM5.203 50.6892V36.1102H13.6566L15.9721 31.3031L21.5587 50.6862H5.203V50.6892ZM44.2134 18.536C48.0995 15.809 49.4349 9.74012 47.1927 5.0149C44.9487 0.290102 39.9651 -1.33535 36.0833 1.39377C32.1975 4.12159 30.8603 10.1892 33.1025 14.9118C35.3462 19.644 40.3273 21.2642 44.2134 18.536ZM36.7568 2.81234C39.9948 0.537056 44.1536 1.89421 46.0262 5.83764C47.8937 9.78194 46.7812 14.8404 43.5389 17.12C40.3022 19.4018 36.1434 18.0377 34.2737 14.093C32.3972 10.15 33.5133 5.08894 36.7568 2.81234ZM46.2602 17.9327L48.9547 23.6053L45.4579 26.0631L42.7677 20.3905L46.2602 17.9327ZM45.8158 26.8331L49.3158 24.3757C49.8711 25.5517 49.543 27.0583 48.5772 27.7347C47.6118 28.4093 46.374 28.0091 45.8158 26.8331Z" fill="#FF5151"/>
</svg>
