<svg width="37" height="37" viewBox="0 0 37 37" fill="none" xmlns="http://www.w3.org/2000/svg">
<g clip-path="url(#clip0_69_966)">
<path d="M25.2597 18.7707L36.4664 4.33163C37.1779 3.42919 37.1779 1.98529 36.4664 0.902363C35.577 -0.361052 33.7981 -0.54154 32.7308 0.360899L18.6779 11.7316L4.26928 0.541387C3.37985 -0.180564 1.95678 -0.180564 0.88947 0.541387C-0.355722 1.44383 -0.533607 3.2487 0.355816 4.33163L11.5625 18.7707L0.355816 33.2097C-0.355722 34.1121 -0.355722 35.556 0.355816 36.6389C1.24524 37.9024 3.02409 38.0828 4.09139 37.1804L18.1443 25.8097L32.1972 37.1804C33.0866 37.9024 34.5097 37.9024 35.577 37.1804C36.8222 36.278 37 34.4731 36.1106 33.3902L25.2597 18.7707Z" fill="#DC411D"/>
</g>
<defs>
<clipPath id="clip0_69_966">
<rect width="37" height="37" fill="white"/>
</clipPath>
</defs>
</svg>
