<svg width="165" height="81" viewBox="0 0 165 81" fill="none" xmlns="http://www.w3.org/2000/svg">
<path d="M71.5671 45.1098V27.3911H75.4465V45.1098H71.5671ZM79.4504 45.1098V31.5423H83.2794V33.4661C84.4045 32.0149 85.7229 31.2892 87.2343 31.2892C88.6785 31.2892 89.8038 31.7365 90.6099 32.6308C91.416 33.5252 91.8191 34.757 91.8191 36.3264V45.1098H87.9901V37.5414C87.9901 36.6471 87.7885 35.9637 87.3855 35.4911C86.9824 35.0186 86.4113 34.7823 85.6725 34.7823C84.9335 34.7823 84.3457 35.0186 83.9091 35.4911C83.4892 35.9637 83.2794 36.6471 83.2794 37.5414V45.1098H79.4504ZM100.687 45.363C99.008 45.363 97.5637 44.7302 96.3546 43.4645C95.1454 42.1989 94.5408 40.4777 94.5408 38.3008C94.5408 36.1409 95.1369 34.4364 96.3294 33.1877C97.5385 31.922 98.9911 31.2892 100.687 31.2892C102.367 31.2892 103.769 31.9643 104.894 33.3142V26.6317H108.723V45.1098H104.894V43.1608C103.819 44.6289 102.417 45.363 100.687 45.363ZM99.3271 41.0598C99.9653 41.7518 100.746 42.0977 101.67 42.0977C102.593 42.0977 103.366 41.7518 103.987 41.0598C104.626 40.3511 104.945 39.4315 104.945 38.3008C104.945 37.204 104.626 36.3096 103.987 35.6177C103.366 34.9089 102.593 34.5545 101.67 34.5545C100.746 34.5545 99.9653 34.9089 99.3271 35.6177C98.6889 36.3096 98.3698 37.2208 98.3698 38.3514C98.3698 39.4483 98.6889 40.3511 99.3271 41.0598ZM112.22 30.0489V26.6317H116.25V30.0489H112.22ZM112.321 45.1098V31.5423H116.15V45.1098H112.321ZM123.575 45.363C122.248 45.363 121.14 44.9918 120.25 44.2492C119.376 43.5068 118.94 42.4773 118.94 41.1611C118.94 39.7268 119.427 38.6468 120.401 37.9211C121.392 37.1955 122.718 36.8327 124.381 36.8327C125.506 36.8327 126.607 37.0183 127.681 37.3895V37.1617C127.681 35.508 126.715 34.6811 124.784 34.6811C123.625 34.6811 122.382 34.9259 121.056 35.4152L120.098 32.4789C121.744 31.7533 123.491 31.3905 125.338 31.3905C127.37 31.3905 128.89 31.8967 129.898 32.9092C130.871 33.888 131.359 35.3309 131.359 37.2377V45.1098H127.656V43.6417C126.632 44.7893 125.271 45.363 123.575 45.363ZM124.734 42.7052C125.624 42.7052 126.346 42.4858 126.9 42.047C127.454 41.5914 127.731 41.0177 127.731 40.3258V39.6423C127.01 39.3049 126.195 39.1361 125.288 39.1361C124.448 39.1361 123.793 39.3049 123.323 39.6423C122.869 39.963 122.643 40.4355 122.643 41.0598C122.643 41.5661 122.836 41.9711 123.222 42.2748C123.608 42.5618 124.112 42.7052 124.734 42.7052Z" fill="#123A4A"/>
<path d="M15.9709 76.7504V59.0316H19.548L27.8106 69.9413V59.0316H31.6397V76.7504H28.3396L19.8 65.4863V76.7504H15.9709ZM41.8681 77.0541C39.8192 77.0541 38.1315 76.4045 36.8048 75.1051C35.478 73.7888 34.8147 72.0845 34.8147 69.9919C34.8147 68.0176 35.4445 66.3469 36.704 64.9801C37.9636 63.6132 39.5589 62.9297 41.4903 62.9297C43.6231 62.9297 45.252 63.6385 46.3773 65.056C47.5024 66.4735 48.0651 68.2201 48.0651 70.2957C48.0651 70.4982 48.0482 70.8357 48.0147 71.3082H38.6185C38.8032 72.1688 39.181 72.8269 39.7521 73.2826C40.3231 73.7382 41.0452 73.966 41.9185 73.966C43.1108 73.966 44.2024 73.502 45.1933 72.5738L47.3849 74.5229C46.0246 76.2105 44.1857 77.0541 41.8681 77.0541ZM38.5681 68.9035H44.3368C44.2192 68.026 43.9086 67.3258 43.4048 66.8026C42.9177 66.2795 42.2795 66.0179 41.4903 66.0179C40.7177 66.0179 40.0711 66.2795 39.5506 66.8026C39.0468 67.3088 38.7193 68.0092 38.5681 68.9035ZM55.4782 76.9782C54.2187 76.9782 53.2447 76.6744 52.5561 76.0669C51.8844 75.4426 51.5485 74.3879 51.5485 72.9029V66.4735H49.9363V63.1829H51.5485V59.7151H55.3775V63.1829H58.5515V66.4735H55.3775V72.2701C55.3775 73.1476 55.789 73.5863 56.6118 73.5863C57.2835 73.5863 57.9133 73.4261 58.5011 73.1054V76.1935C57.6279 76.7167 56.6203 76.9782 55.4782 76.9782Z" fill="#123A4A"/>
<path d="M61.7771 76.7505V59.0317H69.9641C71.9961 59.0317 73.5328 59.5549 74.574 60.6011C75.3802 61.4111 75.7832 62.4321 75.7832 63.6639C75.7832 65.3345 75.0107 66.6086 73.4657 67.4861C74.5573 67.908 75.3802 68.4649 75.9344 69.1567C76.4886 69.8318 76.7657 70.743 76.7657 71.8905C76.7657 73.4768 76.1778 74.6833 75.0023 75.5102C73.8268 76.3371 72.2145 76.7505 70.1656 76.7505H61.7771ZM65.5557 66.1951H69.1328C70.9969 66.1951 71.929 65.554 71.929 64.2714C71.929 63.6809 71.7107 63.2336 71.274 62.9298C70.8374 62.6093 70.2076 62.4489 69.3847 62.4489H65.5557V66.1951ZM65.5557 73.3333H70.1656C71.9961 73.3333 72.9115 72.6752 72.9115 71.3589C72.9115 70.0764 71.9542 69.4352 70.0397 69.4352H65.5557V73.3333ZM83.3828 77.0036C82.056 77.0036 80.9476 76.6324 80.0576 75.8898C79.1842 75.1474 78.7477 74.118 78.7477 72.8017C78.7477 71.3674 79.2346 70.2874 80.2087 69.5617C81.1995 68.8361 82.5263 68.4733 84.1889 68.4733C85.314 68.4733 86.414 68.6589 87.4889 69.0302V68.8023C87.4889 67.1487 86.5232 66.3217 84.5919 66.3217C83.4332 66.3217 82.1904 66.5665 80.8637 67.0558L79.9064 64.1195C81.5522 63.3939 83.2988 63.0311 85.1461 63.0311C87.1782 63.0311 88.698 63.5373 89.7057 64.5498C90.6797 65.5287 91.1667 66.9715 91.1667 68.8783V76.7505H87.4637V75.2823C86.4392 76.4299 85.0789 77.0036 83.3828 77.0036ZM84.5416 74.3458C85.4315 74.3458 86.1538 74.1264 86.708 73.6877C87.2622 73.232 87.5393 72.6583 87.5393 71.9664V71.283C86.817 70.9455 86.0026 70.7767 85.0958 70.7767C84.256 70.7767 83.6011 70.9455 83.1309 71.283C82.6774 71.6037 82.4507 72.0761 82.4507 72.7005C82.4507 73.2067 82.6438 73.6117 83.0301 73.9155C83.4163 74.2024 83.9201 74.3458 84.5416 74.3458ZM94.4616 76.7505V63.183H98.2906V65.1067C99.4159 63.6555 100.734 62.9298 102.246 62.9298C103.69 62.9298 104.815 63.3771 105.621 64.2714C106.427 65.1658 106.83 66.3977 106.83 67.967V76.7505H103.001V69.182C103.001 68.2877 102.8 67.6043 102.397 67.1317C101.994 66.6593 101.423 66.423 100.684 66.423C99.9449 66.423 99.357 66.6593 98.9204 67.1317C98.5006 67.6043 98.2906 68.2877 98.2906 69.182V76.7505H94.4616ZM110.157 76.7505V58.2723H113.986V68.1189L118.47 63.183H123.054L117.916 68.5239L123.231 76.7505H118.848L115.321 71.207L113.986 72.6245V76.7505H110.157ZM125.14 61.6895V58.2723H129.171V61.6895H125.14ZM125.241 76.7505V63.183H129.07V76.7505H125.241ZM132.666 76.7505V63.183H136.495V65.1067C137.62 63.6555 138.939 62.9298 140.45 62.9298C141.894 62.9298 143.02 63.3771 143.826 64.2714C144.632 65.1658 145.035 66.3977 145.035 67.967V76.7505H141.206V69.182C141.206 68.2877 141.005 67.6043 140.602 67.1317C140.198 66.6593 139.627 66.423 138.889 66.423C138.149 66.423 137.561 66.6593 137.125 67.1317C136.704 67.6043 136.495 68.2877 136.495 69.182V76.7505H132.666ZM154.407 80.8511C152.207 80.8511 150.217 80.3786 148.437 79.4336L149.747 76.548C151.208 77.3749 152.727 77.7883 154.307 77.7883C156.876 77.7883 158.161 76.5564 158.161 74.0927V73.4345C157.556 74.1771 156.909 74.7339 156.221 75.1052C155.548 75.4595 154.726 75.6367 153.752 75.6367C152.09 75.6367 150.67 75.063 149.495 73.9155C148.336 72.768 147.757 71.2155 147.757 69.258C147.757 67.3174 148.344 65.7818 149.52 64.6511C150.695 63.5037 152.106 62.9298 153.752 62.9298C155.431 62.9298 156.884 63.6049 158.11 64.9548V63.183H161.939V73.6877C161.939 76.1008 161.368 77.8812 160.226 79.0286C159.017 80.2436 157.078 80.8511 154.407 80.8511ZM152.518 71.5867C153.139 72.1605 153.92 72.4473 154.861 72.4473C155.8 72.4473 156.581 72.1521 157.204 71.5614C157.841 70.9709 158.161 70.203 158.161 69.258C158.161 68.3467 157.841 67.5958 157.204 67.0051C156.581 66.4146 155.8 66.1192 154.861 66.1192C153.92 66.1192 153.139 66.4146 152.518 67.0051C151.896 67.5958 151.586 68.3637 151.586 69.3086C151.586 70.2368 151.896 70.9962 152.518 71.5867Z" fill="#0494D1"/>
<path d="M159.962 50.1722H17.6336C16.2423 50.1722 15.1145 51.3055 15.1145 52.7035C15.1145 54.1015 16.2423 55.2347 17.6336 55.2347H159.962C161.353 55.2347 162.481 54.1015 162.481 52.7035C162.481 51.3055 161.353 50.1722 159.962 50.1722Z" fill="#123A4A"/>
<path d="M38.0556 0.75804C38.8451 0.290289 39.8252 0.290288 40.6146 0.758039L65.4478 15.4712C67.6574 16.7804 66.7334 20.1829 64.1683 20.1829H14.5019C11.9368 20.1829 11.0129 16.7804 13.2224 15.4712L38.0556 0.75804Z" fill="#123A4A"/>
<path d="M22.5883 16.819H20.9312C19.5399 16.819 18.4121 17.9522 18.4121 19.3502V42.8802C18.4121 44.2782 19.5399 45.4115 20.9312 45.4115H22.5883C23.9796 45.4115 25.1074 44.2782 25.1074 42.8802V19.3502C25.1074 17.9522 23.9796 16.819 22.5883 16.819Z" fill="#123A4A"/>
<path d="M57.739 16.819H56.0818C54.6906 16.819 53.5627 17.9522 53.5627 19.3502V42.8802C53.5627 44.2782 54.6906 45.4115 56.0818 45.4115H57.739C59.1302 45.4115 60.2581 44.2782 60.2581 42.8802V19.3502C60.2581 17.9522 59.1302 16.819 57.739 16.819Z" fill="#123A4A"/>
<path d="M39.3352 43.7299C45.344 43.7299 50.2151 38.8353 50.2151 32.7974C50.2151 26.7596 45.344 21.865 39.3352 21.865C33.3264 21.865 28.4553 26.7596 28.4553 32.7974C28.4553 38.8353 33.3264 43.7299 39.3352 43.7299Z" fill="#0494D1"/>
<path d="M36.0875 32.5328L37.6947 33.1956L36.0658 37.6709C36.0236 37.7869 36.0215 37.9136 36.0598 38.0309C36.0979 38.1481 36.1744 38.249 36.2765 38.3173L36.3061 38.3345C36.4073 38.3932 36.5246 38.4179 36.6407 38.4049C36.7568 38.3918 36.8656 38.3417 36.9514 38.262L42.4559 33.1379C42.5231 33.0752 42.5736 32.9964 42.6027 32.9089C42.6318 32.8213 42.6384 32.7279 42.6221 32.637C42.6057 32.5463 42.567 32.4611 42.5091 32.3894C42.4515 32.3176 42.3766 32.2617 42.2917 32.2266L40.6325 31.5415L41.812 26.8397C41.8416 26.7218 41.8314 26.5974 41.7829 26.4859C41.7345 26.3742 41.6506 26.2821 41.5445 26.2236C41.4383 26.1651 41.3157 26.1438 41.1962 26.1627C41.0765 26.1817 40.9666 26.2401 40.8836 26.3287L35.8987 31.6452C35.8372 31.71 35.7925 31.7888 35.7683 31.8749C35.7443 31.961 35.7412 32.0516 35.7599 32.139C35.7785 32.2265 35.8181 32.3081 35.8751 32.3767C35.9322 32.4453 36.0051 32.4988 36.0875 32.5328Z" fill="white"/>
</svg>
