<svg width="129" height="46" viewBox="0 0 129 46" fill="none" xmlns="http://www.w3.org/2000/svg">
<path d="M101.666 5.36298L112.276 3.45007V44.5054H101.666V5.36298ZM117.206 5.36298V44.5054H127.879V3.45007L117.206 5.36298ZM86.5255 44.5054H97.1726V14.4759H86.5255V44.5054ZM16.1642 18.7219C14.8162 18.6341 11.7019 18.4334 11.7019 15.586C11.7019 12.1867 16.1892 12.1867 17.868 12.1867C20.8262 12.1867 24.6583 13.0648 27.3919 13.8864C27.3919 13.8864 28.921 14.4257 30.2191 14.9839L30.3377 15.0153V5.72674L30.1691 5.67658C26.9425 4.54138 23.1917 3.45007 16.2266 3.45007C4.22517 3.45007 0 10.4745 0 16.4954C0 19.9637 1.47912 28.1296 15.2281 29.0768C16.3951 29.1456 19.4844 29.3275 19.4844 32.2125C19.4844 34.6148 16.9506 36.0385 12.6942 36.0385C8.59708 36.0132 4.53949 35.2307 0.723958 33.7303V43.3263C5.36567 44.4776 10.1356 45.0235 14.916 44.9505C26.6491 44.9505 31.9102 38.3025 31.9102 31.7109C31.9102 24.2537 26.0251 19.3867 16.1642 18.7219ZM80.5278 14.0369C70.6857 14.3568 65.693 18.7909 65.693 27.6092V44.5054H76.4275V30.7073C76.4275 25.4265 77.1141 23.1812 83.3488 22.9492V14.2188C82.4164 14.0683 81.4718 14.0074 80.5278 14.0369ZM51.6445 14.4446C50.1985 18.2321 48.1474 21.7571 45.5719 24.8807V3.45007L34.5878 5.63267V44.5179H45.5719V32.4885C48.7549 37.2865 50.3275 44.5054 50.3275 44.5054H63.4898C62.1855 39.0678 56.4937 29.0391 56.4937 29.0391C59.8822 24.6549 62.4957 19.7183 64.2201 14.4446H51.6445ZM91.8553 11.5972C92.8937 11.5984 93.9091 11.2901 94.773 10.7113C95.637 10.1324 96.3108 9.30911 96.709 8.34541C97.107 7.38171 97.2119 6.32097 97.0101 5.29739C96.8082 4.27381 96.3089 3.33338 95.575 2.59508C94.8414 1.85679 93.9062 1.35382 92.8879 1.14978C91.8694 0.945756 90.8139 1.04984 89.8543 1.44888C88.8949 1.84792 88.0749 2.52397 87.4978 3.3915C86.9208 4.25904 86.6129 5.27907 86.6129 6.32256C86.6129 7.71931 87.164 9.05902 88.1457 10.0478C89.1273 11.0366 90.4592 11.5938 91.849 11.5972H91.8553Z" fill="#862165"/>
</svg>
