<svg width="45" height="45" viewBox="0 0 45 45" fill="none" xmlns="http://www.w3.org/2000/svg">
<path d="M35.625 24.375C36.2625 24.375 36.8813 24.45 37.5 24.5438V18.75C37.5 17.7554 37.1049 16.8016 36.4016 16.0984C35.6984 15.3951 34.7446 15 33.75 15H31.875V11.25C31.875 6.075 27.675 1.875 22.5 1.875C17.325 1.875 13.125 6.075 13.125 11.25V15H11.25C10.2554 15 9.30161 15.3951 8.59835 16.0984C7.89509 16.8016 7.5 17.7554 7.5 18.75V37.5C7.5 39.5812 9.16875 41.25 11.25 41.25H25.8938C24.9375 39.6 24.375 37.6875 24.375 35.625C24.375 29.4188 29.4188 24.375 35.625 24.375ZM16.875 11.25C16.875 8.1375 19.3875 5.625 22.5 5.625C25.6125 5.625 28.125 8.1375 28.125 11.25V15H16.875V11.25ZM22.5 31.875C21.7583 31.875 21.0333 31.6551 20.4166 31.243C19.7999 30.831 19.3193 30.2453 19.0355 29.5601C18.7516 28.8748 18.6774 28.1208 18.8221 27.3934C18.9667 26.666 19.3239 25.9978 19.8484 25.4734C20.3728 24.9489 21.041 24.5917 21.7684 24.4471C22.4958 24.3024 23.2498 24.3766 23.9351 24.6605C24.6203 24.9443 25.206 25.4249 25.618 26.0416C26.0301 26.6583 26.25 27.3833 26.25 28.125C26.25 30.2062 24.5812 31.875 22.5 31.875ZM42.1875 32.3438L33.2812 41.25L28.125 35.625L30.3 33.45L33.2812 36.4313L40.0125 29.7L42.1875 32.3438Z" fill="#FF0000"/>
</svg>
