<svg width="129" height="24" viewBox="0 0 129 24" fill="none" xmlns="http://www.w3.org/2000/svg">
<mask id="mask0_69_6752" style="mask-type:luminance" maskUnits="userSpaceOnUse" x="0" y="0" width="129" height="23">
<path d="M128.479 0.330688H0V22.9974H128.479V0.330688Z" fill="white"/>
</mask>
<g mask="url(#mask0_69_6752)">
<path d="M119.855 10.2231C119.128 10.7444 118.068 11.0002 116.621 11.0002H115.188L116.289 4.91583H117.346C118.549 4.91583 119.425 5.11336 120.03 5.51488C120.368 5.74497 120.641 6.06201 120.822 6.43423C121.004 6.80645 121.086 7.22081 121.061 7.63583C121.061 9.0606 120.409 9.82803 119.859 10.2263L119.855 10.2231ZM34.221 17.8585H23.1009L23.8193 13.8821H30.7811L31.5912 9.39736H24.6832L25.3508 5.46307H36.4266L34.221 17.8585ZM125.84 2.05336C124.207 0.90707 121.735 0.330688 118.495 0.330688H110.008L106.843 17.8585H95.7357L96.4477 13.8821H103.147L103.944 9.41679H97.2515L97.9698 5.4566H104.868L105.78 0.330688H91.7706L88.7769 16.9584H83.6346L86.6536 0.330688H79.3277L76.3341 16.9584H71.3215L74.3405 0.330688H67.0241L63.8597 17.8585H52.6637L53.3694 13.8821H60.0971L60.8881 9.44269H54.17L54.8819 5.47603H61.8439L62.7743 0.330688H19.1199L16.6358 14.2221L11.6865 0.330688H4.0917L0 22.9973H7.2562L9.73085 8.72707L14.5345 22.9973H40.5404L43.7049 5.46631H47.7839L44.6195 22.9973H113.033L115.014 11.9295L118.229 22.9973H125.488L122.15 13.9566L122.909 13.7882C124.438 13.5094 125.819 12.6801 126.802 11.4503C127.713 10.2555 128.175 8.72383 128.175 6.88136C128.175 4.73773 127.409 3.15755 125.83 2.0566" fill="#83BA3B"/>
</g>
</svg>
