<svg width="130" height="53" viewBox="0 0 130 53" fill="none" xmlns="http://www.w3.org/2000/svg">
<mask id="mask0_69_6758" style="mask-type:luminance" maskUnits="userSpaceOnUse" x="4" y="4" width="122" height="46">
<path d="M125.465 4.95581H4.53491V49.0077H125.465V4.95581Z" fill="white"/>
</mask>
<g mask="url(#mask0_69_6758)">
<path d="M36.8718 30.7311C38.9532 21.9011 33.495 13.0528 24.6806 10.9678C15.8661 8.88278 7.03326 14.3506 4.9519 23.1805C2.87053 32.0105 8.32876 40.8588 17.1431 42.9438C25.9576 45.0288 34.7905 39.561 36.8718 30.7311Z" fill="#5F259F"/>
<path d="M87.4454 36.3429V30.3775C87.4454 28.9091 86.8957 28.175 85.5215 28.175C84.9719 28.175 84.3305 28.2667 83.9641 28.3585V37.077C83.9641 37.3524 83.6893 37.6277 83.4145 37.6277H81.3073C81.0324 37.6277 80.7576 37.3524 80.7576 37.077V26.8901C80.7576 26.5229 81.0324 26.2476 81.3073 26.1558C82.6815 25.697 84.0557 25.4217 85.5215 25.4217C88.8196 25.4217 90.652 27.1654 90.652 30.3775V37.1689C90.652 37.4442 90.377 37.7195 90.1022 37.7195H88.8196C87.9951 37.7195 87.4454 37.077 87.4454 36.3429ZM95.6907 32.7637L95.5991 33.5896C95.5991 34.6909 96.3319 35.3333 97.5229 35.3333C98.4391 35.3333 99.2636 35.058 100.18 34.5992C100.271 34.5992 100.363 34.5074 100.455 34.5074C100.638 34.5074 100.729 34.5992 100.821 34.6909C100.913 34.7827 101.096 35.058 101.096 35.058C101.279 35.3333 101.462 35.7005 101.462 35.9758C101.462 36.4346 101.188 36.8935 100.821 37.077C99.8134 37.6277 98.6223 37.903 97.3397 37.903C95.8739 37.903 94.6829 37.536 93.7668 36.8017C92.8506 35.9758 92.301 34.8745 92.301 33.4978V29.9187C92.301 27.0736 94.1333 25.3299 97.2481 25.3299C100.271 25.3299 102.012 26.9819 102.012 29.9187V32.1212C102.012 32.3965 101.737 32.6719 101.462 32.6719H95.6907V32.7637ZM95.5991 30.7446H99.0804V29.8269C99.0804 28.7256 98.4391 27.9913 97.3397 27.9913C96.2403 27.9913 95.5991 28.6338 95.5991 29.8269V30.7446ZM118.961 32.7637L118.869 33.5896C118.869 34.6909 119.602 35.3333 120.793 35.3333C121.709 35.3333 122.534 35.058 123.45 34.5992C123.541 34.5992 123.633 34.5074 123.724 34.5074C123.908 34.5074 123.999 34.5992 124.091 34.6909C124.183 34.7827 124.366 35.058 124.366 35.058C124.549 35.3333 124.732 35.7005 124.732 35.9758C124.732 36.4346 124.457 36.8935 124.091 37.077C123.083 37.6277 121.892 37.903 120.61 37.903C119.144 37.903 117.953 37.536 117.037 36.8017C116.12 35.9758 115.571 34.8745 115.571 33.4978V29.9187C115.571 27.0736 117.403 25.3299 120.518 25.3299C123.541 25.3299 125.282 26.9819 125.282 29.9187V32.1212C125.282 32.3965 125.007 32.6719 124.732 32.6719H118.961V32.7637ZM118.869 30.7446H122.35V29.8269C122.35 28.7256 121.709 27.9913 120.61 27.9913C119.51 27.9913 118.869 28.6338 118.869 29.8269V30.7446ZM65.0001 37.7195H66.2826C66.5575 37.7195 66.8324 37.4442 66.8324 37.1689V30.3775C66.8324 27.2572 65.1833 25.4217 62.4349 25.4217C61.6103 25.4217 60.6942 25.6052 60.1445 25.7888V22.3931C60.1445 21.6588 59.5032 21.0165 58.7702 21.0165H57.4878C57.2128 21.0165 56.938 21.2918 56.938 21.5671V37.1689C56.938 37.4442 57.2128 37.7195 57.4878 37.7195H59.5948C59.8696 37.7195 60.1445 37.4442 60.1445 37.1689V28.542C60.6026 28.3585 61.2439 28.2667 61.7019 28.2667C63.0761 28.2667 63.6259 28.9091 63.6259 30.4693V36.4346C63.7175 37.077 64.2671 37.7195 65.0001 37.7195ZM78.8338 30.0104V33.4061C78.8338 36.2511 76.9098 37.9948 73.7033 37.9948C70.5884 37.9948 68.573 36.2511 68.573 33.4061V30.0104C68.573 27.1654 70.4968 25.4217 73.7033 25.4217C76.9098 25.4217 78.8338 27.1654 78.8338 30.0104ZM75.6273 30.0104C75.6273 28.9091 74.9859 28.175 73.7949 28.175C72.6041 28.175 71.9627 28.8173 71.9627 30.0104V33.4061C71.9627 34.5074 72.6041 35.1498 73.7949 35.1498C74.9859 35.1498 75.6273 34.5074 75.6273 33.4061V30.0104ZM55.1974 28.4503C55.1974 31.3871 52.9987 33.4061 50.067 33.4061C49.3341 33.4061 48.6928 33.3143 48.0514 33.039V37.1689C48.0514 37.4442 47.7766 37.7195 47.5018 37.7195H45.3948C45.1198 37.7195 44.845 37.4442 44.845 37.1689V22.5766C44.845 22.2096 45.1198 21.9341 45.3948 21.8424C46.769 21.3835 48.143 21.1082 49.6089 21.1082C52.9071 21.1082 55.1974 23.1272 55.1974 26.2476V28.4503ZM51.8993 26.064C51.8993 24.5956 50.8915 23.8615 49.5173 23.8615C48.6928 23.8615 48.143 24.1368 48.143 24.1368V30.194C48.6928 30.4693 48.9676 30.561 49.6089 30.561C50.9831 30.561 51.9909 29.7351 51.9909 28.3585V26.064H51.8993ZM114.38 28.4503C114.38 31.3871 112.181 33.4061 109.25 33.4061C108.517 33.4061 107.875 33.3143 107.234 33.039V37.1689C107.234 37.4442 106.959 37.7195 106.684 37.7195H104.577C104.302 37.7195 104.027 37.4442 104.027 37.1689V22.5766C104.027 22.2096 104.302 21.9341 104.577 21.8424C105.951 21.3835 107.326 21.1082 108.792 21.1082C112.09 21.1082 114.38 23.1272 114.38 26.2476V28.4503ZM111.082 26.064C111.082 24.5956 110.074 23.8615 108.7 23.8615C107.875 23.8615 107.326 24.1368 107.326 24.1368V30.194C107.875 30.4693 108.15 30.561 108.792 30.561C110.166 30.561 111.173 29.7351 111.173 28.3585V26.064H111.082Z" fill="#5F259F"/>
<path d="M28.3544 22.6684C28.3544 22.0259 27.8048 21.4753 27.1634 21.4753H24.9647L19.9258 15.6934C19.4678 15.1428 18.735 14.9593 18.002 15.1428L16.2614 15.6934C15.9865 15.7852 15.8949 16.1523 16.0781 16.3359L21.5749 21.567H13.2381C12.9633 21.567 12.78 21.7506 12.78 22.0259V22.9437C12.78 23.586 13.3297 24.1368 13.971 24.1368H15.2536V28.542C15.2536 31.8459 16.9942 33.7731 19.9258 33.7731C20.842 33.7731 21.5749 33.6813 22.4911 33.3143V36.2511C22.4911 37.077 23.1325 37.7195 23.9569 37.7195H25.2395C25.5143 37.7195 25.7891 37.4442 25.7891 37.1687V24.045H27.8964C28.1712 24.045 28.3544 23.8615 28.3544 23.586V22.6684ZM22.4911 30.561C21.9414 30.8363 21.2085 30.9281 20.6588 30.9281C19.193 30.9281 18.46 30.1939 18.46 28.542V24.1368H22.4911V30.561Z" fill="white"/>
</g>
</svg>
