<svg width="148" height="57" viewBox="0 0 148 57" fill="none" xmlns="http://www.w3.org/2000/svg">
<path d="M105.878 44.0765H99.4443L108.392 13.4678H114.826L105.878 44.0765Z" fill="#2F374C"/>
<path d="M102.621 14.3469C102.173 13.7626 101.482 13.4678 100.544 13.4678H65.0274L63.2682 19.4818H69.7307V19.4784H95.5782L93.6979 25.9053H67.8495L67.8519 25.8921H61.3921L56.0305 44.2124H62.4938L66.0918 31.916H95.1471C96.0545 31.916 96.9086 31.623 97.7118 31.0372C98.5134 30.4506 99.0409 29.7275 99.2938 28.8639L102.891 16.5649C103.154 15.6724 103.063 14.9318 102.621 14.3469Z" fill="#2F374C"/>
<path d="M52.3601 42.1563C52.0037 43.3717 50.8354 44.2124 49.5033 44.2124H16.2148C15.3077 44.2124 14.6336 43.9195 14.1902 43.3346C13.7472 42.7489 13.6522 42.0245 13.9055 41.1615L22.028 13.4678H28.4858L21.231 38.2026H47.0632L54.3182 13.4678H60.7746L52.3601 42.1563Z" fill="#2F374C"/>
<path d="M126.095 13.4678L134.233 28.8422L117.126 44.2124L126.095 13.4678Z" fill="#27803B"/>
<path d="M120.354 13.4678L128.482 28.8422L111.376 44.2124L120.354 13.4678Z" fill="#E9661C"/>
</svg>
