<svg width="55" height="55" viewBox="0 0 55 55" fill="none" xmlns="http://www.w3.org/2000/svg">
<g clip-path="url(#clip0_69_6805)">
<path d="M55 27.5C55 12.3122 42.6878 0 27.5 0C12.3122 0 0 12.3122 0 27.5C0 42.6878 12.3122 55 27.5 55C42.6878 55 55 42.6878 55 27.5Z" fill="#00AD41"/>
<path d="M11.9004 13.1055H43.0899V18.9062H11.9004V13.1055Z" fill="white"/>
<path fill-rule="evenodd" clip-rule="evenodd" d="M27.5001 35.2344C37.4179 35.2344 45.4581 32.9739 45.4581 30.1855C45.4581 27.3972 37.4179 25.1367 27.5001 25.1367C17.582 25.1367 9.54199 27.3972 9.54199 30.1855C9.54199 32.9739 17.582 35.2344 27.5001 35.2344ZM27.5269 33.8977C36.122 33.8977 43.0897 32.1755 43.0897 30.0513C43.0897 27.9269 36.122 26.2049 27.5269 26.2049C18.9318 26.2049 11.964 27.9269 11.964 30.0513C11.964 32.1755 18.9318 33.8977 27.5269 33.8977Z" fill="white"/>
<path d="M24.5947 34.6972V44.2949H30.3955V34.6972H24.5947Z" fill="white"/>
<path d="M24.5947 32.0653V13.1055H30.3955V32.0653H24.5947Z" fill="white"/>
</g>
<defs>
<clipPath id="clip0_69_6805">
<rect width="55" height="55" fill="white"/>
</clipPath>
</defs>
</svg>
