<svg width="184" height="79" viewBox="0 0 184 79" fill="none" xmlns="http://www.w3.org/2000/svg">
<path opacity="0.7" fill-rule="evenodd" clip-rule="evenodd" d="M0 36.346H28.6263V26.1794H11.8978V0.762491H0V36.346ZM47.7553 37.1086C58.738 37.1086 67.2291 28.8735 67.2291 18.5542V18.4526C67.2291 8.13325 58.8396 0 47.8568 0C36.8744 0 28.3829 8.23512 28.3829 18.5542V18.656C28.3829 28.9754 36.7725 37.1086 47.7553 37.1086ZM47.8568 26.5862C43.2808 26.5862 40.3826 22.7736 40.3826 18.5542V18.4526C40.3826 14.2841 43.2298 10.5224 47.7553 10.5224C52.3313 10.5224 55.2295 14.3351 55.2295 18.5542V18.656C55.2295 22.8245 52.3822 26.5862 47.8568 26.5862ZM88.1027 37.1086C96.9497 37.1086 101.933 32.7877 104.932 27.501L95.1194 21.9603C93.6447 24.6035 91.7634 26.4334 88.4077 26.4334C84.4926 26.4334 81.7469 23.18 81.7469 18.5542V18.4526C81.7469 14.1826 84.3907 10.6752 88.4077 10.6752C91.6618 10.6752 93.5431 12.4542 94.865 14.9959L104.678 9.25178C101.678 3.81253 96.3904 0 88.5602 0C77.9334 0 69.6457 7.93019 69.6457 18.5542V18.656C69.6457 29.6868 78.2384 37.1086 88.1027 37.1086ZM104.014 36.346H116.726L118.556 31.5676H131.013L132.894 36.346H145.809L130.81 0.508328H119.013L104.014 36.346ZM121.556 23.1294L124.81 14.4875L128.064 23.1294H121.556ZM147.274 36.346H175.9V26.1794H159.172V0.762491H147.274V36.346ZM0 78.3392H19.7283C28.7278 78.3392 33.4058 74.1707 33.4058 68.4776V68.3757C33.4058 63.4958 30.4566 61.0557 25.8806 59.7341C29.6938 58.4125 32.2364 55.82 32.2364 51.6005V51.499C32.2364 49.0589 31.321 47.229 30.0497 45.958C27.965 43.8741 24.8637 42.7555 19.9314 42.7555H0V78.3392ZM20.5417 54.295C20.5417 55.8706 19.3214 56.7347 16.7791 56.7347H11.5928V51.7533H16.7282C19.2704 51.7533 20.5417 52.6172 20.5417 54.1931V54.295ZM21.4571 66.6473V66.7492C21.4571 68.2742 20.1348 69.3418 17.5416 69.3418H11.5928V64.0551H17.5926C20.1858 64.0551 21.4571 65.1223 21.4571 66.6473ZM33.4061 78.3392H46.1176L47.948 73.5609H60.4051L62.2864 78.3392H75.2011L60.2017 42.5015H48.4055L33.4061 78.3392ZM50.9477 65.1223L54.2019 56.4807L57.456 65.1223H50.9477ZM76.6658 78.3392H88.462V61.9199L101.682 78.3392H112.258V42.7555H100.462V58.4631L87.801 42.7555H76.6658V78.3392ZM116.339 78.3392H128.237V70.7649L131.288 67.0541L138.254 78.3392H152.44L139.779 58.2091L152.186 42.7555H138.356L128.237 56.074V42.7555H116.339V78.3392ZM168.289 79C177.848 79 184 74.425 184 66.9526V66.8507C184 59.6832 177.899 57.04 168.797 55.3622C165.035 54.6508 164.069 54.0406 164.069 53.0749V52.973C164.069 52.1089 164.882 51.499 166.661 51.499C169.967 51.499 173.984 52.5666 177.339 55.0067L183.136 46.9746C179.017 43.7213 173.933 42.0948 167.068 42.0948C157.255 42.0948 151.967 47.3305 151.967 54.0916V54.1931C151.967 61.7165 158.984 64.0042 166.967 65.6307C170.78 66.3933 171.899 66.9526 171.899 67.9692V68.0708C171.899 69.0365 170.983 69.5958 168.848 69.5958C164.679 69.5958 160.255 68.3757 156.391 65.4276L150.035 73.0016C154.56 76.9667 161.069 79 168.289 79Z" fill="white"/>
</svg>
