<svg width="45" height="54" viewBox="0 0 45 54" fill="none" xmlns="http://www.w3.org/2000/svg">
<path d="M37.6235 28.536C37.5996 24.1115 39.5842 20.7721 43.6012 18.3127C41.3536 15.0697 37.9583 13.2855 33.475 12.9358C29.2309 12.5983 24.5922 15.4314 22.8945 15.4314C21.1012 15.4314 16.9886 13.0564 13.7606 13.0564C7.08953 13.1649 0 18.4212 0 29.1147C0 32.2733 0.573858 35.5364 1.72157 38.904C3.25186 43.3284 8.77524 54.1786 14.5377 53.9978C17.5505 53.9254 19.6785 51.8398 23.5999 51.8398C27.4017 51.8398 29.3743 53.9978 32.7338 53.9978C38.5441 53.9134 43.5414 44.0518 45 39.6152C37.2051 35.9141 37.6235 28.7651 37.6235 28.536ZM30.8568 8.74043C34.1206 4.83436 33.8217 1.27791 33.7261 0C30.8448 0.168781 27.5093 1.97715 25.6084 4.20746C23.5162 6.5945 22.2848 9.54817 22.5478 12.8756C25.6682 13.1167 28.5136 11.5012 30.8568 8.74043Z" fill="#FF5151"/>
</svg>
