<svg width="167" height="58" viewBox="0 0 167 58" fill="none" xmlns="http://www.w3.org/2000/svg">
<path opacity="0.7" fill-rule="evenodd" clip-rule="evenodd" d="M21.1343 23.3546L21.1318 23.3543C19.3741 23.2378 15.3103 22.9685 15.3103 19.2464C15.3103 14.7533 21.1667 14.7533 23.3631 14.7533C27.225 14.7533 32.2287 15.9124 35.8014 16.9997C35.8014 16.9997 37.7934 17.7142 39.4887 18.4454L39.6483 18.4893V18.326V6.18296L39.4314 6.11837C35.2155 4.61907 30.3115 3.17631 21.224 3.17631C5.55221 3.17631 0 12.458 0 20.4096C0 24.993 1.92968 35.7821 19.8802 37.0268L19.8952 37.0278C21.4285 37.1231 25.4374 37.3722 25.4374 41.2055C25.4374 44.3834 22.1315 46.2557 16.5719 46.2557C10.4811 46.2557 4.56741 44.6769 0.977304 43.1783V55.8518C6.3525 57.2835 12.4108 58 19.5113 58C34.8365 58 41.6977 49.2177 41.6977 40.5139C41.6977 30.6453 34.0188 24.2319 21.1343 23.3546ZM67.4592 17.6985C67.4417 17.7462 67.4168 17.8145 67.3819 17.902C66.8683 19.2629 64.5995 25.2833 59.5385 31.5089V3.17643L45.193 6.05876V57.4169H59.5385V41.5419C63.6945 47.8765 65.7464 57.4169 65.7464 57.4169H82.9291C81.2312 50.2327 73.7942 36.9851 73.7942 36.9851C80.4683 28.3839 83.3978 19.2188 83.864 17.6985H67.4592ZM119.957 13.9358C123.744 13.9358 126.813 10.817 126.813 6.96976C126.813 3.12169 123.744 0 119.957 0C116.177 0 113.108 3.12169 113.108 6.96976C113.108 10.817 116.177 13.9358 119.957 13.9358ZM85.8036 35.0958C85.8036 23.4441 92.3282 17.5831 105.178 17.1631C105.178 17.1631 107.494 17.0716 108.865 17.3681V28.962C100.723 29.2465 99.825 32.2384 99.825 39.2136V57.4169H85.8036V35.0958ZM126.915 57.4169H113.011V17.7442H126.915V57.4169ZM153.093 5.70464V57.4169H167V3.17643L153.093 5.70464ZM146.698 3.17643L132.807 5.70464V57.4169H146.698V3.17643Z" fill="white"/>
</svg>
