<svg width="142" height="45" viewBox="0 0 142 45" fill="none" xmlns="http://www.w3.org/2000/svg">
<path opacity="0.7" fill-rule="evenodd" clip-rule="evenodd" d="M1.62193 7.2919C0.803938 7.2919 0.135946 7.79325 0.133602 8.79339L7.0345e-06 43.5201C-0.00233678 44.4179 0.581268 44.8653 1.37582 44.8653H7.90335C8.65337 44.8653 9.27682 44.4935 9.27682 43.7439V33.7822H15.4903C19.6294 33.5101 22.3998 31.5635 23.5506 27.6463C23.8952 26.4709 23.9678 25.4546 23.9678 24.2468V16.1075C23.6631 10.0929 20.5576 7.80405 16.1114 7.2919H1.62193ZM13.198 16.5254H9.34244V24.4272H13.198C14.0652 24.4272 14.7777 23.7049 14.7777 22.826V18.1242C14.7777 17.2454 14.0652 16.5254 13.198 16.5254ZM31.1094 7.33858H41.2347C47.1646 7.68651 50.3732 10.8326 50.2889 17.3568V41.5182C50.2889 43.3918 48.4161 44.81 46.8177 44.81H33.5423C29.5133 44.81 26.8554 41.6367 26.1921 38.5255C25.7421 36.4143 25.8476 33.9889 25.946 31.6707C25.9882 30.7096 26.028 29.7657 26.028 28.8714C26.028 24.1614 29.1172 19.492 34.2619 19.492H39.6643C41.2347 19.4059 41.1667 15.9335 39.6643 16.0547H31.2196C30.3618 16.0547 29.7617 15.5963 29.6821 14.7149V8.38728C29.6821 7.57859 30.3407 7.33858 31.1094 7.33858ZM36.6947 28.2269H39.7815C40.5105 28.2269 41.1105 28.8308 41.1105 29.5696V35.0102C41.1105 35.7515 40.5105 36.3554 39.7815 36.3554H36.6947C35.9635 36.3554 35.3705 35.7515 35.3705 35.0102V29.5696C35.3705 28.8308 35.9635 28.2269 36.6947 28.2269ZM53.3944 24.3005V9.03855C53.3944 8.04921 53.5936 7.26187 54.3788 7.26187H61.2884C62.2587 7.26187 62.6103 7.91431 62.6103 8.80137V22.1975C62.6103 22.9525 63.0392 23.3811 63.822 23.3811H67.2229C67.7502 23.3811 68.0784 23.0306 68.0784 22.4349V8.56136C68.0784 8.02763 68.4651 7.29964 69.1284 7.29964H76.3122C76.8091 7.29964 77.3271 7.62058 77.3271 8.44828V33.7632C77.3271 41.533 73.2582 45 66.1096 45H57.5406C56.8328 45 56.2914 44.4904 56.2914 43.8138V37.0956C56.2914 36.2003 56.6546 35.672 57.6578 35.672H66.9065C68.5682 35.672 68.6761 32.6688 66.9065 32.6688H62.6314C58.0094 32.6688 53.7624 29.0858 53.3944 24.3005ZM80.9389 15.3101V8.71034C80.9389 8.00135 81.5131 7.42163 82.2139 7.42163H83.7843C86.9156 6.76262 88.2 5.17714 89.768 3.2435C90.2274 2.67786 90.7103 2.08242 91.2704 1.47173C92.7892 -0.19443 94.1252 -0.631176 95.1096 1.1346V7.42163H98.8198C99.5206 7.42163 100.093 8.00135 100.093 8.71034V15.3101C100.093 16.0165 99.5183 16.5988 98.8198 16.5988H95.1072V43.6393C95.1072 44.3483 94.533 44.928 93.8345 44.928H87.3047C86.6062 44.928 86.0343 44.3483 86.0343 43.6393V16.5988H82.2139C81.5178 16.5988 80.9389 16.0191 80.9389 15.3101ZM125.589 44.809C126.46 44.809 127.18 44.0893 127.18 43.2102C127.18 39.0665 127.166 34.9419 127.15 30.8264C127.135 26.7299 127.119 22.6428 127.119 18.5557C127.112 15.9163 132.257 15.113 132.606 18.5557V43.2102C132.606 44.0893 133.323 44.809 134.2 44.809H140.315C141.187 44.809 141.906 44.0893 141.906 43.2102C141.906 38.804 141.927 34.4377 141.946 30.0806C141.965 25.7412 141.983 21.4111 141.983 17.0593C142.476 9.17111 131.847 2.76278 125.645 9.95564C122.347 6.36449 116.152 5.81738 112.58 9.2734V8.8016C112.58 7.91478 111.863 7.195 110.984 7.195H104.872C103.995 7.195 103.275 7.91478 103.275 8.8016V43.2102C103.275 44.0893 103.995 44.809 104.872 44.809H110.984C111.863 44.809 112.58 44.0893 112.58 43.2102V18.3912C112.58 15.2909 117.927 15.7087 117.877 18.3912V43.2102C117.877 44.0893 118.592 44.809 119.473 44.809H125.589Z" fill="white"/>
</svg>
