<svg width="199" height="52" viewBox="0 0 199 52" fill="none" xmlns="http://www.w3.org/2000/svg">
<path opacity="0.7" fill-rule="evenodd" clip-rule="evenodd" d="M7.60225 22.9184H1.37473V0.386172H7.60225V22.9184ZM17.8256 22.9184H11.695V0.386172H17.4762L26.6742 12.296V0.386172H32.8049V22.9184H27.3753L17.8256 10.5578V22.9184ZM54.5927 15.9655C54.5927 20.5686 50.9842 23.3045 45.5547 23.3045C41.5946 23.3045 37.8239 22.0492 35.0786 19.5707L38.5271 15.4183C40.7314 17.1888 43.1904 18.1222 45.7778 18.1222C47.4389 18.1222 48.3316 17.5429 48.3316 16.5127C48.3316 15.5793 47.5989 15.0644 44.563 14.3561C39.805 13.2617 36.1313 11.9099 36.1313 7.21021C36.1313 3.02574 39.4219 0 44.7883 0C48.5884 0 51.559 1.02993 53.9864 2.99348L50.8874 7.40329C48.8431 5.95492 46.6073 5.18236 44.6283 5.18236C43.1272 5.18236 42.3925 5.82612 42.3925 6.69523C42.3925 7.72517 43.1588 8.17585 46.2557 8.88411C51.3989 10.0106 54.5927 11.6845 54.5927 15.9655ZM68.6394 22.9184H62.4434V5.85839H55.7359V0.386172H75.3469V5.85839H68.6394V22.9184ZM79.9238 22.9184H73.4078L82.926 0.225341H88.8987L98.4147 22.9184H91.7725L90.1429 18.8947H81.5196L79.9238 22.9184ZM85.8629 7.62863L83.3407 14.0342H88.3555L85.8629 7.62863ZM106.716 22.9184H100.585V0.386172H106.366L115.565 12.296V0.386172H121.695V22.9184H116.266L106.716 10.5578V22.9184ZM137.319 22.9184H131.123V5.85839H124.415V0.386172H144.026V5.85839H137.319V22.9184ZM12.9034 51.6138H6.70752V34.5536H0V29.0816H19.611V34.5536H12.9034V51.6138ZM28.5269 51.6138H22.331V29.0816H32.9017C36.3186 29.0816 38.6829 29.9828 40.184 31.4957C41.4935 32.8154 42.163 34.5536 42.163 36.8391C42.163 40.2832 40.344 42.5687 37.565 43.7596L42.8978 51.6138H35.7439L31.2406 44.7898H28.5269V51.6138ZM28.5269 34.4894V39.8971H32.6133C34.7228 39.8971 35.9355 38.8669 35.9355 37.1609C35.9355 35.3905 34.6575 34.4894 32.5817 34.4894H28.5269ZM49.639 51.6138H43.123L52.6411 28.9206H58.6118L68.1299 51.6138H61.4876L59.8581 47.5902H51.2348L49.639 51.6138ZM55.578 36.3241L53.0558 42.7297H58.0707L55.578 36.3241ZM76.4311 51.6138H70.3004V29.0816H76.0795L85.2776 40.9915V29.0816H91.4104V51.6138H85.9808L76.4311 39.2533V51.6138ZM113.198 44.661C113.198 49.2639 109.588 52 104.158 52C100.198 52 96.4294 50.7447 93.6841 48.2662L97.1326 44.1138C99.3368 45.8842 101.796 46.8176 104.383 46.8176C106.044 46.8176 106.937 46.2382 106.937 45.2082C106.937 44.2746 106.202 43.7596 103.169 43.0516C98.4105 41.9571 94.7367 40.6051 94.7367 35.9057C94.7367 31.721 98.0273 28.6953 103.392 28.6953C107.194 28.6953 110.164 29.7254 112.59 31.689L109.493 36.0988C107.449 34.6502 105.213 33.8776 103.234 33.8776C101.733 33.8776 100.998 34.5214 100.998 35.3905C100.998 36.4207 101.764 36.8713 104.861 37.5794C110.004 38.7061 113.198 40.3798 113.198 44.661ZM122.407 51.6138H116.211V29.0816H134.095V34.5536H122.407V38.3842H132.978V43.5666H122.407V51.6138ZM155.062 51.6138H136.921V29.0816H154.902V34.3928H143.054V37.8047H153.784V42.7297H143.054V46.3027H155.062V51.6138ZM164.418 51.6138H158.222V29.0816H168.795C172.212 29.0816 174.574 29.9828 176.075 31.4957C177.385 32.8154 178.056 34.5536 178.056 36.8391C178.056 40.2832 176.235 42.5687 173.458 43.7596L178.791 51.6138H171.637L167.134 44.7898H164.418V51.6138ZM164.418 34.4894V39.8971H168.507C170.614 39.8971 171.829 38.8669 171.829 37.1609C171.829 35.3905 170.551 34.4894 168.475 34.4894H164.418ZM199 44.661C199 49.2639 195.391 52 189.962 52C186.002 52 182.233 50.7447 179.486 48.2662L182.934 44.1138C185.139 45.8842 187.598 46.8176 190.185 46.8176C191.846 46.8176 192.741 46.2382 192.741 45.2082C192.741 44.2746 192.006 43.7596 188.97 43.0516C184.212 41.9571 180.541 40.6051 180.541 35.9057C180.541 31.721 183.829 28.6953 189.196 28.6953C192.996 28.6953 195.966 29.7254 198.394 31.689L195.295 36.0988C193.25 34.6502 191.015 33.8776 189.036 33.8776C187.534 33.8776 186.8 34.5214 186.8 35.3905C186.8 36.4207 187.566 36.8713 190.665 37.5794C195.806 38.7061 199 40.3798 199 44.661Z" fill="white"/>
</svg>
